M48
INCH
T01C0.012
T02C0.0315
T03C0.0433
%
T01
X+009378Y+006315
X+009752Y+007127
X+008067Y+006440
X+007877Y+006003
X+007065Y+006252
X+006940Y+005109
X+008815Y+009690
X+009481Y+010268
X+009694Y+009877
X+009877Y+009690
X+010192Y+010376
X+010574Y+010368
X+009246Y+010668
X+009246Y+012259
X+009565Y+012503
X+008109Y+012378
X+007065Y+011752
X+006690Y+011940
X+006083Y+012378
X+006690Y+010878
X+007065Y+011056
X+010110Y+014629
T02
X+008878Y+008190
X+008878Y+008977
X+009940Y+008977
X+009940Y+008190
X+007815Y+008190
X+007815Y+008977
X+006752Y+008977
X+006752Y+008190
T03
X+005190Y+013315
X+006190Y+013315
X+007190Y+013315
X+008190Y+013315
X+009190Y+013315
X+010190Y+013315
X+011190Y+013315
X+011690Y+011877
X+011690Y+010877
X+011690Y+009877
X+011690Y+008877
X+011690Y+007877
X+011690Y+006877
X+011690Y+005877
X+011690Y+004877
X+004690Y+004940
X+004690Y+005940
X+004690Y+006940
X+004690Y+007940
X+004690Y+008940
X+004690Y+009940
X+004690Y+010940
X+004690Y+011940
T00
M30
