G04 DipTrace 3.1.0.0*
G04 MSP430FR2311Breakout.gbo*
%MOIN*%
G04 #@! TF.FileFunction,Legend,Bot*
G04 #@! TF.Part,Single*
%ADD12C,0.003*%
%ADD58C,0.004632*%
%FSLAX26Y26*%
G04*
G70*
G90*
G75*
G01*
G04 BotSilk*
%LPD*%
X797251Y1216000D2*
D12*
X815251D1*
X796190Y1213000D2*
X816300D1*
X794954Y1210000D2*
X817421D1*
X767251Y1207000D2*
X770251D1*
X793463D2*
X818919D1*
X842251D2*
X845251D1*
X763363Y1204000D2*
X774844D1*
X789723D2*
X821280D1*
X837657D2*
X848251D1*
X760077Y1201000D2*
X779251D1*
X785251D2*
X824251D1*
X833251D2*
X851251D1*
X757586Y1198000D2*
X854251D1*
X757235Y1195000D2*
X857251D1*
X758181Y1192000D2*
X855288D1*
X759606Y1189000D2*
X853310D1*
X761181Y1186000D2*
X851483D1*
X762511Y1183000D2*
X850024D1*
X762439Y1180000D2*
X850073D1*
X761063Y1177000D2*
X851442D1*
X757330Y1174000D2*
X804544D1*
X807957D2*
X855172D1*
X752607Y1171000D2*
X798431D1*
X814070D2*
X859894D1*
X748359Y1168000D2*
X794258D1*
X818243D2*
X864143D1*
X745157Y1165000D2*
X791564D1*
X820937D2*
X867344D1*
X744149Y1162000D2*
X789625D1*
X822876D2*
X868353D1*
X743622Y1159000D2*
X789144D1*
X823357D2*
X868879D1*
X743392Y1156000D2*
X789819D1*
X822682D2*
X869109D1*
X743299Y1153000D2*
X791063D1*
X821438D2*
X869202D1*
X743251Y1150000D2*
X793002D1*
X819499D2*
X869251D1*
X751315Y1147000D2*
X795358D1*
X817143D2*
X861187D1*
X757694Y1144000D2*
X797567D1*
X814935D2*
X854807D1*
X760851Y1141000D2*
X798087D1*
X814415D2*
X851651D1*
X762366Y1138000D2*
X797332D1*
X815169D2*
X850135D1*
X762154Y1135000D2*
X796226D1*
X816275D2*
X850348D1*
X760703Y1132000D2*
X794906D1*
X817595D2*
X851798D1*
X759057Y1129000D2*
X793569D1*
X818932D2*
X853444D1*
X757229Y1126000D2*
X792371D1*
X820130D2*
X855272D1*
X755251Y1123000D2*
X791241D1*
X821261D2*
X857251D1*
X758251Y1120000D2*
X789861D1*
X822640D2*
X854251D1*
X761251Y1117000D2*
X779802D1*
X785251D2*
X788251D1*
X824251D2*
X827251D1*
X832699D2*
X851251D1*
X764251Y1114000D2*
X774855D1*
X837646D2*
X848251D1*
X767251Y1111000D2*
X770251D1*
X842251D2*
X845251D1*
X728251Y1099000D2*
X770251D1*
X779251D2*
X782251D1*
X788251D2*
X797251D1*
X803251D2*
X812251D1*
X827251D2*
X836251D1*
X842251D2*
X851251D1*
X860251D2*
X869251D1*
X875251D2*
X881251D1*
X728251Y1096000D2*
X770251D1*
X779251D2*
X813431D1*
X825866D2*
X836251D1*
X842251D2*
X869251D1*
X875251D2*
X879646D1*
X728251Y1093000D2*
X743251D1*
X749251D2*
X752251D1*
X761251D2*
X770251D1*
X779251D2*
X788251D1*
X794251D2*
X797251D1*
X803251D2*
X813491D1*
X825004D2*
X827251D1*
X833251D2*
X836251D1*
X842251D2*
X860251D1*
X866251D2*
X877574D1*
X728251Y1090000D2*
X740251D1*
X749251D2*
X752251D1*
X761251D2*
X770251D1*
X779251D2*
X788251D1*
X794251D2*
X813709D1*
X824567D2*
X827251D1*
X833251D2*
X836251D1*
X842251D2*
X860251D1*
X866251D2*
X875251D1*
X728251Y1087000D2*
X752251D1*
X761251D2*
X814262D1*
X824367D2*
X827251D1*
X833251D2*
X836251D1*
X842251D2*
X878438D1*
X728251Y1084000D2*
X752251D1*
X761251D2*
X814738D1*
X824251D2*
X827251D1*
X833251D2*
X836251D1*
X842251D2*
X869251D1*
X875251D2*
X881251D1*
X812022Y1081000D2*
X815019D1*
X866251D2*
X869251D1*
X811524Y1078000D2*
X815156D1*
X866251D2*
X869251D1*
X809829Y1075000D2*
X815216D1*
X866251D2*
X869251D1*
X746251Y1072000D2*
X767251D1*
X773251D2*
X791251D1*
X797251D2*
X800251D1*
X807991D2*
X836251D1*
X842251D2*
X869251D1*
X744855Y1069000D2*
X767251D1*
X773251D2*
X776251D1*
X782251D2*
X800251D1*
X806251D2*
X836251D1*
X842251D2*
X851251D1*
X857251D2*
X869251D1*
X743927Y1066000D2*
X758251D1*
X764251D2*
X767251D1*
X773251D2*
X815251D1*
X821251D2*
X824251D1*
X833251D2*
X836251D1*
X842251D2*
X860251D1*
X866251D2*
X869251D1*
X743251Y1063000D2*
X758251D1*
X764251D2*
X767251D1*
X773251D2*
X806251D1*
X812251D2*
X815251D1*
X821251D2*
X824251D1*
X833251D2*
X836251D1*
X842251D2*
X860251D1*
X866251D2*
X869251D1*
X797251Y1216000D2*
X796190Y1213000D1*
X794954Y1210000D1*
X793463Y1207000D1*
X789723Y1204000D1*
X785251Y1201000D1*
X815251Y1216000D2*
X816300Y1213000D1*
X817421Y1210000D1*
X818919Y1207000D1*
X821280Y1204000D1*
X824251Y1201000D1*
X767251Y1207000D2*
X763363Y1204000D1*
X760077Y1201000D1*
X757586Y1198000D1*
X757235Y1195000D1*
X758181Y1192000D1*
X759606Y1189000D1*
X761181Y1186000D1*
X762511Y1183000D1*
X762439Y1180000D1*
X761063Y1177000D1*
X757330Y1174000D1*
X752607Y1171000D1*
X748359Y1168000D1*
X745157Y1165000D1*
X744149Y1162000D1*
X743622Y1159000D1*
X743392Y1156000D1*
X743299Y1153000D1*
X743251Y1150000D1*
X751315Y1147000D1*
X757694Y1144000D1*
X760851Y1141000D1*
X762366Y1138000D1*
X762154Y1135000D1*
X760703Y1132000D1*
X759057Y1129000D1*
X757229Y1126000D1*
X755251Y1123000D1*
X758251Y1120000D1*
X761251Y1117000D1*
X764251Y1114000D1*
X767251Y1111000D1*
X770251Y1207000D2*
X774844Y1204000D1*
X779251Y1201000D1*
X842251Y1207000D2*
X837657Y1204000D1*
X833251Y1201000D1*
X845251Y1207000D2*
X848251Y1204000D1*
X851251Y1201000D1*
X854251Y1198000D1*
X857251Y1195000D1*
X855288Y1192000D1*
X853310Y1189000D1*
X851483Y1186000D1*
X850024Y1183000D1*
X850073Y1180000D1*
X851442Y1177000D1*
X855172Y1174000D1*
X859894Y1171000D1*
X864143Y1168000D1*
X867344Y1165000D1*
X868353Y1162000D1*
X868879Y1159000D1*
X869109Y1156000D1*
X869202Y1153000D1*
X869251Y1150000D1*
X861187Y1147000D1*
X854807Y1144000D1*
X851651Y1141000D1*
X850135Y1138000D1*
X850348Y1135000D1*
X851798Y1132000D1*
X853444Y1129000D1*
X855272Y1126000D1*
X857251Y1123000D1*
X854251Y1120000D1*
X851251Y1117000D1*
X848251Y1114000D1*
X845251Y1111000D1*
X812251Y1177000D2*
X804544Y1174000D1*
X798431Y1171000D1*
X794258Y1168000D1*
X791564Y1165000D1*
X789625Y1162000D1*
X789144Y1159000D1*
X789819Y1156000D1*
X791063Y1153000D1*
X793002Y1150000D1*
X795358Y1147000D1*
X797567Y1144000D1*
X798087Y1141000D1*
X797332Y1138000D1*
X796226Y1135000D1*
X794906Y1132000D1*
X793569Y1129000D1*
X792371Y1126000D1*
X791241Y1123000D1*
X789861Y1120000D1*
X788251Y1117000D1*
X800251Y1177000D2*
X807957Y1174000D1*
X814070Y1171000D1*
X818243Y1168000D1*
X820937Y1165000D1*
X822876Y1162000D1*
X823357Y1159000D1*
X822682Y1156000D1*
X821438Y1153000D1*
X819499Y1150000D1*
X817143Y1147000D1*
X814935Y1144000D1*
X814415Y1141000D1*
X815169Y1138000D1*
X816275Y1135000D1*
X817595Y1132000D1*
X818932Y1129000D1*
X820130Y1126000D1*
X821261Y1123000D1*
X822640Y1120000D1*
X824251Y1117000D1*
X785251Y1120000D2*
X779802Y1117000D1*
X774855Y1114000D1*
X770251Y1111000D1*
X782251Y1120000D2*
X785251Y1117000D1*
X830251Y1120000D2*
X827251Y1117000D1*
Y1120000D2*
X832699Y1117000D1*
X837646Y1114000D1*
X842251Y1111000D1*
X728251Y1099000D2*
Y1096000D1*
Y1093000D1*
Y1090000D1*
Y1087000D1*
Y1084000D1*
X770251Y1099000D2*
Y1096000D1*
Y1093000D1*
Y1090000D1*
X779251Y1099000D2*
Y1096000D1*
Y1093000D1*
Y1090000D1*
X782251Y1099000D2*
X788251D2*
X797251D2*
X803251D2*
X812251D2*
X813431Y1096000D1*
X813491Y1093000D1*
X813709Y1090000D1*
X814262Y1087000D1*
X814738Y1084000D1*
X815019Y1081000D1*
X815156Y1078000D1*
X815216Y1075000D1*
X815251Y1072000D1*
X836251D1*
Y1069000D1*
Y1066000D1*
Y1063000D1*
X827251Y1099000D2*
X825866Y1096000D1*
X825004Y1093000D1*
X824567Y1090000D1*
X824367Y1087000D1*
X824251Y1084000D1*
X836251Y1099000D2*
Y1096000D1*
Y1093000D1*
Y1090000D1*
Y1087000D1*
Y1084000D1*
X842251Y1099000D2*
Y1096000D1*
Y1093000D1*
Y1090000D1*
Y1087000D1*
Y1084000D1*
Y1081000D1*
X866251D1*
Y1078000D1*
Y1075000D1*
Y1072000D1*
X842251D1*
Y1069000D1*
Y1066000D1*
Y1063000D1*
X851251Y1099000D2*
X860251D2*
X869251D2*
Y1096000D1*
X875251Y1099000D2*
Y1096000D1*
X881251Y1099000D2*
X879646Y1096000D1*
X877574Y1093000D1*
X875251Y1090000D1*
X878438Y1087000D1*
X881251Y1084000D1*
X746251Y1096000D2*
X743251Y1093000D1*
X740251Y1090000D1*
X749251Y1096000D2*
Y1093000D1*
Y1090000D1*
X752251Y1096000D2*
Y1093000D1*
Y1090000D1*
Y1087000D1*
Y1084000D1*
X761251Y1096000D2*
Y1093000D1*
Y1090000D1*
Y1087000D1*
Y1084000D1*
X788251Y1096000D2*
Y1093000D1*
Y1090000D1*
X794251Y1096000D2*
Y1093000D1*
Y1090000D1*
X800251Y1096000D2*
X797251Y1093000D1*
X800251Y1096000D2*
X803251Y1093000D1*
X827251Y1096000D2*
Y1093000D1*
Y1090000D1*
Y1087000D1*
Y1084000D1*
X833251Y1096000D2*
Y1093000D1*
Y1090000D1*
Y1087000D1*
Y1084000D1*
X860251Y1096000D2*
Y1093000D1*
Y1090000D1*
X866251Y1096000D2*
Y1093000D1*
Y1090000D1*
X869251Y1087000D2*
Y1084000D1*
Y1081000D1*
Y1078000D1*
Y1075000D1*
Y1072000D1*
Y1069000D1*
Y1066000D1*
Y1063000D1*
X872251Y1087000D2*
X875251Y1084000D1*
X812251D2*
X812022Y1081000D1*
X811524Y1078000D1*
X809829Y1075000D1*
X807991Y1072000D1*
X806251Y1069000D1*
X746251Y1072000D2*
X744855Y1069000D1*
X743927Y1066000D1*
X743251Y1063000D1*
X767251Y1072000D2*
Y1069000D1*
Y1066000D1*
Y1063000D1*
X773251Y1072000D2*
Y1069000D1*
Y1066000D1*
Y1063000D1*
X791251Y1072000D2*
X797251D2*
X800251D2*
Y1069000D1*
X779251Y1072000D2*
X776251Y1069000D1*
X779251Y1072000D2*
X782251Y1069000D1*
X854251Y1072000D2*
X851251Y1069000D1*
X854251Y1072000D2*
X857251Y1069000D1*
X758251D2*
Y1066000D1*
Y1063000D1*
X764251Y1069000D2*
Y1066000D1*
Y1063000D1*
X815251Y1069000D2*
Y1066000D1*
Y1063000D1*
X821251Y1069000D2*
Y1066000D1*
Y1063000D1*
X824251Y1069000D2*
Y1066000D1*
Y1063000D1*
X833251Y1069000D2*
Y1066000D1*
Y1063000D1*
X860251Y1069000D2*
Y1066000D1*
Y1063000D1*
X866251Y1069000D2*
Y1066000D1*
Y1063000D1*
X809251Y1066000D2*
X806251Y1063000D1*
X809251Y1066000D2*
X812251Y1063000D1*
X994162Y678031D2*
D58*
X981262D1*
X976951Y679490D1*
X975492Y680916D1*
X974066Y683768D1*
Y686653D1*
X975492Y689505D1*
X976951Y690964D1*
X981262Y692390D1*
X994162D1*
Y662246D1*
X984114Y678031D2*
X974066Y662246D1*
X964802Y682342D2*
Y667983D1*
X963376Y663706D1*
X960491Y662246D1*
X956180D1*
X953328Y663706D1*
X949017Y667983D1*
Y682342D2*
Y662246D1*
X923969Y678031D2*
X925395Y680916D1*
X929706Y682342D1*
X934017D1*
X938328Y680916D1*
X939754Y678031D1*
X938328Y675179D1*
X935443Y673720D1*
X928280Y672294D1*
X925395Y670868D1*
X923969Y667983D1*
Y666557D1*
X925395Y663706D1*
X929706Y662246D1*
X934017D1*
X938328Y663706D1*
X939754Y666557D1*
X898920Y678031D2*
X900346Y680916D1*
X904657Y682342D1*
X908968D1*
X913279Y680916D1*
X914705Y678031D1*
X913279Y675179D1*
X910394Y673720D1*
X903231Y672294D1*
X900346Y670868D1*
X898920Y667983D1*
Y666557D1*
X900346Y663706D1*
X904657Y662246D1*
X908968D1*
X913279Y663706D1*
X914705Y666557D1*
X889657Y673720D2*
X872446D1*
Y676605D1*
X873872Y679490D1*
X875298Y680916D1*
X878183Y682342D1*
X882494D1*
X885346Y680916D1*
X888231Y678031D1*
X889657Y673720D1*
Y670868D1*
X888231Y666557D1*
X885346Y663706D1*
X882494Y662246D1*
X878183D1*
X875298Y663706D1*
X872446Y666557D1*
X863182Y692390D2*
Y662246D1*
X853919Y692390D2*
Y662246D1*
X805447Y692390D2*
Y662246D1*
X815495Y692390D2*
X795399D1*
X786135Y682342D2*
Y662246D1*
Y673720D2*
X784676Y678031D1*
X781824Y680916D1*
X778939Y682342D1*
X774628D1*
X748153D2*
Y662246D1*
Y678031D2*
X751005Y680916D1*
X753890Y682342D1*
X758168D1*
X761053Y680916D1*
X763905Y678031D1*
X765364Y673720D1*
Y670868D1*
X763905Y666557D1*
X761053Y663706D1*
X758168Y662246D1*
X753890D1*
X751005Y663706D1*
X748153Y666557D1*
X727416Y692390D2*
X730268D1*
X733153Y690964D1*
X734579Y686653D1*
Y662246D1*
X738890Y682342D2*
X728842D1*
X706678Y692390D2*
X709530D1*
X712415Y690964D1*
X713841Y686653D1*
Y662246D1*
X718152Y682342D2*
X708104D1*
X690252D2*
X693104Y680916D1*
X695989Y678031D1*
X697415Y673720D1*
Y670868D1*
X695989Y666557D1*
X693104Y663706D1*
X690252Y662246D1*
X685941D1*
X683056Y663706D1*
X680204Y666557D1*
X678745Y670868D1*
Y673720D1*
X680204Y678031D1*
X683056Y680916D1*
X685941Y682342D1*
X690252D1*
X669481D2*
Y662246D1*
Y673720D2*
X668022Y678031D1*
X665170Y680916D1*
X662285Y682342D1*
X657974D1*
X631500Y692390D2*
Y662246D1*
Y678031D2*
X634352Y680916D1*
X637237Y682342D1*
X641548D1*
X644400Y680916D1*
X647285Y678031D1*
X648711Y673720D1*
Y670868D1*
X647285Y666557D1*
X644400Y663706D1*
X641548Y662246D1*
X637237D1*
X634352Y663706D1*
X631500Y666557D1*
X1006886Y605996D2*
Y636140D1*
X1018360Y605996D1*
X1029834Y636140D1*
Y605996D1*
X977527Y631829D2*
X980379Y634714D1*
X984690Y636140D1*
X990427D1*
X994738Y634714D1*
X997623Y631829D1*
Y628977D1*
X996164Y626092D1*
X994738Y624666D1*
X991886Y623240D1*
X983264Y620355D1*
X980379Y618929D1*
X978953Y617470D1*
X977527Y614618D1*
Y610307D1*
X980379Y607455D1*
X984690Y605996D1*
X990427D1*
X994738Y607455D1*
X997623Y610307D1*
X968263Y620355D2*
X955330D1*
X951052Y621781D1*
X949593Y623240D1*
X948167Y626092D1*
Y630403D1*
X949593Y633255D1*
X951052Y634714D1*
X955330Y636140D1*
X968263D1*
Y605996D1*
X924545D2*
Y636107D1*
X938904Y616044D1*
X917382D1*
X905233Y636107D2*
X889481D1*
X898070Y624633D1*
X893759D1*
X890907Y623207D1*
X889481Y621781D1*
X888022Y617470D1*
Y614618D1*
X889481Y610307D1*
X892333Y607422D1*
X896644Y605996D1*
X900955D1*
X905233Y607422D1*
X906659Y608881D1*
X908118Y611733D1*
X870137Y636107D2*
X874448Y634681D1*
X877333Y630370D1*
X878759Y623207D1*
Y618896D1*
X877333Y611733D1*
X874448Y607422D1*
X870137Y605996D1*
X867285D1*
X862974Y607422D1*
X860122Y611733D1*
X858663Y618896D1*
Y623207D1*
X860122Y630370D1*
X862974Y634681D1*
X867285Y636107D1*
X870137D1*
X860122Y630370D2*
X877333Y611733D1*
X830729Y636140D2*
X849399D1*
Y605996D1*
Y621781D2*
X837925D1*
X821466D2*
X808566D1*
X804255Y623240D1*
X802796Y624666D1*
X801370Y627518D1*
Y630403D1*
X802796Y633255D1*
X804255Y634714D1*
X808566Y636140D1*
X821466D1*
Y605996D1*
X811418Y621781D2*
X801370Y605996D1*
X790647Y628944D2*
Y630370D1*
X789221Y633255D1*
X787795Y634681D1*
X784910Y636107D1*
X779173D1*
X776321Y634681D1*
X774895Y633255D1*
X773436Y630370D1*
Y627518D1*
X774895Y624633D1*
X777747Y620355D1*
X792106Y605996D1*
X772010D1*
X759861Y636107D2*
X744110D1*
X752698Y624633D1*
X748387D1*
X745536Y623207D1*
X744110Y621781D1*
X742650Y617470D1*
Y614618D1*
X744110Y610307D1*
X746962Y607422D1*
X751273Y605996D1*
X755584D1*
X759861Y607422D1*
X761287Y608881D1*
X762746Y611733D1*
X733387Y630370D2*
X730502Y631829D1*
X726191Y636107D1*
Y605996D1*
X716927Y630370D2*
X714042Y631829D1*
X709731Y636107D1*
Y605996D1*
X671307Y636140D2*
Y605996D1*
X658374D1*
X654063Y607455D1*
X652637Y608881D1*
X651211Y611733D1*
Y616044D1*
X652637Y618929D1*
X654063Y620355D1*
X658374Y621781D1*
X654063Y623240D1*
X652637Y624666D1*
X651211Y627518D1*
Y630403D1*
X652637Y633255D1*
X654063Y634714D1*
X658374Y636140D1*
X671307D1*
Y621781D2*
X658374D1*
X633325Y636140D2*
X636211Y634714D1*
X639062Y631829D1*
X640522Y628977D1*
X641948Y624666D1*
Y617470D1*
X640522Y613192D1*
X639062Y610307D1*
X636211Y607455D1*
X633325Y605996D1*
X627588D1*
X624737Y607455D1*
X621852Y610307D1*
X620426Y613192D1*
X619000Y617470D1*
Y624666D1*
X620426Y628977D1*
X621852Y631829D1*
X624737Y634714D1*
X627588Y636140D1*
X633325D1*
X947922Y559281D2*
X935022D1*
X930711Y560740D1*
X929252Y562166D1*
X927826Y565018D1*
Y567903D1*
X929252Y570755D1*
X930711Y572214D1*
X935022Y573640D1*
X947922D1*
Y543496D1*
X937874Y559281D2*
X927826Y543496D1*
X918563Y554970D2*
X901352D1*
Y557855D1*
X902778Y560740D1*
X904204Y562166D1*
X907089Y563592D1*
X911400D1*
X914252Y562166D1*
X917137Y559281D1*
X918563Y554970D1*
Y552118D1*
X917137Y547807D1*
X914252Y544955D1*
X911400Y543496D1*
X907089D1*
X904204Y544955D1*
X901352Y547807D1*
X892088Y563592D2*
X883466Y543496D1*
X874877Y563592D1*
X836453Y567870D2*
X833568Y569329D1*
X829257Y573607D1*
Y543496D1*
X818568Y546381D2*
X819994Y544922D1*
X818568Y543496D1*
X817109Y544922D1*
X818568Y546381D1*
X799223Y573607D2*
X803534Y572181D1*
X806419Y567870D1*
X807845Y560707D1*
Y556396D1*
X806419Y549233D1*
X803534Y544922D1*
X799223Y543496D1*
X796371D1*
X792060Y544922D1*
X789208Y549233D1*
X787749Y556396D1*
Y560707D1*
X789208Y567870D1*
X792060Y572181D1*
X796371Y573607D1*
X799223D1*
X789208Y567870D2*
X806419Y549233D1*
X527519Y1404178D2*
X528945Y1407030D1*
X531830Y1409915D1*
X534682Y1411341D1*
X540419D1*
X543304Y1409915D1*
X546156Y1407030D1*
X547615Y1404178D1*
X549041Y1399867D1*
Y1392670D1*
X547615Y1388393D1*
X546156Y1385508D1*
X543304Y1382656D1*
X540419Y1381197D1*
X534682D1*
X531830Y1382656D1*
X528945Y1385508D1*
X527519Y1388393D1*
Y1392670D1*
X534682D1*
X498160Y1411341D2*
Y1381197D1*
X518256Y1411341D1*
Y1381197D1*
X488896Y1411341D2*
Y1381197D1*
X478848D1*
X474537Y1382656D1*
X471652Y1385508D1*
X470226Y1388393D1*
X468800Y1392670D1*
Y1399867D1*
X470226Y1404178D1*
X471652Y1407030D1*
X474537Y1409915D1*
X478848Y1411341D1*
X488896D1*
X622646Y1411307D2*
X636972D1*
X638398Y1398407D1*
X636972Y1399833D1*
X632661Y1401293D1*
X628383D1*
X624072Y1399833D1*
X621187Y1396982D1*
X619761Y1392670D1*
Y1389819D1*
X621187Y1385508D1*
X624072Y1382622D1*
X628383Y1381197D1*
X632661D1*
X636972Y1382622D1*
X638398Y1384082D1*
X639857Y1386934D1*
X610497Y1411341D2*
X599023Y1381197D1*
X587549Y1411341D1*
X759729Y1411307D2*
X743978D1*
X752566Y1399833D1*
X748255D1*
X745404Y1398407D1*
X743978Y1396982D1*
X742518Y1392670D1*
Y1389819D1*
X743978Y1385508D1*
X746829Y1382622D1*
X751141Y1381197D1*
X755452D1*
X759729Y1382622D1*
X761155Y1384082D1*
X762614Y1386934D1*
X731829Y1384082D2*
X733255Y1382622D1*
X731829Y1381197D1*
X730370Y1382622D1*
X731829Y1384082D1*
X718221Y1411307D2*
X702469D1*
X711058Y1399833D1*
X706747D1*
X703895Y1398407D1*
X702469Y1396982D1*
X701010Y1392670D1*
Y1389819D1*
X702469Y1385508D1*
X705321Y1382622D1*
X709632Y1381197D1*
X713943D1*
X718221Y1382622D1*
X719647Y1384082D1*
X721106Y1386934D1*
X691747Y1411341D2*
X680273Y1381197D1*
X668799Y1411341D1*
X864153Y1395556D2*
X851220D1*
X846942Y1396982D1*
X845483Y1398441D1*
X844057Y1401293D1*
Y1405604D1*
X845483Y1408455D1*
X846942Y1409915D1*
X851220Y1411341D1*
X864153D1*
Y1381197D1*
X834793Y1405570D2*
X831908Y1407030D1*
X827597Y1411307D1*
Y1381197D1*
X816908Y1384082D2*
X818334Y1382622D1*
X816908Y1381197D1*
X815449Y1382622D1*
X816908Y1384082D1*
X788974Y1407030D2*
X790400Y1409881D1*
X794711Y1411307D1*
X797563D1*
X801874Y1409881D1*
X804759Y1405570D1*
X806185Y1398407D1*
Y1391245D1*
X804759Y1385508D1*
X801874Y1382622D1*
X797563Y1381197D1*
X796137D1*
X791859Y1382622D1*
X788974Y1385508D1*
X787548Y1389819D1*
Y1391245D1*
X788974Y1395556D1*
X791859Y1398407D1*
X796137Y1399833D1*
X797563D1*
X801874Y1398407D1*
X804759Y1395556D1*
X806185Y1391245D1*
X965612Y1395556D2*
X952679D1*
X948401Y1396982D1*
X946942Y1398441D1*
X945516Y1401293D1*
Y1405604D1*
X946942Y1408455D1*
X948401Y1409915D1*
X952679Y1411341D1*
X965612D1*
Y1381197D1*
X936252Y1405570D2*
X933367Y1407030D1*
X929056Y1411307D1*
Y1381197D1*
X918367Y1384082D2*
X919793Y1382622D1*
X918367Y1381197D1*
X916908Y1382622D1*
X918367Y1384082D1*
X901907Y1381197D2*
X887548Y1411307D1*
X907644D1*
X1066363Y1396982D2*
X1053463D1*
X1049152Y1398441D1*
X1047693Y1399867D1*
X1046267Y1402718D1*
Y1405604D1*
X1047693Y1408455D1*
X1049152Y1409915D1*
X1053463Y1411341D1*
X1066363D1*
Y1381197D1*
X1056315Y1396982D2*
X1046267Y1381197D1*
X1016908Y1407030D2*
X1019760Y1409915D1*
X1024071Y1411341D1*
X1029808D1*
X1034119Y1409915D1*
X1037004Y1407030D1*
Y1404178D1*
X1035545Y1401293D1*
X1034119Y1399867D1*
X1031267Y1398441D1*
X1022645Y1395556D1*
X1019760Y1394130D1*
X1018334Y1392670D1*
X1016908Y1389819D1*
Y1385508D1*
X1019760Y1382656D1*
X1024071Y1381197D1*
X1029808D1*
X1034119Y1382656D1*
X1037004Y1385508D1*
X997596Y1411341D2*
Y1381197D1*
X1007644Y1411341D2*
X987548D1*
X1066363Y1419200D2*
X978285D1*
X1190466Y1411341D2*
Y1381197D1*
X1200514Y1411341D2*
X1180418D1*
X1152518D2*
X1171155D1*
Y1381197D1*
X1152518D1*
X1171155Y1396982D2*
X1159681D1*
X1123158Y1407030D2*
X1126010Y1409915D1*
X1130321Y1411341D1*
X1136058D1*
X1140369Y1409915D1*
X1143254Y1407030D1*
Y1404178D1*
X1141795Y1401293D1*
X1140369Y1399867D1*
X1137517Y1398441D1*
X1128895Y1395556D1*
X1126010Y1394130D1*
X1124584Y1392670D1*
X1123158Y1389819D1*
Y1385508D1*
X1126010Y1382656D1*
X1130321Y1381197D1*
X1136058D1*
X1140369Y1382656D1*
X1143254Y1385508D1*
X1103847Y1411341D2*
Y1381197D1*
X1113895Y1411341D2*
X1093799D1*
X546426Y1161680D2*
Y1174613D1*
X547852Y1178891D1*
X549311Y1180350D1*
X552163Y1181776D1*
X556474D1*
X559325Y1180350D1*
X560785Y1178891D1*
X562211Y1174613D1*
Y1161680D1*
X532067D1*
X556440Y1191040D2*
X557900Y1193925D1*
X562177Y1198236D1*
X532067D1*
X534952Y1208925D2*
X533493Y1207499D1*
X532067Y1208925D1*
X533492Y1210385D1*
X534952Y1208925D1*
X556440Y1219648D2*
X557900Y1222533D1*
X562177Y1226844D1*
X532067D1*
X546426Y1055030D2*
Y1067963D1*
X547852Y1072241D1*
X549311Y1073700D1*
X552163Y1075126D1*
X556474D1*
X559325Y1073700D1*
X560785Y1072241D1*
X562211Y1067963D1*
Y1055030D1*
X532067D1*
X556440Y1084389D2*
X557900Y1087274D1*
X562177Y1091585D1*
X532067D1*
X534952Y1102275D2*
X533493Y1100849D1*
X532067Y1102275D1*
X533493Y1103734D1*
X534952Y1102275D1*
X562177Y1121619D2*
X560751Y1117308D1*
X556440Y1114423D1*
X549277Y1112997D1*
X544966D1*
X537804Y1114423D1*
X533492Y1117309D1*
X532067Y1121620D1*
Y1124471D1*
X533493Y1128782D1*
X537804Y1131634D1*
X544967Y1133093D1*
X549278D1*
X556440Y1131634D1*
X560751Y1128782D1*
X562177Y1124471D1*
Y1121619D1*
X556440Y1131634D2*
X537804Y1114423D1*
X562211Y942678D2*
X532067D1*
X562211Y932630D2*
Y952726D1*
Y980626D2*
Y961990D1*
X532067D1*
Y980626D1*
X547852Y961990D2*
Y973463D1*
X557900Y1009986D2*
X560785Y1007134D1*
X562211Y1002823D1*
Y997086D1*
X560785Y992775D1*
X557900Y989890D1*
X555048D1*
X552163Y991349D1*
X550737Y992775D1*
X549311Y995627D1*
X546426Y1004249D1*
X545000Y1007134D1*
X543541Y1008560D1*
X540689Y1009986D1*
X536378D1*
X533526Y1007134D1*
X532067Y1002823D1*
Y997086D1*
X533526Y992775D1*
X536378Y989890D1*
X562211Y1029297D2*
X532067D1*
X562211Y1019249D2*
Y1039345D1*
X562177Y748414D2*
Y764165D1*
X550703Y755577D1*
Y759888D1*
X549277Y762740D1*
X547852Y764165D1*
X543541Y765625D1*
X540689D1*
X536378Y764165D1*
X533493Y761314D1*
X532067Y757003D1*
Y752692D1*
X533493Y748414D1*
X534952Y746988D1*
X537804Y745529D1*
X534952Y776314D2*
X533493Y774888D1*
X532067Y776314D1*
X533493Y777773D1*
X534952Y776314D1*
X562177Y789922D2*
Y805674D1*
X550703Y797085D1*
Y801396D1*
X549277Y804248D1*
X547852Y805674D1*
X543541Y807133D1*
X540689D1*
X536378Y805674D1*
X533493Y802822D1*
X532067Y798511D1*
Y794200D1*
X533493Y789922D1*
X534952Y788496D1*
X537804Y787037D1*
X562211Y816396D2*
X532067Y827870D1*
X562211Y839344D1*
X555046Y668125D2*
X557898Y666699D1*
X560783Y663814D1*
X562209Y660962D1*
Y655225D1*
X560783Y652340D1*
X557898Y649488D1*
X555046Y648029D1*
X550735Y646603D1*
X543539D1*
X539261Y648029D1*
X536376Y649488D1*
X533524Y652340D1*
X532065Y655225D1*
Y660962D1*
X533524Y663814D1*
X536376Y666699D1*
X539261Y668125D1*
X543539D1*
Y660962D1*
X562209Y697485D2*
X532065D1*
X562209Y677389D1*
X532065D1*
X562209Y706748D2*
X532065D1*
Y716796D1*
X533524Y721107D1*
X536376Y723992D1*
X539261Y725418D1*
X543539Y726844D1*
X550735D1*
X555046Y725418D1*
X557898Y723992D1*
X560783Y721107D1*
X562209Y716796D1*
Y706748D1*
X546424Y535880D2*
Y548814D1*
X547850Y553091D1*
X549309Y554551D1*
X552161Y555976D1*
X556472D1*
X559324Y554551D1*
X560783Y553091D1*
X562209Y548814D1*
Y535880D1*
X532065D1*
X555013Y566699D2*
X556439D1*
X559324Y568125D1*
X560750Y569551D1*
X562176Y572436D1*
Y578173D1*
X560750Y581025D1*
X559324Y582451D1*
X556439Y583910D1*
X553587D1*
X550702Y582451D1*
X546424Y579599D1*
X532065Y565240D1*
Y585336D1*
X534950Y596026D2*
X533491Y594600D1*
X532065Y596026D1*
X533491Y597485D1*
X534950Y596026D1*
X532065Y612485D2*
X562176Y626844D1*
Y606748D1*
X546424Y424840D2*
Y437773D1*
X547850Y442051D1*
X549309Y443510D1*
X552161Y444936D1*
X556472D1*
X559324Y443510D1*
X560783Y442051D1*
X562209Y437773D1*
Y424840D1*
X532065D1*
X555013Y455658D2*
X556439D1*
X559324Y457084D1*
X560750Y458510D1*
X562176Y461395D1*
Y467132D1*
X560750Y469984D1*
X559324Y471410D1*
X556439Y472869D1*
X553587D1*
X550702Y471410D1*
X546424Y468558D1*
X532065Y454199D1*
Y474295D1*
X534950Y484985D2*
X533491Y483559D1*
X532065Y484985D1*
X533491Y486444D1*
X534950Y484985D1*
X557898Y512918D2*
X560750Y511492D1*
X562176Y507181D1*
Y504329D1*
X560750Y500018D1*
X556439Y497133D1*
X549276Y495707D1*
X542113D1*
X536376Y497133D1*
X533491Y500018D1*
X532065Y504329D1*
Y505755D1*
X533491Y510033D1*
X536376Y512918D1*
X540687Y514344D1*
X542113D1*
X546424Y512918D1*
X549276Y510033D1*
X550702Y505755D1*
Y504329D1*
X549276Y500018D1*
X546424Y497133D1*
X542113Y495707D1*
X597240Y896207D2*
X584340D1*
X580029Y897666D1*
X578570Y899092D1*
X577144Y901944D1*
Y904829D1*
X578570Y907681D1*
X580029Y909140D1*
X584340Y910566D1*
X597240D1*
Y880422D1*
X587192Y896207D2*
X577144Y880422D1*
X547784Y906255D2*
X550636Y909140D1*
X554947Y910566D1*
X560684D1*
X564995Y909140D1*
X567880Y906255D1*
Y903403D1*
X566421Y900518D1*
X564995Y899092D1*
X562143Y897666D1*
X553521Y894781D1*
X550636Y893355D1*
X549210Y891896D1*
X547784Y889044D1*
Y884733D1*
X550636Y881881D1*
X554947Y880422D1*
X560684D1*
X564995Y881881D1*
X567880Y884733D1*
X528473Y910566D2*
Y880422D1*
X538521Y910566D2*
X518425D1*
X597240Y918426D2*
X509161D1*
M02*
