G04 DipTrace 3.1.0.0*
G04 MSP430FR2311Breakout.gto*
%MOIN*%
G04 #@! TF.FileFunction,Legend,Top*
G04 #@! TF.Part,Single*
%ADD10C,0.009843*%
%ADD16C,0.001312*%
%ADD22O,0.023924X0.024956*%
%ADD26C,0.011817*%
%ADD57C,0.00772*%
%ADD58C,0.004632*%
%FSLAX26Y26*%
G04*
G70*
G90*
G75*
G01*
G04 TopSilk*
%LPD*%
X468999Y1381502D2*
D10*
X1169001D1*
Y1281500D1*
X468999D1*
Y1381502D1*
X519002Y1243963D2*
X419000D1*
Y444037D1*
X519002D1*
Y1243963D1*
X1118998Y437786D2*
X1219000D1*
Y1237713D1*
X1118998D1*
Y437786D1*
X844444Y779630D2*
Y937110D1*
X931058Y779630D2*
Y937110D1*
X844444Y779630D2*
X931058D1*
X844444Y937110D2*
X931058D1*
X738193Y779630D2*
Y937110D1*
X824807Y779630D2*
Y937110D1*
X738193Y779630D2*
X824807D1*
X738193Y937110D2*
X824807D1*
X631942Y779630D2*
Y937110D1*
X718556Y779630D2*
Y937110D1*
X631942Y779630D2*
X718556D1*
X631942Y937110D2*
X718556D1*
X1037307D2*
Y779630D1*
X950693Y937110D2*
Y779630D1*
X1037307Y937110D2*
X950693D1*
X1037307Y779630D2*
X950693D1*
D22*
X948965Y441591D3*
D26*
X795513Y1189428D3*
X886366Y1154743D2*
D10*
X894244D1*
X886366Y997316D2*
X894244D1*
X764429D2*
X756551D1*
X764429Y1154743D2*
X756551D1*
X581500Y1269000D2*
D16*
X700249D1*
Y1219000D1*
X581500D1*
Y1269000D1*
X712751D2*
X837749D1*
Y1219000D1*
X712751D1*
Y1269000D1*
X645070Y1201101D2*
D57*
X642694Y1205854D1*
X637885Y1210663D1*
X633132Y1213039D1*
X623570D1*
X618762Y1210663D1*
X614009Y1205854D1*
X611577Y1201101D1*
X609200Y1193916D1*
Y1181923D1*
X611577Y1174793D1*
X614009Y1169984D1*
X618762Y1165231D1*
X623570Y1162799D1*
X633132D1*
X637885Y1165231D1*
X642694Y1169984D1*
X645070Y1174793D1*
X660510Y1203422D2*
X665318Y1205854D1*
X672503Y1212984D1*
Y1162799D1*
X882499Y1257350D2*
X880122Y1262104D1*
X875314Y1266912D1*
X870561Y1269289D1*
X860999D1*
X856191Y1266912D1*
X851437Y1262104D1*
X849006Y1257350D1*
X846629Y1250165D1*
Y1238172D1*
X849006Y1231042D1*
X851437Y1226234D1*
X856191Y1221481D1*
X860999Y1219049D1*
X870561D1*
X875314Y1221481D1*
X880122Y1226234D1*
X882499Y1231042D1*
X900370Y1257295D2*
Y1259672D1*
X902747Y1264480D1*
X905123Y1266857D1*
X909932Y1269233D1*
X919493D1*
X924246Y1266857D1*
X926623Y1264480D1*
X929055Y1259672D1*
Y1254919D1*
X926623Y1250110D1*
X921870Y1242980D1*
X897938Y1219049D1*
X931431D1*
X1089753Y1493827D2*
X1087377Y1498580D1*
X1082568Y1503388D1*
X1077815Y1505765D1*
X1068254D1*
X1063445Y1503388D1*
X1058692Y1498580D1*
X1056260Y1493827D1*
X1053884Y1486642D1*
Y1474648D1*
X1056260Y1467519D1*
X1058692Y1462710D1*
X1063445Y1457957D1*
X1068254Y1455525D1*
X1077815D1*
X1082568Y1457957D1*
X1087377Y1462710D1*
X1089753Y1467519D1*
X1110001Y1505710D2*
X1136254D1*
X1121939Y1486587D1*
X1129124D1*
X1133878Y1484210D1*
X1136254Y1481833D1*
X1138686Y1474648D1*
Y1469895D1*
X1136254Y1462710D1*
X1131501Y1457902D1*
X1124316Y1455525D1*
X1117131D1*
X1110001Y1457902D1*
X1107625Y1460334D1*
X1105193Y1465087D1*
X765369Y591681D2*
Y541441D1*
X794054D1*
X840555Y591681D2*
X809493D1*
Y541441D1*
X840555D1*
X809493Y567749D2*
X828616D1*
X855994Y591681D2*
Y541441D1*
X872740D1*
X879925Y543873D1*
X884734Y548626D1*
X887110Y553435D1*
X889487Y560564D1*
Y572558D1*
X887110Y579743D1*
X884734Y584496D1*
X879925Y589304D1*
X872740Y591681D1*
X855994D1*
X904926Y582064D2*
X909735Y584496D1*
X916920Y591626D1*
Y541441D1*
X962603Y572328D2*
X984102D1*
X991287Y574760D1*
X993719Y577137D1*
X996096Y581890D1*
Y586698D1*
X993719Y591451D1*
X991287Y593883D1*
X984102Y596260D1*
X962603D1*
Y546020D1*
X979349Y572328D2*
X996096Y546020D1*
X1011535Y586643D2*
X1016344Y589075D1*
X1023529Y596205D1*
Y546020D1*
X625024Y436252D2*
Y457752D1*
X622592Y464937D1*
X620215Y467368D1*
X615462Y469745D1*
X610654D1*
X605900Y467368D1*
X603469Y464937D1*
X601092Y457752D1*
Y436252D1*
X651332D1*
X625024Y452998D2*
X651332Y469745D1*
X613085Y487616D2*
X610709D1*
X605900Y489993D1*
X603524Y492369D1*
X601147Y497178D1*
Y506739D1*
X603524Y511493D1*
X605900Y513869D1*
X610709Y516301D1*
X615462D1*
X620270Y513869D1*
X627400Y509116D1*
X651332Y485184D1*
Y518678D1*
X601853Y714256D2*
X623353D1*
X630538Y716688D1*
X632969Y719064D1*
X635346Y723818D1*
Y728626D1*
X632969Y733379D1*
X630538Y735811D1*
X623353Y738188D1*
X601853D1*
Y687948D1*
X618599Y714256D2*
X635346Y687948D1*
X655594Y738132D2*
X681847D1*
X667532Y719009D1*
X674717D1*
X679470Y716633D1*
X681847Y714256D1*
X684279Y707071D1*
Y702318D1*
X681847Y695133D1*
X677094Y690324D1*
X669908Y687948D1*
X662723D1*
X655594Y690324D1*
X653217Y692756D1*
X650785Y697509D1*
X641340Y1475583D2*
X662840D1*
X670025Y1478015D1*
X672457Y1480391D1*
X674834Y1485144D1*
Y1489953D1*
X672457Y1494706D1*
X670025Y1497138D1*
X662840Y1499514D1*
X641340D1*
Y1449274D1*
X658087Y1475583D2*
X674834Y1449274D1*
X714205D2*
Y1499459D1*
X690273Y1466021D1*
X726143D1*
X935568Y758315D2*
Y722445D1*
X937945Y715260D1*
X942753Y710507D1*
X949939Y708075D1*
X954692D1*
X961877Y710507D1*
X966685Y715260D1*
X969062Y722445D1*
Y758315D1*
X984501Y748698D2*
X989309Y751130D1*
X996495Y758260D1*
Y708075D1*
X824817Y758315D2*
Y722445D1*
X827194Y715260D1*
X832002Y710507D1*
X839187Y708075D1*
X843940D1*
X851126Y710507D1*
X855934Y715260D1*
X858311Y722445D1*
Y758315D1*
X876182Y746321D2*
Y748698D1*
X878558Y753506D1*
X880935Y755883D1*
X885743Y758260D1*
X895305D1*
X900058Y755883D1*
X902435Y753506D1*
X904867Y748698D1*
Y743945D1*
X902435Y739136D1*
X897682Y732007D1*
X873750Y708075D1*
X907243D1*
X712317Y758315D2*
Y722445D1*
X714694Y715260D1*
X719502Y710507D1*
X726687Y708075D1*
X731440D1*
X738626Y710507D1*
X743434Y715260D1*
X745811Y722445D1*
Y758315D1*
X766058Y758260D2*
X792311D1*
X777996Y739136D1*
X785182D1*
X789935Y736760D1*
X792311Y734383D1*
X794743Y727198D1*
Y722445D1*
X792311Y715260D1*
X787558Y710452D1*
X780373Y708075D1*
X773188D1*
X766058Y710452D1*
X763682Y712883D1*
X761250Y717637D1*
X552676Y1226844D2*
D58*
Y1213911D1*
X554102Y1209633D1*
X555561Y1208174D1*
X558413Y1206748D1*
X562724D1*
X565576Y1208174D1*
X567035Y1209633D1*
X568461Y1213911D1*
Y1226844D1*
X538317D1*
X562691Y1197485D2*
X564150Y1194600D1*
X568428Y1190289D1*
X538317D1*
X541202Y1179599D2*
X539743Y1181025D1*
X538317Y1179599D1*
X539743Y1178140D1*
X541202Y1179599D1*
X562691Y1168876D2*
X564150Y1165991D1*
X568428Y1161680D1*
X538317D1*
X552676Y1133093D2*
Y1120160D1*
X554102Y1115883D1*
X555561Y1114423D1*
X558413Y1112997D1*
X562724D1*
X565576Y1114423D1*
X567035Y1115883D1*
X568461Y1120160D1*
Y1133093D1*
X538317D1*
X562691Y1103734D2*
X564150Y1100849D1*
X568428Y1096538D1*
X538317D1*
X541202Y1085848D2*
X539743Y1087274D1*
X538317Y1085848D1*
X539743Y1084389D1*
X541202Y1085848D1*
X568428Y1066504D2*
X567002Y1070815D1*
X562691Y1073700D1*
X555528Y1075126D1*
X551217D1*
X544054Y1073700D1*
X539743Y1070815D1*
X538317Y1066504D1*
Y1063652D1*
X539743Y1059341D1*
X544054Y1056489D1*
X551217Y1055030D1*
X555528D1*
X562691Y1056489D1*
X567002Y1059341D1*
X568428Y1063652D1*
Y1066504D1*
X562691Y1056489D2*
X544054Y1073700D1*
X537174Y883707D2*
X550074D1*
X554385Y885166D1*
X555844Y886592D1*
X557270Y889444D1*
Y892329D1*
X555844Y895181D1*
X554385Y896640D1*
X550074Y898066D1*
X537174D1*
Y867922D1*
X547222Y883707D2*
X557270Y867922D1*
X586630Y893755D2*
X583778Y896640D1*
X579467Y898066D1*
X573730D1*
X569419Y896640D1*
X566534Y893755D1*
Y890903D1*
X567993Y888018D1*
X569419Y886592D1*
X572271Y885166D1*
X580893Y882281D1*
X583778Y880855D1*
X585204Y879396D1*
X586630Y876544D1*
Y872233D1*
X583778Y869381D1*
X579467Y867922D1*
X573730D1*
X569419Y869381D1*
X566534Y872233D1*
X605941Y898066D2*
Y867922D1*
X595893Y898066D2*
X615989D1*
X537174Y905926D2*
X625253D1*
X568461Y1029297D2*
X538317D1*
X568461Y1039345D2*
Y1019249D1*
Y991349D2*
Y1009986D1*
X538317D1*
Y991349D1*
X554102Y1009986D2*
Y998512D1*
X564150Y961990D2*
X567035Y964841D1*
X568461Y969152D1*
Y974889D1*
X567035Y979200D1*
X564150Y982086D1*
X561298D1*
X558413Y980626D1*
X556987Y979200D1*
X555561Y976349D1*
X552676Y967727D1*
X551250Y964841D1*
X549791Y963415D1*
X546939Y961990D1*
X542628D1*
X539776Y964841D1*
X538317Y969152D1*
Y974889D1*
X539776Y979200D1*
X542628Y982086D1*
X568461Y942678D2*
X538317D1*
X568461Y952726D2*
Y932630D1*
X574677Y836459D2*
Y820707D1*
X563203Y829296D1*
Y824985D1*
X561777Y822133D1*
X560352Y820707D1*
X556040Y819248D1*
X553189D1*
X548878Y820707D1*
X545992Y823559D1*
X544567Y827870D1*
Y832181D1*
X545993Y836459D1*
X547452Y837885D1*
X550304Y839344D1*
X547452Y808559D2*
X545993Y809985D1*
X544567Y808559D1*
X545993Y807100D1*
X547452Y808559D1*
X574677Y794951D2*
Y779199D1*
X563203Y787788D1*
Y783477D1*
X561777Y780625D1*
X560352Y779199D1*
X556041Y777740D1*
X553189D1*
X548878Y779199D1*
X545993Y782051D1*
X544567Y786362D1*
Y790673D1*
X545993Y794951D1*
X547452Y796377D1*
X550304Y797836D1*
X574711Y768476D2*
X544567Y757003D1*
X574711Y745529D1*
X561297Y705322D2*
X564149Y706748D1*
X567034Y709633D1*
X568460Y712485D1*
Y718222D1*
X567034Y721107D1*
X564149Y723959D1*
X561297Y725418D1*
X556986Y726844D1*
X549790D1*
X545512Y725418D1*
X542627Y723959D1*
X539775Y721107D1*
X538316Y718222D1*
Y712485D1*
X539775Y709633D1*
X542627Y706748D1*
X545512Y705322D1*
X549790D1*
Y712485D1*
X568460Y675963D2*
X538316D1*
X568460Y696059D1*
X538316D1*
X568460Y666699D2*
X538316D1*
Y656651D1*
X539775Y652340D1*
X542627Y649455D1*
X545512Y648029D1*
X549790Y646603D1*
X556986D1*
X561297Y648029D1*
X564149Y649455D1*
X567034Y652340D1*
X568460Y656651D1*
Y666699D1*
X552675Y626844D2*
Y613911D1*
X554101Y609633D1*
X555560Y608174D1*
X558412Y606748D1*
X562723D1*
X565575Y608174D1*
X567034Y609633D1*
X568460Y613911D1*
Y626844D1*
X538316D1*
X561264Y596025D2*
X562690D1*
X565575Y594600D1*
X567001Y593174D1*
X568427Y590289D1*
Y584552D1*
X567001Y581700D1*
X565575Y580274D1*
X562690Y578815D1*
X559838D1*
X556953Y580274D1*
X552675Y583126D1*
X538316Y597485D1*
Y577389D1*
X541201Y566699D2*
X539742Y568125D1*
X538316Y566699D1*
X539742Y565240D1*
X541201Y566699D1*
X538316Y550240D2*
X568427Y535880D1*
Y555976D1*
X552675Y514344D2*
Y501411D1*
X554101Y497133D1*
X555560Y495674D1*
X558412Y494248D1*
X562723D1*
X565575Y495674D1*
X567034Y497133D1*
X568460Y501411D1*
Y514344D1*
X538316D1*
X561264Y483525D2*
X562690D1*
X565575Y482100D1*
X567001Y480674D1*
X568427Y477789D1*
Y472052D1*
X567001Y469200D1*
X565575Y467774D1*
X562690Y466315D1*
X559838D1*
X556953Y467774D1*
X552675Y470626D1*
X538316Y484985D1*
Y464889D1*
X541201Y454199D2*
X539742Y455625D1*
X538316Y454199D1*
X539742Y452740D1*
X541201Y454199D1*
X564149Y426266D2*
X567001Y427691D1*
X568427Y432003D1*
Y434854D1*
X567001Y439165D1*
X562690Y442051D1*
X555527Y443476D1*
X548364D1*
X542627Y442051D1*
X539742Y439165D1*
X538316Y434854D1*
Y433428D1*
X539742Y429151D1*
X542627Y426266D1*
X546938Y424840D1*
X548364D1*
X552675Y426266D1*
X555527Y429151D1*
X556953Y433428D1*
Y434854D1*
X555527Y439165D1*
X552675Y442051D1*
X548364Y443476D1*
X1075488Y1155430D2*
Y1168363D1*
X1074062Y1172641D1*
X1072603Y1174100D1*
X1069751Y1175526D1*
X1065440D1*
X1062588Y1174100D1*
X1061129Y1172641D1*
X1059703Y1168363D1*
Y1155430D1*
X1089847D1*
X1065473Y1184790D2*
X1064014Y1187675D1*
X1059736Y1191986D1*
X1089847D1*
X1086962Y1202675D2*
X1088421Y1201249D1*
X1089847Y1202675D1*
X1088421Y1204134D1*
X1086962Y1202675D1*
X1066899Y1214857D2*
X1065473D1*
X1062588Y1216283D1*
X1061162Y1217709D1*
X1059736Y1220594D1*
Y1226331D1*
X1061162Y1229183D1*
X1062588Y1230609D1*
X1065473Y1232068D1*
X1068325D1*
X1071210Y1230609D1*
X1075488Y1227757D1*
X1089847Y1213398D1*
Y1233494D1*
X1075488Y1055430D2*
Y1068363D1*
X1074062Y1072641D1*
X1072603Y1074100D1*
X1069751Y1075526D1*
X1065440D1*
X1062588Y1074100D1*
X1061129Y1072641D1*
X1059703Y1068363D1*
Y1055430D1*
X1089847D1*
X1065473Y1084790D2*
X1064014Y1087675D1*
X1059736Y1091986D1*
X1089847D1*
X1086962Y1102675D2*
X1088421Y1101249D1*
X1089847Y1102675D1*
X1088421Y1104134D1*
X1086962Y1102675D1*
X1059736Y1116283D2*
Y1132035D1*
X1071210Y1123446D1*
Y1127757D1*
X1072636Y1130609D1*
X1074062Y1132035D1*
X1078373Y1133494D1*
X1081225D1*
X1085536Y1132035D1*
X1088421Y1129183D1*
X1089847Y1124872D1*
Y1120561D1*
X1088421Y1116283D1*
X1086962Y1114857D1*
X1084110Y1113398D1*
X1075488Y949180D2*
Y962113D1*
X1074062Y966390D1*
X1072603Y967850D1*
X1069751Y969275D1*
X1065440Y969276D1*
X1062588Y967850D1*
X1061129Y966390D1*
X1059703Y962113D1*
Y949180D1*
X1089847D1*
X1065473Y978539D2*
X1064014Y981424D1*
X1059736Y985735D1*
X1089847D1*
X1086962Y996425D2*
X1088421Y994999D1*
X1089847Y996425D1*
X1088421Y997884D1*
X1086962Y996425D1*
X1089847Y1021506D2*
X1059736D1*
X1079799Y1007147D1*
Y1028669D1*
X1075488Y849180D2*
Y862113D1*
X1074062Y866390D1*
X1072603Y867850D1*
X1069751Y869275D1*
X1065440Y869276D1*
X1062588Y867850D1*
X1061129Y866390D1*
X1059703Y862113D1*
Y849180D1*
X1089847D1*
X1065473Y878539D2*
X1064014Y881424D1*
X1059736Y885735D1*
X1089847D1*
X1086962Y896425D2*
X1088421Y894999D1*
X1089847Y896425D1*
X1088421Y897884D1*
X1086962Y896425D1*
X1059736Y924358D2*
Y910032D1*
X1072636Y908606D1*
X1071210Y910032D1*
X1069751Y914343D1*
Y918621D1*
X1071210Y922932D1*
X1074062Y925817D1*
X1078373Y927243D1*
X1081225D1*
X1085536Y925817D1*
X1088421Y922932D1*
X1089847Y918621D1*
Y914343D1*
X1088421Y910032D1*
X1086962Y908606D1*
X1084110Y907147D1*
X1075488Y749180D2*
Y762113D1*
X1074062Y766390D1*
X1072603Y767850D1*
X1069751Y769275D1*
X1065440Y769276D1*
X1062588Y767850D1*
X1061129Y766390D1*
X1059703Y762113D1*
Y749180D1*
X1089847D1*
X1065473Y778539D2*
X1064014Y781424D1*
X1059736Y785735D1*
X1089847D1*
X1086962Y796425D2*
X1088421Y794999D1*
X1089847Y796425D1*
X1088421Y797884D1*
X1086962Y796425D1*
X1064014Y824358D2*
X1061162Y822932D1*
X1059736Y818621D1*
Y815769D1*
X1061162Y811458D1*
X1065473Y808573D1*
X1072636Y807147D1*
X1079799D1*
X1085536Y808573D1*
X1088421Y811458D1*
X1089847Y815769D1*
Y817195D1*
X1088421Y821473D1*
X1085536Y824358D1*
X1081225Y825784D1*
X1079799D1*
X1075488Y824358D1*
X1072636Y821473D1*
X1071210Y817195D1*
Y815769D1*
X1072636Y811458D1*
X1075488Y808573D1*
X1079799Y807147D1*
X1075488Y649180D2*
Y662113D1*
X1074062Y666390D1*
X1072603Y667850D1*
X1069751Y669275D1*
X1065440Y669276D1*
X1062588Y667850D1*
X1061129Y666390D1*
X1059703Y662113D1*
Y649180D1*
X1089847D1*
X1065473Y678539D2*
X1064014Y681424D1*
X1059736Y685735D1*
X1089847D1*
X1086962Y696425D2*
X1088421Y694999D1*
X1089847Y696425D1*
X1088421Y697884D1*
X1086962Y696425D1*
X1089847Y712884D2*
X1059736Y727243D1*
Y707147D1*
X1075488Y542930D2*
Y555863D1*
X1074062Y560141D1*
X1072603Y561600D1*
X1069751Y563026D1*
X1065440D1*
X1062588Y561600D1*
X1061129Y560141D1*
X1059703Y555863D1*
Y542930D1*
X1089847D1*
X1066899Y573749D2*
X1065473D1*
X1062588Y575175D1*
X1061162Y576601D1*
X1059736Y579486D1*
Y585223D1*
X1061162Y588075D1*
X1062588Y589501D1*
X1065473Y590960D1*
X1068325D1*
X1071210Y589501D1*
X1075488Y586649D1*
X1089847Y572290D1*
Y592386D1*
X1086962Y603075D2*
X1088421Y601649D1*
X1089847Y603075D1*
X1088421Y604534D1*
X1086962Y603075D1*
X1059736Y622420D2*
X1061162Y618109D1*
X1065473Y615224D1*
X1072636Y613798D1*
X1076947D1*
X1084110Y615224D1*
X1088421Y618109D1*
X1089847Y622420D1*
Y625272D1*
X1088421Y629583D1*
X1084110Y632435D1*
X1076947Y633894D1*
X1072636D1*
X1065473Y632435D1*
X1061162Y629583D1*
X1059736Y625272D1*
Y622420D1*
X1065473Y632435D2*
X1084110Y615224D1*
X1075488Y436680D2*
Y449613D1*
X1074062Y453890D1*
X1072603Y455350D1*
X1069751Y456775D1*
X1065440Y456776D1*
X1062588Y455350D1*
X1061129Y453890D1*
X1059703Y449613D1*
Y436680D1*
X1089847D1*
X1066899Y467498D2*
X1065473D1*
X1062588Y468924D1*
X1061162Y470350D1*
X1059736Y473235D1*
Y478972D1*
X1061162Y481824D1*
X1062588Y483250D1*
X1065473Y484709D1*
X1068325D1*
X1071210Y483250D1*
X1075488Y480398D1*
X1089847Y466039D1*
Y486135D1*
X1086962Y496824D2*
X1088421Y495399D1*
X1089847Y496824D1*
X1088421Y498284D1*
X1086962Y496824D1*
X1065473Y507547D2*
X1064014Y510432D1*
X1059736Y514743D1*
X1089847D1*
X496573Y1422927D2*
X495147Y1425779D1*
X492262Y1428664D1*
X489410Y1430090D1*
X483673D1*
X480788Y1428664D1*
X477936Y1425779D1*
X476477Y1422927D1*
X475051Y1418616D1*
Y1411420D1*
X476477Y1407142D1*
X477936Y1404257D1*
X480788Y1401405D1*
X483673Y1399946D1*
X489410D1*
X492262Y1401405D1*
X495147Y1404257D1*
X496573Y1407142D1*
Y1411420D1*
X489410D1*
X525932Y1430090D2*
Y1399946D1*
X505836Y1430090D1*
Y1399946D1*
X535196Y1430090D2*
Y1399946D1*
X545244D1*
X549555Y1401405D1*
X552440Y1404257D1*
X553866Y1407142D1*
X555292Y1411420D1*
Y1418616D1*
X553866Y1422927D1*
X552440Y1425779D1*
X549555Y1428664D1*
X545244Y1430090D1*
X535196D1*
X611011Y1430057D2*
X596685D1*
X595259Y1417157D1*
X596685Y1418583D1*
X600996Y1420042D1*
X605274D1*
X609585Y1418583D1*
X612470Y1415731D1*
X613896Y1411420D1*
Y1408568D1*
X612470Y1404257D1*
X609585Y1401372D1*
X605274Y1399946D1*
X600996D1*
X596685Y1401372D1*
X595259Y1402831D1*
X593800Y1405683D1*
X623160Y1430090D2*
X634634Y1399946D1*
X646108Y1430090D1*
X677935Y1430057D2*
X693686D1*
X685097Y1418583D1*
X689409D1*
X692260Y1417157D1*
X693686Y1415731D1*
X695145Y1411420D1*
Y1408568D1*
X693686Y1404257D1*
X690834Y1401372D1*
X686523Y1399946D1*
X682212D1*
X677935Y1401372D1*
X676509Y1402831D1*
X675049Y1405683D1*
X705835Y1402831D2*
X704409Y1401372D1*
X705835Y1399946D1*
X707294Y1401372D1*
X705835Y1402831D1*
X719443Y1430057D2*
X735195D1*
X726606Y1418583D1*
X730917D1*
X733769Y1417157D1*
X735195Y1415731D1*
X736654Y1411420D1*
Y1408568D1*
X735195Y1404257D1*
X732343Y1401372D1*
X728032Y1399946D1*
X723721D1*
X719443Y1401372D1*
X718017Y1402831D1*
X716558Y1405683D1*
X745917Y1430090D2*
X757391Y1399946D1*
X768865Y1430090D1*
X793799Y1414305D2*
X806732D1*
X811010Y1415731D1*
X812469Y1417190D1*
X813895Y1420042D1*
Y1424353D1*
X812469Y1427205D1*
X811010Y1428664D1*
X806732Y1430090D1*
X793799D1*
Y1399946D1*
X823158Y1424320D2*
X826043Y1425779D1*
X830354Y1430057D1*
Y1399946D1*
X841044Y1402831D2*
X839618Y1401372D1*
X841044Y1399946D1*
X842503Y1401372D1*
X841044Y1402831D1*
X868978Y1425779D2*
X867552Y1428631D1*
X863241Y1430057D1*
X860389D1*
X856078Y1428631D1*
X853193Y1424320D1*
X851767Y1417157D1*
Y1409994D1*
X853193Y1404257D1*
X856078Y1401372D1*
X860389Y1399946D1*
X861815D1*
X866092Y1401372D1*
X868978Y1404257D1*
X870404Y1408568D1*
Y1409994D1*
X868978Y1414305D1*
X866092Y1417157D1*
X861815Y1418583D1*
X860389D1*
X856078Y1417157D1*
X853193Y1414305D1*
X851767Y1409994D1*
X893799Y1414305D2*
X906732D1*
X911010Y1415731D1*
X912469Y1417190D1*
X913895Y1420042D1*
Y1424353D1*
X912469Y1427205D1*
X911010Y1428664D1*
X906732Y1430090D1*
X893799D1*
Y1399946D1*
X923158Y1424320D2*
X926043Y1425779D1*
X930354Y1430057D1*
Y1399946D1*
X941044Y1402831D2*
X939618Y1401372D1*
X941044Y1399946D1*
X942503Y1401372D1*
X941044Y1402831D1*
X957504Y1399946D2*
X971863Y1430057D1*
X951767D1*
X993799Y1415731D2*
X1006699D1*
X1011010Y1417190D1*
X1012469Y1418616D1*
X1013895Y1421468D1*
Y1424353D1*
X1012469Y1427205D1*
X1011010Y1428664D1*
X1006699Y1430090D1*
X993799D1*
Y1399946D1*
X1003847Y1415731D2*
X1013895Y1399946D1*
X1043254Y1425779D2*
X1040402Y1428664D1*
X1036091Y1430090D1*
X1030354D1*
X1026043Y1428664D1*
X1023158Y1425779D1*
Y1422927D1*
X1024617Y1420042D1*
X1026043Y1418616D1*
X1028895Y1417190D1*
X1037517Y1414305D1*
X1040402Y1412879D1*
X1041828Y1411420D1*
X1043254Y1408568D1*
Y1404257D1*
X1040402Y1401405D1*
X1036091Y1399946D1*
X1030354D1*
X1026043Y1401405D1*
X1023158Y1404257D1*
X1062566Y1430090D2*
Y1399946D1*
X1052518Y1430090D2*
X1072614D1*
X993799Y1437949D2*
X1081877D1*
X1110096Y1430090D2*
Y1399946D1*
X1100048Y1430090D2*
X1120144D1*
X1148045D2*
X1129408D1*
Y1399946D1*
X1148045D1*
X1129408Y1415731D2*
X1140882D1*
X1177404Y1425779D2*
X1174552Y1428664D1*
X1170241Y1430090D1*
X1164504D1*
X1160193Y1428664D1*
X1157308Y1425779D1*
Y1422927D1*
X1158767Y1420042D1*
X1160193Y1418616D1*
X1163045Y1417190D1*
X1171667Y1414305D1*
X1174552Y1412879D1*
X1175978Y1411420D1*
X1177404Y1408568D1*
Y1404257D1*
X1174552Y1401405D1*
X1170241Y1399946D1*
X1164504D1*
X1160193Y1401405D1*
X1157308Y1404257D1*
X1196716Y1430090D2*
Y1399946D1*
X1186668Y1430090D2*
X1206764D1*
X625250Y979890D2*
Y949746D1*
X638183D1*
X642494Y951206D1*
X643920Y952631D1*
X645346Y955483D1*
Y959794D1*
X643920Y962679D1*
X642494Y964105D1*
X638183Y965531D1*
X642494Y966990D1*
X643920Y968416D1*
X645346Y971268D1*
Y974153D1*
X643920Y977005D1*
X642494Y978464D1*
X638183Y979890D1*
X625250D1*
Y965531D2*
X638183D1*
X654610Y979890D2*
Y949746D1*
X671821D1*
X681084Y979890D2*
Y958368D1*
X682510Y954057D1*
X685395Y951206D1*
X689706Y949746D1*
X692558D1*
X696869Y951206D1*
X699754Y954057D1*
X701180Y958368D1*
Y979890D1*
X729081D2*
X710444D1*
Y949746D1*
X729081D1*
X710444Y965531D2*
X721918D1*
X765522Y972727D2*
X764096Y975579D1*
X761211Y978464D1*
X758359Y979890D1*
X752622D1*
X749737Y978464D1*
X746885Y975579D1*
X745426Y972727D1*
X744000Y968416D1*
Y961220D1*
X745426Y956942D1*
X746885Y954057D1*
X749737Y951206D1*
X752622Y949746D1*
X758359D1*
X761211Y951206D1*
X764096Y954057D1*
X765522Y956942D1*
Y961220D1*
X758359D1*
X774785Y965531D2*
X787685D1*
X791996Y966990D1*
X793455Y968416D1*
X794881Y971268D1*
Y974153D1*
X793455Y977005D1*
X791996Y978464D1*
X787685Y979890D1*
X774785D1*
Y949746D1*
X784833Y965531D2*
X794881Y949746D1*
X824241Y979890D2*
Y949746D1*
X804145Y979890D1*
Y949746D1*
X850249Y965531D2*
X863149D1*
X867460Y966990D1*
X868919Y968416D1*
X870345Y971268D1*
Y974153D1*
X868919Y977005D1*
X867460Y978464D1*
X863149Y979890D1*
X850249D1*
Y949746D1*
X860297Y965531D2*
X870345Y949746D1*
X898245Y979890D2*
X879609D1*
Y949746D1*
X898245D1*
X879609Y965531D2*
X891082D1*
X907509Y979890D2*
Y949746D1*
X917557D1*
X921868Y951206D1*
X924753Y954057D1*
X926179Y956942D1*
X927605Y961220D1*
Y968416D1*
X926179Y972727D1*
X924753Y975579D1*
X921868Y978464D1*
X917557Y979890D1*
X907509D1*
X956498Y964105D2*
X969431D1*
X973709Y965531D1*
X975168Y966990D1*
X976594Y969842D1*
Y974153D1*
X975168Y977005D1*
X973709Y978464D1*
X969431Y979890D1*
X956498D1*
Y949746D1*
X985858Y979890D2*
X993054Y949746D1*
X1000217Y979890D1*
X1007380Y949746D1*
X1014576Y979890D1*
X1023839Y965531D2*
X1036739D1*
X1041050Y966990D1*
X1042509Y968416D1*
X1043935Y971268D1*
Y974153D1*
X1042509Y977005D1*
X1041050Y978464D1*
X1036739Y979890D1*
X1023839D1*
Y949746D1*
X1033887Y965531D2*
X1043935Y949746D1*
X660698Y1030997D2*
Y1061141D1*
X649224Y1030997D1*
X637750Y1061141D1*
Y1030997D1*
X690058Y1056830D2*
X687206Y1059715D1*
X682895Y1061141D1*
X677158D1*
X672847Y1059715D1*
X669962Y1056830D1*
Y1053978D1*
X671421Y1051093D1*
X672847Y1049667D1*
X675699Y1048241D1*
X684321Y1045356D1*
X687206Y1043930D1*
X688632Y1042471D1*
X690058Y1039619D1*
Y1035308D1*
X687206Y1032456D1*
X682895Y1030997D1*
X677158D1*
X672847Y1032456D1*
X669962Y1035308D1*
X699321Y1045356D2*
X712254D1*
X716532Y1046782D1*
X717991Y1048241D1*
X719417Y1051093D1*
Y1055404D1*
X717991Y1058256D1*
X716532Y1059715D1*
X712254Y1061141D1*
X699321D1*
Y1030997D1*
M02*
