G04 DipTrace 3.1.0.0*
G04 MSPExampleSection1.gbo*
%MOIN*%
G04 #@! TF.FileFunction,Legend,Bot*
G04 #@! TF.Part,Single*
%ADD12C,0.003*%
%FSLAX26Y26*%
G04*
G70*
G90*
G75*
G01*
G04 BotSilk*
%LPD*%
X672249Y1303500D2*
D12*
X693249D1*
X670829Y1300500D2*
X694310D1*
X669625Y1297500D2*
X695546D1*
X633249Y1294500D2*
X639249D1*
X668274D2*
X697037D1*
X726249D2*
X732249D1*
X630249Y1291500D2*
X645249D1*
X664639D2*
X700777D1*
X720249D2*
X735249D1*
X627249Y1288500D2*
X651249D1*
X660249D2*
X705249D1*
X714249D2*
X738249D1*
X624249Y1285500D2*
X741249D1*
X621249Y1282500D2*
X744249D1*
X624123Y1279500D2*
X741261D1*
X626622Y1276500D2*
X738390D1*
X628391Y1273500D2*
X736007D1*
X629574Y1270500D2*
X734224D1*
X629561Y1267500D2*
X734489D1*
X628054Y1264500D2*
X736660D1*
X623465Y1261500D2*
X679440D1*
X686058D2*
X741632D1*
X617704Y1258500D2*
X673037D1*
X692462D2*
X747616D1*
X612510Y1255500D2*
X668412D1*
X697087D2*
X752916D1*
X608590Y1252500D2*
X665179D1*
X700319D2*
X756892D1*
X607352Y1249500D2*
X662636D1*
X702863D2*
X758139D1*
X606706Y1246500D2*
X660249D1*
X705249D2*
X758790D1*
X606423Y1243500D2*
X662235D1*
X703263D2*
X759074D1*
X606309Y1240500D2*
X664436D1*
X701062D2*
X759189D1*
X606249Y1237500D2*
X667121D1*
X698378D2*
X759249D1*
X616048Y1234500D2*
X669941D1*
X695558D2*
X749451D1*
X622854Y1231500D2*
X672440D1*
X693059D2*
X742645D1*
X627585Y1228500D2*
X673041D1*
X692458D2*
X737913D1*
X629190Y1225500D2*
X672311D1*
X693187D2*
X736309D1*
X629480Y1222500D2*
X671205D1*
X694282D2*
X736019D1*
X628297Y1219500D2*
X669785D1*
X695609D2*
X737201D1*
X626370Y1216500D2*
X668068D1*
X697049D2*
X739129D1*
X623913Y1213500D2*
X666151D1*
X698631D2*
X741585D1*
X621249Y1210500D2*
X664244D1*
X700505D2*
X744249D1*
X624249Y1207500D2*
X662296D1*
X702777D2*
X741126D1*
X627249Y1204500D2*
X651249D1*
X657249D2*
X660249D1*
X705249D2*
X708249D1*
X714249D2*
X737660D1*
X630249Y1201500D2*
X645249D1*
X720249D2*
X733634D1*
X633249Y1198500D2*
X639249D1*
X726249D2*
X729249D1*
X588249Y1186500D2*
X597249D1*
X606249D2*
X642249D1*
X648249D2*
X654249D1*
X660249D2*
X669249D1*
X678249D2*
X690249D1*
X705249D2*
X720249D1*
X726249D2*
X738249D1*
X747249D2*
X759249D1*
X765249D2*
X774249D1*
X588249Y1183500D2*
X642249D1*
X648249D2*
X691430D1*
X705249D2*
X720249D1*
X726249D2*
X759249D1*
X765249D2*
X774249D1*
X588249Y1180500D2*
X600249D1*
X606249D2*
D3*
X615249D2*
X618249D1*
X626660D2*
X642249D1*
X648249D2*
X660249D1*
X669249D2*
X672249D1*
X678249D2*
X691490D1*
X705249D2*
X708249D1*
X717249D2*
X747249D1*
X756249D2*
X769181D1*
X774249D2*
D3*
X588249Y1177500D2*
X600249D1*
X615249D2*
X618249D1*
X628426D2*
X642249D1*
X648249D2*
X660249D1*
X669249D2*
X691707D1*
X705249D2*
X708249D1*
X717249D2*
X747249D1*
X756249D2*
X770719D1*
X588249Y1174500D2*
X618249D1*
X629499D2*
X692261D1*
X705249D2*
X708249D1*
X717249D2*
X720249D1*
X726249D2*
X772520D1*
X588249Y1171500D2*
X618249D1*
X630249D2*
X651249D1*
X660062D2*
X692736D1*
X705249D2*
X708249D1*
X717249D2*
X720249D1*
X726249D2*
X738249D1*
X741891D2*
X759249D1*
X765249D2*
X774249D1*
X690249Y1168500D2*
X693018D1*
X750003D2*
X759249D1*
X689089Y1165500D2*
X693161D1*
X753742D2*
X759249D1*
X685560Y1162500D2*
X693249D1*
X755183D2*
X759249D1*
X609249Y1159500D2*
X636249D1*
X642249D2*
X663249D1*
X672249D2*
X675249D1*
X681249D2*
X720249D1*
X726249D2*
X738249D1*
X744249D2*
X759249D1*
X607854Y1156500D2*
X636249D1*
X642249D2*
X729249D1*
X735249D2*
X738249D1*
X744249D2*
X759249D1*
X606926Y1153500D2*
X624249D1*
X633249D2*
X636249D1*
X642249D2*
X684249D1*
X690249D2*
X693249D1*
X702249D2*
X705249D1*
X717249D2*
X738249D1*
X744249D2*
X747249D1*
X756249D2*
X759249D1*
X606249Y1150500D2*
X624249D1*
X633249D2*
X636249D1*
X642249D2*
X657249D1*
X663249D2*
X684249D1*
X690249D2*
X693249D1*
X702249D2*
X705249D1*
X717249D2*
X747249D1*
X756249D2*
X759249D1*
X672249Y1303500D2*
X670829Y1300500D1*
X669625Y1297500D1*
X668274Y1294500D1*
X664639Y1291500D1*
X660249Y1288500D1*
X693249Y1303500D2*
X694310Y1300500D1*
X695546Y1297500D1*
X697037Y1294500D1*
X700777Y1291500D1*
X705249Y1288500D1*
X633249Y1294500D2*
X630249Y1291500D1*
X627249Y1288500D1*
X624249Y1285500D1*
X621249Y1282500D1*
X624123Y1279500D1*
X626622Y1276500D1*
X628391Y1273500D1*
X629574Y1270500D1*
X629561Y1267500D1*
X628054Y1264500D1*
X623465Y1261500D1*
X617704Y1258500D1*
X612510Y1255500D1*
X608590Y1252500D1*
X607352Y1249500D1*
X606706Y1246500D1*
X606423Y1243500D1*
X606309Y1240500D1*
X606249Y1237500D1*
X616048Y1234500D1*
X622854Y1231500D1*
X627585Y1228500D1*
X629190Y1225500D1*
X629480Y1222500D1*
X628297Y1219500D1*
X626370Y1216500D1*
X623913Y1213500D1*
X621249Y1210500D1*
X624249Y1207500D1*
X627249Y1204500D1*
X630249Y1201500D1*
X633249Y1198500D1*
X639249Y1294500D2*
X645249Y1291500D1*
X651249Y1288500D1*
X726249Y1294500D2*
X720249Y1291500D1*
X714249Y1288500D1*
X732249Y1294500D2*
X735249Y1291500D1*
X738249Y1288500D1*
X741249Y1285500D1*
X744249Y1282500D1*
X741261Y1279500D1*
X738390Y1276500D1*
X736007Y1273500D1*
X734224Y1270500D1*
X734489Y1267500D1*
X736660Y1264500D1*
X741632Y1261500D1*
X747616Y1258500D1*
X752916Y1255500D1*
X756892Y1252500D1*
X758139Y1249500D1*
X758790Y1246500D1*
X759074Y1243500D1*
X759189Y1240500D1*
X759249Y1237500D1*
X749451Y1234500D1*
X742645Y1231500D1*
X737913Y1228500D1*
X736309Y1225500D1*
X736019Y1222500D1*
X737201Y1219500D1*
X739129Y1216500D1*
X741585Y1213500D1*
X744249Y1210500D1*
X741126Y1207500D1*
X737660Y1204500D1*
X733634Y1201500D1*
X729249Y1198500D1*
X687249Y1264500D2*
X679440Y1261500D1*
X673037Y1258500D1*
X668412Y1255500D1*
X665179Y1252500D1*
X662636Y1249500D1*
X660249Y1246500D1*
X662235Y1243500D1*
X664436Y1240500D1*
X667121Y1237500D1*
X669941Y1234500D1*
X672440Y1231500D1*
X673041Y1228500D1*
X672311Y1225500D1*
X671205Y1222500D1*
X669785Y1219500D1*
X668068Y1216500D1*
X666151Y1213500D1*
X664244Y1210500D1*
X662296Y1207500D1*
X660249Y1204500D1*
X678249Y1264500D2*
X686058Y1261500D1*
X692462Y1258500D1*
X697087Y1255500D1*
X700319Y1252500D1*
X702863Y1249500D1*
X705249Y1246500D1*
X703263Y1243500D1*
X701062Y1240500D1*
X698378Y1237500D1*
X695558Y1234500D1*
X693059Y1231500D1*
X692458Y1228500D1*
X693187Y1225500D1*
X694282Y1222500D1*
X695609Y1219500D1*
X697049Y1216500D1*
X698631Y1213500D1*
X700505Y1210500D1*
X702777Y1207500D1*
X705249Y1204500D1*
X657249Y1207500D2*
X651249Y1204500D1*
X645249Y1201500D1*
X639249Y1198500D1*
X654249Y1207500D2*
X657249Y1204500D1*
X711249Y1207500D2*
X708249Y1204500D1*
Y1207500D2*
X714249Y1204500D1*
X720249Y1201500D1*
X726249Y1198500D1*
X588249Y1186500D2*
Y1183500D1*
Y1180500D1*
Y1177500D1*
Y1174500D1*
Y1171500D1*
X597249Y1186500D2*
X606249D2*
X642249D2*
Y1183500D1*
Y1180500D1*
Y1177500D1*
X648249Y1186500D2*
Y1183500D1*
Y1180500D1*
Y1177500D1*
X654249Y1186500D2*
X660249D2*
X669249D2*
X678249D2*
X690249D2*
X691430Y1183500D1*
X691490Y1180500D1*
X691707Y1177500D1*
X692261Y1174500D1*
X692736Y1171500D1*
X693018Y1168500D1*
X693161Y1165500D1*
X693249Y1162500D1*
X720249Y1159500D1*
X705249Y1186500D2*
Y1183500D1*
Y1180500D1*
Y1177500D1*
Y1174500D1*
Y1171500D1*
X720249Y1186500D2*
Y1183500D1*
X726249Y1186500D2*
Y1183500D1*
X738249Y1186500D2*
X747249D2*
X759249D2*
Y1183500D1*
X765249Y1186500D2*
Y1183500D1*
X774249Y1186500D2*
Y1183500D1*
Y1180500D1*
X600249Y1183500D2*
Y1180500D1*
Y1177500D1*
X603249Y1183500D2*
X606249Y1180500D1*
X615249Y1183500D2*
Y1180500D1*
Y1177500D1*
X618249Y1183500D2*
Y1180500D1*
Y1177500D1*
Y1174500D1*
Y1171500D1*
X624249Y1183500D2*
X626660Y1180500D1*
X628426Y1177500D1*
X629499Y1174500D1*
X630249Y1171500D1*
X660249Y1183500D2*
Y1180500D1*
Y1177500D1*
X669249Y1183500D2*
Y1180500D1*
Y1177500D1*
X675249Y1183500D2*
X672249Y1180500D1*
X675249Y1183500D2*
X678249Y1180500D1*
X708249Y1183500D2*
Y1180500D1*
Y1177500D1*
Y1174500D1*
Y1171500D1*
X717249Y1183500D2*
Y1180500D1*
Y1177500D1*
Y1174500D1*
Y1171500D1*
X747249Y1183500D2*
Y1180500D1*
Y1177500D1*
X756249Y1183500D2*
Y1180500D1*
Y1177500D1*
X768249Y1183500D2*
X769181Y1180500D1*
X770719Y1177500D1*
X772520Y1174500D1*
X774249Y1171500D1*
X720249Y1177500D2*
Y1174500D1*
Y1171500D1*
X726249Y1177500D2*
Y1174500D1*
Y1171500D1*
X654249Y1174500D2*
X651249Y1171500D1*
X630249Y1174500D2*
X660062Y1171500D1*
X690249Y1168500D1*
X689089Y1165500D1*
X685560Y1162500D1*
X681249Y1159500D1*
X741249Y1174500D2*
X738249Y1171500D1*
X732249Y1174500D2*
X741891Y1171500D1*
X750003Y1168500D1*
X753742Y1165500D1*
X755183Y1162500D1*
X756249Y1159500D1*
X744249D1*
Y1156500D1*
Y1153500D1*
X759249Y1174500D2*
Y1171500D1*
Y1168500D1*
Y1165500D1*
Y1162500D1*
Y1159500D1*
Y1156500D1*
Y1153500D1*
Y1150500D1*
X762249Y1174500D2*
X765249Y1171500D1*
X609249Y1159500D2*
X607854Y1156500D1*
X606926Y1153500D1*
X606249Y1150500D1*
X636249Y1159500D2*
Y1156500D1*
Y1153500D1*
Y1150500D1*
X642249Y1159500D2*
Y1156500D1*
Y1153500D1*
Y1150500D1*
X663249Y1159500D2*
X672249D2*
X675249D2*
X726249D2*
X738249D2*
Y1156500D1*
Y1153500D1*
X732249Y1159500D2*
X729249Y1156500D1*
X732249Y1159500D2*
X735249Y1156500D1*
X624249D2*
Y1153500D1*
Y1150500D1*
X633249Y1156500D2*
Y1153500D1*
Y1150500D1*
X684249Y1156500D2*
Y1153500D1*
Y1150500D1*
X690249Y1156500D2*
Y1153500D1*
Y1150500D1*
X693249Y1156500D2*
Y1153500D1*
Y1150500D1*
X702249Y1156500D2*
Y1153500D1*
Y1150500D1*
X705249Y1156500D2*
Y1153500D1*
Y1150500D1*
X717249Y1156500D2*
Y1153500D1*
Y1150500D1*
X747249Y1156500D2*
Y1153500D1*
Y1150500D1*
X756249Y1156500D2*
Y1153500D1*
Y1150500D1*
X660249Y1153500D2*
X657249Y1150500D1*
X660249Y1153500D2*
X663249Y1150500D1*
M02*
