G04 DipTrace 3.1.0.0*
G04 MSPExampleSection1.gbl*
%MOIN*%
G04 #@! TF.FileFunction,Copper,L2,Bot*
G04 #@! TF.Part,Single*
G04 #@! TA.AperFunction,Conductor*
%ADD11C,0.006*%
G04 #@! TA.AperFunction,CopperBalancing*
%ADD14C,0.025*%
G04 #@! TA.AperFunction,ComponentPad*
%ADD16R,0.066929X0.066929*%
%ADD17C,0.066929*%
G04 #@! TA.AperFunction,ViaPad*
%ADD19C,0.02*%
%FSLAX26Y26*%
G04*
G70*
G90*
G75*
G01*
G04 Bottom*
%LPD*%
X779000Y1125249D2*
D11*
X797749D1*
Y1131500D1*
D19*
X779000Y1125249D3*
X437774Y1325382D2*
D14*
X1170518D1*
X437774Y1300513D2*
X1170664D1*
X437774Y1275644D2*
X1170811D1*
X437774Y1250776D2*
X1171006D1*
X437774Y1225907D2*
X1171153D1*
X516485Y1201038D2*
X1105332D1*
X516485Y1176169D2*
X1093076D1*
X516485Y1151301D2*
X1092637D1*
X516485Y1126432D2*
X1103770D1*
X502227Y1101563D2*
X1105772D1*
X514825Y1076694D2*
X1093174D1*
X515459Y1051825D2*
X1092539D1*
X504619Y1026957D2*
X1103379D1*
X501787Y1002088D2*
X1106260D1*
X514727Y977219D2*
X1093321D1*
X515557Y952350D2*
X1092442D1*
X505010Y927482D2*
X1102989D1*
X501299Y902613D2*
X1106700D1*
X514580Y877744D2*
X1093418D1*
X515655Y852875D2*
X1092344D1*
X505352Y828007D2*
X1102647D1*
X500860Y803138D2*
X1107188D1*
X514434Y778269D2*
X1093565D1*
X515752Y753400D2*
X1092246D1*
X505743Y728531D2*
X1102256D1*
X466631Y703663D2*
X1107676D1*
X437774Y678794D2*
X1093711D1*
X437774Y653925D2*
X1092198D1*
X437774Y629056D2*
X1101914D1*
X499883Y604188D2*
X1108164D1*
X514141Y579319D2*
X1093858D1*
X515899Y554450D2*
X1092100D1*
X506475Y529581D2*
X1101524D1*
X499346Y504713D2*
X1091514D1*
X513994Y479844D2*
X1091514D1*
X515948Y454975D2*
X1091514D1*
X435207Y1222728D2*
X513974D1*
Y1102799D1*
X498691D1*
X505137Y1094095D1*
X509409Y1085711D1*
X512317Y1076762D1*
X513789Y1067469D1*
Y1058059D1*
X512317Y1048765D1*
X509409Y1039816D1*
X505137Y1031432D1*
X499607Y1023820D1*
X492953Y1017166D1*
X487069Y1012790D1*
X492953Y1008361D1*
X499607Y1001708D1*
X505137Y994095D1*
X509409Y985711D1*
X512317Y976762D1*
X513789Y967469D1*
Y958059D1*
X512317Y948765D1*
X509409Y939816D1*
X505137Y931432D1*
X499607Y923820D1*
X492953Y917166D1*
X487069Y912790D1*
X492953Y908361D1*
X499607Y901708D1*
X505137Y894095D1*
X509409Y885711D1*
X512317Y876762D1*
X513789Y867469D1*
Y858059D1*
X512317Y848765D1*
X509409Y839816D1*
X505137Y831432D1*
X499607Y823820D1*
X492953Y817166D1*
X487069Y812790D1*
X492953Y808361D1*
X499607Y801708D1*
X505137Y794095D1*
X509409Y785711D1*
X512317Y776762D1*
X513789Y767469D1*
Y758059D1*
X512317Y748765D1*
X509409Y739816D1*
X505137Y731432D1*
X499607Y723820D1*
X492953Y717166D1*
X485341Y711636D1*
X476957Y707364D1*
X468008Y704456D1*
X458714Y702984D1*
X449304D1*
X440011Y704456D1*
X435220Y705830D1*
X435479Y619793D1*
X444629Y621990D1*
X454009Y622728D1*
X463390Y621990D1*
X472539Y619793D1*
X481233Y616193D1*
X489255Y611276D1*
X496411Y605165D1*
X502522Y598010D1*
X507438Y589987D1*
X511039Y581294D1*
X513235Y572144D1*
X513974Y562764D1*
X513235Y553383D1*
X511039Y544234D1*
X507438Y535540D1*
X502522Y527517D1*
X496411Y520362D1*
X489255Y514251D1*
X487069Y512790D1*
X492953Y508361D1*
X499607Y501708D1*
X505137Y494095D1*
X509409Y485711D1*
X512317Y476762D1*
X513789Y467469D1*
Y458059D1*
X512317Y448765D1*
X509409Y439816D1*
X505164Y431481D1*
X1093990Y431500D1*
X1094035Y522715D1*
X1109319D1*
X1102872Y531419D1*
X1098600Y539803D1*
X1095692Y548752D1*
X1094220Y558046D1*
Y567455D1*
X1095692Y576749D1*
X1098600Y585698D1*
X1102872Y594082D1*
X1108403Y601695D1*
X1115056Y608348D1*
X1120941Y612724D1*
X1115056Y617153D1*
X1108403Y623807D1*
X1102872Y631419D1*
X1098600Y639803D1*
X1095692Y648752D1*
X1094220Y658046D1*
Y667455D1*
X1095692Y676749D1*
X1098600Y685698D1*
X1102872Y694082D1*
X1108403Y701695D1*
X1115056Y708348D1*
X1120941Y712724D1*
X1115056Y717153D1*
X1108403Y723807D1*
X1102872Y731419D1*
X1098600Y739803D1*
X1095692Y748752D1*
X1094220Y758046D1*
Y767455D1*
X1095692Y776749D1*
X1098600Y785698D1*
X1102872Y794082D1*
X1108403Y801695D1*
X1115056Y808348D1*
X1120941Y812724D1*
X1115056Y817153D1*
X1108403Y823807D1*
X1102872Y831419D1*
X1098600Y839803D1*
X1095692Y848752D1*
X1094220Y858046D1*
Y867455D1*
X1095692Y876749D1*
X1098600Y885698D1*
X1102872Y894082D1*
X1108403Y901695D1*
X1115056Y908348D1*
X1120941Y912724D1*
X1115056Y917153D1*
X1108403Y923807D1*
X1102872Y931419D1*
X1098600Y939803D1*
X1095692Y948752D1*
X1094220Y958046D1*
Y967455D1*
X1095692Y976749D1*
X1098600Y985698D1*
X1102872Y994082D1*
X1108403Y1001695D1*
X1115056Y1008348D1*
X1120941Y1012724D1*
X1115056Y1017153D1*
X1108403Y1023807D1*
X1102872Y1031419D1*
X1098600Y1039803D1*
X1095692Y1048752D1*
X1094220Y1058046D1*
Y1067455D1*
X1095692Y1076749D1*
X1098600Y1085698D1*
X1102872Y1094082D1*
X1108403Y1101695D1*
X1115056Y1108348D1*
X1120941Y1112724D1*
X1115056Y1117153D1*
X1108403Y1123807D1*
X1102872Y1131419D1*
X1098600Y1139803D1*
X1095692Y1148752D1*
X1094220Y1158046D1*
Y1167455D1*
X1095692Y1176749D1*
X1098600Y1185698D1*
X1102872Y1194082D1*
X1108403Y1201695D1*
X1115056Y1208348D1*
X1122669Y1213879D1*
X1131053Y1218151D1*
X1140002Y1221058D1*
X1149295Y1222530D1*
X1158705D1*
X1167998Y1221058D1*
X1173721Y1219341D1*
X1172832Y1350196D1*
X435249Y1344000D1*
Y1222760D1*
D16*
X454009Y1162764D3*
D17*
Y1062764D3*
Y962764D3*
Y862764D3*
Y762764D3*
Y662764D3*
Y562764D3*
Y462764D3*
D16*
X1154000Y462751D3*
D17*
Y562751D3*
Y662751D3*
Y762751D3*
Y862751D3*
Y962751D3*
Y1062751D3*
Y1162751D3*
M02*
