G04 DipTrace 3.1.0.0*
G04 project.gbo*
%MOIN*%
G04 #@! TF.FileFunction,Legend,Bot*
G04 #@! TF.Part,Single*
%ADD33C,0.004632*%
%FSLAX26Y26*%
G04*
G70*
G90*
G75*
G01*
G04 BotSilk*
%LPD*%
X1017912Y759281D2*
D33*
X1005013D1*
X1000702Y760740D1*
X999242Y762166D1*
X997816Y765018D1*
Y767903D1*
X999242Y770755D1*
X1000702Y772214D1*
X1005013Y773640D1*
X1017912D1*
Y743496D1*
X1007864Y759281D2*
X997816Y743496D1*
X988553Y763592D2*
Y749233D1*
X987127Y744955D1*
X984242Y743496D1*
X979931D1*
X977079Y744955D1*
X972768Y749233D1*
Y763592D2*
Y743496D1*
X947719Y759281D2*
X949145Y762166D1*
X953456Y763592D1*
X957767D1*
X962078Y762166D1*
X963504Y759281D1*
X962078Y756429D1*
X959193Y754970D1*
X952030Y753544D1*
X949145Y752118D1*
X947719Y749233D1*
Y747807D1*
X949145Y744955D1*
X953456Y743496D1*
X957767D1*
X962078Y744955D1*
X963504Y747807D1*
X922671Y759281D2*
X924097Y762166D1*
X928408Y763592D1*
X932719D1*
X937030Y762166D1*
X938456Y759281D1*
X937030Y756429D1*
X934145Y754970D1*
X926982Y753544D1*
X924097Y752118D1*
X922671Y749233D1*
Y747807D1*
X924097Y744955D1*
X928408Y743496D1*
X932719D1*
X937030Y744955D1*
X938456Y747807D1*
X913407Y754970D2*
X896196D1*
Y757855D1*
X897622Y760740D1*
X899048Y762166D1*
X901933Y763592D1*
X906244D1*
X909096Y762166D1*
X911981Y759281D1*
X913407Y754970D1*
Y752118D1*
X911981Y747807D1*
X909096Y744955D1*
X906244Y743496D1*
X901933D1*
X899048Y744955D1*
X896196Y747807D1*
X886933Y773640D2*
Y743496D1*
X877669Y773640D2*
Y743496D1*
X829197Y773640D2*
Y743496D1*
X839245Y773640D2*
X819149D1*
X809886Y763592D2*
Y743496D1*
Y754970D2*
X808427Y759281D1*
X805575Y762166D1*
X802690Y763592D1*
X798378D1*
X771904D2*
Y743496D1*
Y759281D2*
X774756Y762166D1*
X777641Y763592D1*
X781919D1*
X784804Y762166D1*
X787656Y759281D1*
X789115Y754970D1*
Y752118D1*
X787656Y747807D1*
X784804Y744955D1*
X781919Y743496D1*
X777641D1*
X774756Y744955D1*
X771904Y747807D1*
X751167Y773640D2*
X754018D1*
X756903Y772214D1*
X758329Y767903D1*
Y743496D1*
X762640Y763592D2*
X752592D1*
X730429Y773640D2*
X733281D1*
X736166Y772214D1*
X737592Y767903D1*
Y743496D1*
X741903Y763592D2*
X731855D1*
X714003D2*
X716854Y762166D1*
X719740Y759281D1*
X721165Y754970D1*
Y752118D1*
X719740Y747807D1*
X716854Y744955D1*
X714003Y743496D1*
X709692D1*
X706806Y744955D1*
X703955Y747807D1*
X702495Y752118D1*
Y754970D1*
X703955Y759281D1*
X706806Y762166D1*
X709692Y763592D1*
X714003D1*
X693232D2*
Y743496D1*
Y754970D2*
X691773Y759281D1*
X688921Y762166D1*
X686036Y763592D1*
X681725D1*
X655250Y773640D2*
Y743496D1*
Y759281D2*
X658102Y762166D1*
X660987Y763592D1*
X665298D1*
X668150Y762166D1*
X671035Y759281D1*
X672461Y754970D1*
Y752118D1*
X671035Y747807D1*
X668150Y744955D1*
X665298Y743496D1*
X660987D1*
X658102Y744955D1*
X655250Y747807D1*
X1005321Y662246D2*
Y692390D1*
X1016795Y662246D1*
X1028269Y692390D1*
Y662246D1*
X975962Y688079D2*
X978814Y690964D1*
X983125Y692390D1*
X988862D1*
X993173Y690964D1*
X996058Y688079D1*
Y685227D1*
X994599Y682342D1*
X993173Y680916D1*
X990321Y679490D1*
X981699Y676605D1*
X978814Y675179D1*
X977388Y673720D1*
X975962Y670868D1*
Y666557D1*
X978814Y663706D1*
X983125Y662246D1*
X988862D1*
X993173Y663706D1*
X996058Y666557D1*
X966698Y676605D2*
X953765D1*
X949487Y678031D1*
X948028Y679490D1*
X946602Y682342D1*
Y686653D1*
X948028Y689505D1*
X949487Y690964D1*
X953765Y692390D1*
X966698D1*
Y662246D1*
X922980D2*
Y692357D1*
X937339Y672294D1*
X915817D1*
X903668Y692357D2*
X887916D1*
X896505Y680883D1*
X892194D1*
X889342Y679457D1*
X887916Y678031D1*
X886457Y673720D1*
Y670868D1*
X887916Y666557D1*
X890768Y663672D1*
X895079Y662246D1*
X899390D1*
X903668Y663672D1*
X905094Y665131D1*
X906553Y667983D1*
X868572Y692357D2*
X872883Y690931D1*
X875768Y686620D1*
X877194Y679457D1*
Y675146D1*
X875768Y667983D1*
X872883Y663672D1*
X868572Y662246D1*
X865720D1*
X861409Y663672D1*
X858557Y667983D1*
X857098Y675146D1*
Y679457D1*
X858557Y686620D1*
X861409Y690931D1*
X865720Y692357D1*
X868572D1*
X858557Y686620D2*
X875768Y667983D1*
X847834Y692390D2*
Y662246D1*
X834901D1*
X830590Y663706D1*
X829164Y665131D1*
X827738Y667983D1*
Y672294D1*
X829164Y675179D1*
X830590Y676605D1*
X834901Y678031D1*
X830590Y679490D1*
X829164Y680916D1*
X827738Y683768D1*
Y686653D1*
X829164Y689505D1*
X830590Y690964D1*
X834901Y692390D1*
X847834D1*
Y678031D2*
X834901D1*
X818475Y682342D2*
Y662246D1*
Y673720D2*
X817015Y678031D1*
X814163Y680916D1*
X811278Y682342D1*
X806967D1*
X797704Y673720D2*
X780493D1*
Y676605D1*
X781919Y679490D1*
X783345Y680916D1*
X786230Y682342D1*
X790541D1*
X793393Y680916D1*
X796278Y678031D1*
X797704Y673720D1*
Y670868D1*
X796278Y666557D1*
X793393Y663706D1*
X790541Y662246D1*
X786230D1*
X783345Y663706D1*
X780493Y666557D1*
X754018Y682342D2*
Y662246D1*
Y678031D2*
X756870Y680916D1*
X759755Y682342D1*
X764033D1*
X766918Y680916D1*
X769770Y678031D1*
X771229Y673720D1*
Y670868D1*
X769770Y666557D1*
X766918Y663706D1*
X764033Y662246D1*
X759755D1*
X756870Y663706D1*
X754018Y666557D1*
X744755Y692390D2*
Y662246D1*
X730396Y682342D2*
X744755Y667983D1*
X739018Y673720D2*
X728970Y662246D1*
X712543Y682342D2*
X715395Y680916D1*
X718280Y678031D1*
X719706Y673720D1*
Y670868D1*
X718280Y666557D1*
X715395Y663706D1*
X712543Y662246D1*
X708232D1*
X705347Y663706D1*
X702495Y666557D1*
X701036Y670868D1*
Y673720D1*
X702495Y678031D1*
X705347Y680916D1*
X708232Y682342D1*
X712543D1*
X691773D2*
Y667983D1*
X690347Y663706D1*
X687462Y662246D1*
X683151D1*
X680299Y663706D1*
X675988Y667983D1*
Y682342D2*
Y662246D1*
X662413Y692390D2*
Y667983D1*
X660987Y663706D1*
X658102Y662246D1*
X655250D1*
X666724Y682342D2*
X656676D1*
X946674Y603031D2*
X933774D1*
X929463Y604490D1*
X928004Y605916D1*
X926578Y608768D1*
Y611653D1*
X928004Y614505D1*
X929463Y615964D1*
X933774Y617390D1*
X946674D1*
Y587246D1*
X936626Y603031D2*
X926578Y587246D1*
X917315Y598720D2*
X900104D1*
Y601605D1*
X901530Y604490D1*
X902956Y605916D1*
X905841Y607342D1*
X910152D1*
X913004Y605916D1*
X915889Y603031D1*
X917315Y598720D1*
Y595868D1*
X915889Y591557D1*
X913004Y588706D1*
X910152Y587246D1*
X905841D1*
X902956Y588706D1*
X900104Y591557D1*
X890840Y607342D2*
X882218Y587246D1*
X873629Y607342D1*
X835205Y611620D2*
X832320Y613079D1*
X828009Y617357D1*
Y587246D1*
X817320Y590131D2*
X818746Y588672D1*
X817320Y587246D1*
X815860Y588672D1*
X817320Y590131D1*
X797975Y617357D2*
X802286Y615931D1*
X805171Y611620D1*
X806597Y604457D1*
Y600146D1*
X805171Y592983D1*
X802286Y588672D1*
X797975Y587246D1*
X795123D1*
X790812Y588672D1*
X787960Y592983D1*
X786501Y600146D1*
Y604457D1*
X787960Y611620D1*
X790812Y615931D1*
X795123Y617357D1*
X797975D1*
X787960Y611620D2*
X805171Y592983D1*
M02*
