G04 DipTrace 3.1.0.0*
G04 project.gbl*
%MOIN*%
G04 #@! TF.FileFunction,Copper,L2,Bot*
G04 #@! TF.Part,Single*
%ADD12C,0.003*%
G04 #@! TA.AperFunction,Conductor*
%ADD11C,0.006*%
G04 #@! TA.AperFunction,CopperBalancing*
%ADD14C,0.025*%
G04 #@! TA.AperFunction,ComponentPad*
%ADD16R,0.066929X0.066929*%
%ADD17C,0.066929*%
G04 #@! TA.AperFunction,ViaPad*
%ADD19C,0.02*%
%FSLAX26Y26*%
G04*
G70*
G90*
G75*
G01*
G04 Bottom*
%LPD*%
X1011500Y1006500D2*
D11*
X1024000D1*
D19*
X1011500D3*
X451770Y1300381D2*
D14*
X1233733D1*
X548987Y1275512D2*
X1124016D1*
X548987Y1250643D2*
X1124016D1*
X548987Y1225774D2*
X1124016D1*
X548987Y1200906D2*
X638762D1*
X1021741D2*
X1124016D1*
X548987Y1176037D2*
X638762D1*
X1021741D2*
X1124016D1*
X539612Y1151168D2*
X638762D1*
X1021741D2*
X1133391D1*
X548498Y1126299D2*
X638762D1*
X1021741D2*
X1124504D1*
X546350Y1101430D2*
X638762D1*
X1021741D2*
X1126653D1*
X531360Y1076562D2*
X638762D1*
X1021741D2*
X1141643D1*
X539270Y1051693D2*
X638762D1*
X1021741D2*
X1133733D1*
X548450Y1026824D2*
X638762D1*
X1021741D2*
X1124553D1*
X546496Y1001955D2*
X638762D1*
X1021741D2*
X1126506D1*
X531897Y977087D2*
X638762D1*
X1021741D2*
X1141106D1*
X538928Y952218D2*
X638762D1*
X1021741D2*
X1134075D1*
X548401Y927349D2*
X638762D1*
X1021741D2*
X1124602D1*
X546643Y902480D2*
X638762D1*
X1021741D2*
X1126360D1*
X532385Y877612D2*
X1140618D1*
X538586Y852743D2*
X1134416D1*
X548303Y827874D2*
X1124700D1*
X546789Y803005D2*
X1126213D1*
X532873Y778136D2*
X1140129D1*
X455530Y753268D2*
X1134807D1*
X455725Y728399D2*
X1124797D1*
X455871Y703530D2*
X1126067D1*
X456067Y678661D2*
X477971D1*
X495023D2*
X1139641D1*
X537854Y653793D2*
X1135149D1*
X548157Y628924D2*
X1124846D1*
X547082Y604055D2*
X1125920D1*
X533850Y579186D2*
X1139153D1*
X537463Y554318D2*
X1135539D1*
X548059Y529449D2*
X1124944D1*
X547229Y504580D2*
X1125774D1*
X534289Y479711D2*
X1138713D1*
X457580Y454843D2*
X1227971D1*
X449437Y1278963D2*
X546466D1*
Y1159034D1*
X531183D1*
X537630Y1150330D1*
X541901Y1141946D1*
X544809Y1132997D1*
X546281Y1123703D1*
Y1114294D1*
X544809Y1105000D1*
X541901Y1096051D1*
X537630Y1087667D1*
X532099Y1080055D1*
X525445Y1073401D1*
X519561Y1069025D1*
X525445Y1064596D1*
X532099Y1057943D1*
X537630Y1050330D1*
X541901Y1041946D1*
X544809Y1032997D1*
X546281Y1023703D1*
Y1014294D1*
X544809Y1005000D1*
X541901Y996051D1*
X537630Y987667D1*
X532099Y980055D1*
X525445Y973401D1*
X519561Y969025D1*
X525445Y964596D1*
X532099Y957943D1*
X537630Y950330D1*
X541901Y941946D1*
X544809Y932997D1*
X546281Y923703D1*
Y914294D1*
X544809Y905000D1*
X541901Y896051D1*
X537630Y887667D1*
X532099Y880055D1*
X525445Y873401D1*
X519561Y869025D1*
X525445Y864596D1*
X532099Y857943D1*
X537630Y850330D1*
X541901Y841946D1*
X544809Y832997D1*
X546281Y823703D1*
Y814294D1*
X544809Y805000D1*
X541901Y796051D1*
X537630Y787667D1*
X532099Y780055D1*
X525445Y773401D1*
X517833Y767870D1*
X509449Y763599D1*
X500500Y760691D1*
X491206Y759219D1*
X481797D1*
X472503Y760691D1*
X463554Y763599D1*
X455170Y767870D1*
X452922Y769373D1*
X453612Y669150D1*
X459278Y672428D1*
X467971Y676028D1*
X477121Y678225D1*
X486501Y678963D1*
X495882Y678225D1*
X505031Y676028D1*
X513725Y672428D1*
X521748Y667511D1*
X528903Y661400D1*
X535014Y654245D1*
X539930Y646222D1*
X543531Y637529D1*
X545728Y628379D1*
X546466Y618999D1*
X545728Y609618D1*
X543531Y600469D1*
X539930Y591775D1*
X535014Y583752D1*
X528903Y576597D1*
X521748Y570486D1*
X519561Y569025D1*
X525445Y564596D1*
X532099Y557943D1*
X537630Y550330D1*
X541901Y541946D1*
X544809Y532997D1*
X546281Y523703D1*
Y514294D1*
X544809Y505000D1*
X541901Y496051D1*
X537630Y487667D1*
X532099Y480055D1*
X525445Y473401D1*
X517833Y467870D1*
X509449Y463599D1*
X500500Y460691D1*
X491206Y459219D1*
X481797D1*
X472503Y460691D1*
X463554Y463599D1*
X454971Y468003D1*
X455166Y443863D1*
X1230337Y437835D1*
X1230614Y478410D1*
X1225445Y473401D1*
X1217833Y467870D1*
X1209449Y463599D1*
X1200500Y460691D1*
X1191206Y459219D1*
X1181797D1*
X1172503Y460691D1*
X1163554Y463599D1*
X1155170Y467870D1*
X1147557Y473401D1*
X1140904Y480055D1*
X1135373Y487667D1*
X1131101Y496051D1*
X1128194Y505000D1*
X1126722Y514294D1*
Y523703D1*
X1128194Y532997D1*
X1131101Y541946D1*
X1135373Y550330D1*
X1140904Y557943D1*
X1147557Y564596D1*
X1153442Y568972D1*
X1147557Y573401D1*
X1140904Y580055D1*
X1135373Y587667D1*
X1131101Y596051D1*
X1128194Y605000D1*
X1126722Y614294D1*
Y623703D1*
X1128194Y632997D1*
X1131101Y641946D1*
X1135373Y650330D1*
X1140904Y657943D1*
X1147557Y664596D1*
X1153442Y668972D1*
X1147557Y673401D1*
X1140904Y680055D1*
X1135373Y687667D1*
X1131101Y696051D1*
X1128194Y705000D1*
X1126722Y714294D1*
Y723703D1*
X1128194Y732997D1*
X1131101Y741946D1*
X1135373Y750330D1*
X1140904Y757943D1*
X1147557Y764596D1*
X1153442Y768972D1*
X1147557Y773401D1*
X1140904Y780055D1*
X1135373Y787667D1*
X1131101Y796051D1*
X1128194Y805000D1*
X1126722Y814294D1*
Y823703D1*
X1128194Y832997D1*
X1131101Y841946D1*
X1135373Y850330D1*
X1140904Y857943D1*
X1147557Y864596D1*
X1153442Y868972D1*
X1147557Y873401D1*
X1140904Y880055D1*
X1135373Y887667D1*
X1131101Y896051D1*
X1128194Y905000D1*
X1126722Y914294D1*
Y923703D1*
X1128194Y932997D1*
X1131101Y941946D1*
X1135373Y950330D1*
X1140904Y957943D1*
X1147557Y964596D1*
X1153442Y968972D1*
X1147557Y973401D1*
X1140904Y980055D1*
X1135373Y987667D1*
X1131101Y996051D1*
X1128194Y1005000D1*
X1126722Y1014294D1*
Y1023703D1*
X1128194Y1032997D1*
X1131101Y1041946D1*
X1135373Y1050330D1*
X1140904Y1057943D1*
X1147557Y1064596D1*
X1153442Y1068972D1*
X1147557Y1073401D1*
X1140904Y1080055D1*
X1135373Y1087667D1*
X1131101Y1096051D1*
X1128194Y1105000D1*
X1126722Y1114294D1*
Y1123703D1*
X1128194Y1132997D1*
X1131101Y1141946D1*
X1135373Y1150330D1*
X1140904Y1157943D1*
X1141915Y1159037D1*
X1126537Y1159034D1*
Y1278963D1*
X1236156D1*
X1236414Y1325265D1*
X449049Y1325249D1*
X449407Y1278999D1*
X653751Y1207999D2*
X1019251D1*
Y886249D1*
X641251D1*
Y1207999D1*
X653751D1*
D16*
X486501Y1218999D3*
D17*
Y1118999D3*
Y1018999D3*
Y918999D3*
Y818999D3*
Y718999D3*
Y618999D3*
Y518999D3*
D16*
X1186501Y1218999D3*
D17*
Y1118999D3*
Y1018999D3*
Y918999D3*
Y818999D3*
Y718999D3*
Y618999D3*
Y518999D3*
X811751Y1178499D2*
D12*
X847751D1*
X810725Y1175499D2*
X848214D1*
X809832Y1172499D2*
X848958D1*
X809252Y1169499D2*
X849747D1*
X808841Y1166499D2*
X850389D1*
X808185Y1163499D2*
X851191D1*
X748751Y1160499D2*
X757751D1*
X807111D2*
X852355D1*
X901751D2*
X910751D1*
X745287Y1157499D2*
X763285D1*
X803781D2*
X855626D1*
X895751D2*
X913865D1*
X741543Y1154499D2*
X768516D1*
X798768D2*
X860262D1*
X889751D2*
X917238D1*
X737766Y1151499D2*
X773615D1*
X792127D2*
X865751D1*
X883751D2*
X920840D1*
X734239Y1148499D2*
X778751D1*
X784751D2*
X924098D1*
X730944Y1145499D2*
X926742D1*
X727751Y1142499D2*
X927561D1*
X730636Y1139499D2*
X926901D1*
X733252Y1136499D2*
X924973D1*
X735533Y1133499D2*
X922872D1*
X737752Y1130499D2*
X920833D1*
X740111Y1127499D2*
X918813D1*
X742322Y1124499D2*
X916882D1*
X744193Y1121499D2*
X915208D1*
X744777Y1118499D2*
X914688D1*
X744168Y1115499D2*
X915317D1*
X743110Y1112499D2*
X916385D1*
X741780Y1109499D2*
X918058D1*
X739048Y1106499D2*
X818930D1*
X840571D2*
X920406D1*
X732063Y1103499D2*
X812421D1*
X847080D2*
X927071D1*
X723075Y1100499D2*
X807423D1*
X852078D2*
X935712D1*
X714690Y1097499D2*
X803554D1*
X855947D2*
X944043D1*
X708091Y1094499D2*
X800527D1*
X858975D2*
X950871D1*
X705427Y1091499D2*
X798195D1*
X861307D2*
X953829D1*
X704521Y1088499D2*
X796400D1*
X863089D2*
X954861D1*
X704062Y1085499D2*
X795131D1*
X864531D2*
X955389D1*
X703867Y1082499D2*
X794494D1*
X864680D2*
X955615D1*
X703792Y1079499D2*
X794523D1*
X864171D2*
X955702D1*
X703765Y1076499D2*
X795199D1*
X863155D2*
X955734D1*
X703755Y1073499D2*
X796404D1*
X861845D2*
X955745D1*
X703752Y1070499D2*
X798132D1*
X860216D2*
X955749D1*
X703751Y1067499D2*
X800495D1*
X857974D2*
X955751D1*
X717304Y1064499D2*
X803500D1*
X854952D2*
X941838D1*
X727818Y1061499D2*
X806941D1*
X851643D2*
X931355D1*
X735631Y1058499D2*
X810135D1*
X848783D2*
X923682D1*
X738923Y1055499D2*
X812749D1*
X846493D2*
X920485D1*
X741343Y1052499D2*
X813610D1*
X845789D2*
X918118D1*
X743125Y1049499D2*
X813091D1*
X846363D2*
X916360D1*
X744550Y1046499D2*
X812114D1*
X847368D2*
X914948D1*
X744869Y1043499D2*
X810840D1*
X848642D2*
X914631D1*
X743738Y1040499D2*
X809339D1*
X850054D2*
X915763D1*
X741840Y1037499D2*
X807588D1*
X851518D2*
X917662D1*
X739375Y1034499D2*
X805669D1*
X853008D2*
X920114D1*
X736618Y1031499D2*
X803836D1*
X854502D2*
X922766D1*
X733850Y1028499D2*
X802152D1*
X856003D2*
X925163D1*
X731421Y1025499D2*
X800560D1*
X857511D2*
X927148D1*
X729343Y1022499D2*
X799025D1*
X859107D2*
X927715D1*
X731198Y1019499D2*
X797517D1*
X860885D2*
X926956D1*
X733788Y1016499D2*
X796092D1*
X862745D2*
X924769D1*
X736814Y1013499D2*
X776214D1*
X781751D2*
X794840D1*
X864363D2*
X874751D1*
X884340D2*
X921884D1*
X740210Y1010499D2*
X770959D1*
X790751D2*
X793751D1*
X865751D2*
X868751D1*
X888586D2*
X918389D1*
X743974Y1007499D2*
X765743D1*
X893578D2*
X914703D1*
X747880Y1004499D2*
X760314D1*
X899067D2*
X911169D1*
X751751Y1001499D2*
X754751D1*
X904751D2*
X907751D1*
X673751Y980499D2*
X688751D1*
X700751D2*
X718751D1*
X724751D2*
X745751D1*
X754751D2*
X760751D1*
X775751D2*
X781751D1*
X790751D2*
X808751D1*
X820751D2*
X841751D1*
X868751D2*
X892751D1*
X904751D2*
X919751D1*
X934751D2*
X958751D1*
X967751D2*
X985751D1*
X672366Y977499D2*
X691751D1*
X697751D2*
X745751D1*
X754751D2*
X760751D1*
X775739D2*
X781751D1*
X789366D2*
X811162D1*
X821911D2*
X843112D1*
X867366D2*
X892751D1*
X902340D2*
X922161D1*
X933366D2*
X958751D1*
X966366D2*
X985751D1*
X671516Y974499D2*
X679751D1*
X685751D2*
X721161D1*
X725392D2*
X745751D1*
X754751D2*
X760762D1*
X775633D2*
X781751D1*
X788504D2*
X812927D1*
X825440D2*
X829751D1*
X835751D2*
X844067D1*
X866504D2*
X892751D1*
X900312D2*
X910751D1*
X916751D2*
X923916D1*
X932504D2*
X958751D1*
X965504D2*
X985751D1*
X671194Y971499D2*
X673751D1*
X688751D2*
X694751D1*
X715039D2*
X722904D1*
X733505D2*
X745751D1*
X754751D2*
X760877D1*
X775249D2*
X781739D1*
X788068D2*
X793751D1*
X808628D2*
X814000D1*
X829751D2*
X843617D1*
X866068D2*
X871751D1*
X886751D2*
X892751D1*
X899472D2*
X904751D1*
X919751D2*
X924920D1*
X932068D2*
X937751D1*
X949751D2*
X958751D1*
X965068D2*
X970751D1*
X982039D2*
X985751D1*
X671464Y968499D2*
X694751D1*
X716794D2*
X724076D1*
X737240D2*
X745751D1*
X754751D2*
X761340D1*
X774505D2*
X781633D1*
X787887D2*
X793751D1*
X808162D2*
X814751D1*
X820751D2*
X840754D1*
X865875D2*
X871751D1*
X886751D2*
X892751D1*
X899778D2*
X925396D1*
X931887D2*
X937751D1*
X952751D2*
X958751D1*
X964887D2*
X970751D1*
X983794D2*
X985751D1*
X672409Y965499D2*
X694751D1*
X716499D2*
X724109D1*
X738581D2*
X745751D1*
X754751D2*
X762366D1*
X773612D2*
X781228D1*
X787937D2*
X793751D1*
X807136D2*
X834214D1*
X865797D2*
X871751D1*
X886751D2*
X892751D1*
X901982D2*
X925478D1*
X931925D2*
X937751D1*
X951157D2*
X958751D1*
X964937D2*
X970751D1*
X983499D2*
X985739D1*
X673751Y962499D2*
D3*
X685751D2*
X694751D1*
X700751D2*
X703751D1*
X715751D2*
X723059D1*
X739272D2*
X745751D1*
X754751D2*
X763751D1*
X772751D2*
X780280D1*
X788216D2*
X793751D1*
X805751D2*
X826751D1*
X841751D2*
X844751D1*
X865767D2*
X871751D1*
X886751D2*
X892751D1*
X904751D2*
D3*
X916751D2*
X925267D1*
X932395D2*
X937751D1*
X949751D2*
X958751D1*
X965216D2*
X970751D1*
X982751D2*
X985625D1*
X672298Y959499D2*
X720386D1*
X739570D2*
X745751D1*
X754751D2*
X778576D1*
X789713D2*
X847751D1*
X865756D2*
X871751D1*
X886751D2*
X892751D1*
X901563D2*
X923782D1*
X933591D2*
X958751D1*
X966713D2*
X985161D1*
X674263Y956499D2*
X691751D1*
X697751D2*
X716828D1*
X739689D2*
X745751D1*
X754751D2*
X775956D1*
X793004D2*
X811751D1*
X821890D2*
X843344D1*
X865752D2*
X871751D1*
X886751D2*
X892751D1*
X898751D2*
X920495D1*
X935506D2*
X958751D1*
X970004D2*
X984135D1*
X676751Y953499D2*
X685751D1*
X703751D2*
X712751D1*
X739751D2*
X745751D1*
X754751D2*
X772751D1*
X796751D2*
X805751D1*
X829117D2*
X838751D1*
X865751D2*
X871751D1*
X886751D2*
X892751D1*
X907751D2*
X916751D1*
X937751D2*
X946751D1*
X952751D2*
X958751D1*
X973751D2*
X982751D1*
X835011Y950499D2*
X847751D1*
X952751D2*
X958751D1*
X839302Y947499D2*
X847751D1*
X952751D2*
X958751D1*
X840604Y944499D2*
X847751D1*
X952751D2*
X958751D1*
X841310Y941499D2*
X847751D1*
X952751D2*
X958751D1*
X709751Y938499D2*
X724751D1*
X733751D2*
X754751D1*
X766751D2*
X784751D1*
X790751D2*
X796751D1*
X811751D2*
X817751D1*
X829751D2*
X862751D1*
X868751D2*
X892751D1*
X901751D2*
X922751D1*
X943416D2*
X958751D1*
X707340Y935499D2*
X727161D1*
X736631D2*
X754751D1*
X765366D2*
X798146D1*
X810355D2*
X818777D1*
X829285D2*
X835636D1*
X841751D2*
X892751D1*
X900366D2*
X922751D1*
X936260D2*
X958751D1*
X705586Y932499D2*
X715751D1*
X721751D2*
X728916D1*
X740499D2*
X754751D1*
X764504D2*
X772751D1*
X778751D2*
X784751D1*
X793865D2*
X799074D1*
X809427D2*
X819677D1*
X828516D2*
X835240D1*
X841751D2*
X892751D1*
X899504D2*
X907751D1*
X916751D2*
X922751D1*
X933478D2*
X958751D1*
X704578Y929499D2*
X712751D1*
X724751D2*
X729920D1*
X744174D2*
X754751D1*
X764068D2*
X769751D1*
X794261D2*
X799751D1*
X808751D2*
X820292D1*
X827615D2*
X834416D1*
X841751D2*
X847874D1*
X859039D2*
X868751D1*
X883751D2*
X892751D1*
X899068D2*
X904751D1*
X932542D2*
X937751D1*
X949161D2*
X958751D1*
X704067Y926499D2*
X730408D1*
X747007D2*
X754751D1*
X763875D2*
X787751D1*
X795095D2*
X820751D1*
X826751D2*
X833262D1*
X841751D2*
X848340D1*
X860794D2*
X868751D1*
X883751D2*
X892751D1*
X898875D2*
X914087D1*
X932069D2*
X937751D1*
X950916D2*
X958751D1*
X703751Y923499D2*
X730618D1*
X747930D2*
X754751D1*
X763796D2*
X789157D1*
X796336D2*
X811199D1*
X817751D2*
X831992D1*
X841751D2*
X849366D1*
X860499D2*
X868751D1*
X883751D2*
X892751D1*
X898796D2*
X921248D1*
X931869D2*
X937751D1*
X951924D2*
X958751D1*
X724751Y920499D2*
X730705D1*
X748434D2*
X754751D1*
X763766D2*
X769751D1*
X781751D2*
X790751D1*
X797930D2*
X810146D1*
X817751D2*
X830806D1*
X841751D2*
X850751D1*
X859751D2*
X868751D1*
X883751D2*
X892751D1*
X898766D2*
X904751D1*
X919751D2*
X923809D1*
X931791D2*
X937751D1*
X952434D2*
X958751D1*
X706751Y917499D2*
X730751D1*
X748751D2*
X754751D1*
X763751D2*
X787751D1*
X799751D2*
X808751D1*
X817751D2*
X829751D1*
X841751D2*
X868751D1*
X883751D2*
X892751D1*
X898751D2*
X925751D1*
X931751D2*
X937751D1*
X952751D2*
X958751D1*
X811751Y1178499D2*
X810725Y1175499D1*
X809832Y1172499D1*
X809252Y1169499D1*
X808841Y1166499D1*
X808185Y1163499D1*
X807111Y1160499D1*
X803781Y1157499D1*
X798768Y1154499D1*
X792127Y1151499D1*
X784751Y1148499D1*
X847751Y1178499D2*
X848214Y1175499D1*
X848958Y1172499D1*
X849747Y1169499D1*
X850389Y1166499D1*
X851191Y1163499D1*
X852355Y1160499D1*
X855626Y1157499D1*
X860262Y1154499D1*
X865751Y1151499D1*
X748751Y1160499D2*
X745287Y1157499D1*
X741543Y1154499D1*
X737766Y1151499D1*
X734239Y1148499D1*
X730944Y1145499D1*
X727751Y1142499D1*
X730636Y1139499D1*
X733252Y1136499D1*
X735533Y1133499D1*
X737752Y1130499D1*
X740111Y1127499D1*
X742322Y1124499D1*
X744193Y1121499D1*
X744777Y1118499D1*
X744168Y1115499D1*
X743110Y1112499D1*
X741780Y1109499D1*
X739048Y1106499D1*
X732063Y1103499D1*
X723075Y1100499D1*
X714690Y1097499D1*
X708091Y1094499D1*
X705427Y1091499D1*
X704521Y1088499D1*
X704062Y1085499D1*
X703867Y1082499D1*
X703792Y1079499D1*
X703765Y1076499D1*
X703755Y1073499D1*
X703752Y1070499D1*
X703751Y1067499D1*
X717304Y1064499D1*
X727818Y1061499D1*
X735631Y1058499D1*
X738923Y1055499D1*
X741343Y1052499D1*
X743125Y1049499D1*
X744550Y1046499D1*
X744869Y1043499D1*
X743738Y1040499D1*
X741840Y1037499D1*
X739375Y1034499D1*
X736618Y1031499D1*
X733850Y1028499D1*
X731421Y1025499D1*
X729343Y1022499D1*
X731198Y1019499D1*
X733788Y1016499D1*
X736814Y1013499D1*
X740210Y1010499D1*
X743974Y1007499D1*
X747880Y1004499D1*
X751751Y1001499D1*
X757751Y1160499D2*
X763285Y1157499D1*
X768516Y1154499D1*
X773615Y1151499D1*
X778751Y1148499D1*
X901751Y1160499D2*
X895751Y1157499D1*
X889751Y1154499D1*
X883751Y1151499D1*
X910751Y1160499D2*
X913865Y1157499D1*
X917238Y1154499D1*
X920840Y1151499D1*
X924098Y1148499D1*
X926742Y1145499D1*
X927561Y1142499D1*
X926901Y1139499D1*
X924973Y1136499D1*
X922872Y1133499D1*
X920833Y1130499D1*
X918813Y1127499D1*
X916882Y1124499D1*
X915208Y1121499D1*
X914688Y1118499D1*
X915317Y1115499D1*
X916385Y1112499D1*
X918058Y1109499D1*
X920406Y1106499D1*
X927071Y1103499D1*
X935712Y1100499D1*
X944043Y1097499D1*
X950871Y1094499D1*
X953829Y1091499D1*
X954861Y1088499D1*
X955389Y1085499D1*
X955615Y1082499D1*
X955702Y1079499D1*
X955734Y1076499D1*
X955745Y1073499D1*
X955749Y1070499D1*
X955751Y1067499D1*
X941838Y1064499D1*
X931355Y1061499D1*
X923682Y1058499D1*
X920485Y1055499D1*
X918118Y1052499D1*
X916360Y1049499D1*
X914948Y1046499D1*
X914631Y1043499D1*
X915763Y1040499D1*
X917662Y1037499D1*
X920114Y1034499D1*
X922766Y1031499D1*
X925163Y1028499D1*
X927148Y1025499D1*
X927715Y1022499D1*
X926956Y1019499D1*
X924769Y1016499D1*
X921884Y1013499D1*
X918389Y1010499D1*
X914703Y1007499D1*
X911169Y1004499D1*
X907751Y1001499D1*
X826751Y1109499D2*
X818930Y1106499D1*
X812421Y1103499D1*
X807423Y1100499D1*
X803554Y1097499D1*
X800527Y1094499D1*
X798195Y1091499D1*
X796400Y1088499D1*
X795131Y1085499D1*
X794494Y1082499D1*
X794523Y1079499D1*
X795199Y1076499D1*
X796404Y1073499D1*
X798132Y1070499D1*
X800495Y1067499D1*
X803500Y1064499D1*
X806941Y1061499D1*
X810135Y1058499D1*
X812749Y1055499D1*
X813610Y1052499D1*
X813091Y1049499D1*
X812114Y1046499D1*
X810840Y1043499D1*
X809339Y1040499D1*
X807588Y1037499D1*
X805669Y1034499D1*
X803836Y1031499D1*
X802152Y1028499D1*
X800560Y1025499D1*
X799025Y1022499D1*
X797517Y1019499D1*
X796092Y1016499D1*
X794840Y1013499D1*
X793751Y1010499D1*
X832751Y1109499D2*
X840571Y1106499D1*
X847080Y1103499D1*
X852078Y1100499D1*
X855947Y1097499D1*
X858975Y1094499D1*
X861307Y1091499D1*
X863089Y1088499D1*
X864531Y1085499D1*
X864680Y1082499D1*
X864171Y1079499D1*
X863155Y1076499D1*
X861845Y1073499D1*
X860216Y1070499D1*
X857974Y1067499D1*
X854952Y1064499D1*
X851643Y1061499D1*
X848783Y1058499D1*
X846493Y1055499D1*
X845789Y1052499D1*
X846363Y1049499D1*
X847368Y1046499D1*
X848642Y1043499D1*
X850054Y1040499D1*
X851518Y1037499D1*
X853008Y1034499D1*
X854502Y1031499D1*
X856003Y1028499D1*
X857511Y1025499D1*
X859107Y1022499D1*
X860885Y1019499D1*
X862745Y1016499D1*
X864363Y1013499D1*
X865751Y1010499D1*
X781751Y1016499D2*
X776214Y1013499D1*
X770959Y1010499D1*
X765743Y1007499D1*
X760314Y1004499D1*
X754751Y1001499D1*
X772751Y1016499D2*
X781751Y1013499D1*
X790751Y1010499D1*
X880751Y1016499D2*
X874751Y1013499D1*
X868751Y1010499D1*
X880751Y1016499D2*
X884340Y1013499D1*
X888586Y1010499D1*
X893578Y1007499D1*
X899067Y1004499D1*
X904751Y1001499D1*
X673751Y980499D2*
X672366Y977499D1*
X671516Y974499D1*
X671194Y971499D1*
X671464Y968499D1*
X672409Y965499D1*
X673751Y962499D1*
X672298Y959499D1*
X674263Y956499D1*
X676751Y953499D1*
X688751Y980499D2*
X691751Y977499D1*
X700751Y980499D2*
X697751Y977499D1*
X718751Y980499D2*
X724751D2*
X745751D2*
Y977499D1*
Y974499D1*
Y971499D1*
Y968499D1*
Y965499D1*
Y962499D1*
Y959499D1*
Y956499D1*
Y953499D1*
X754751Y980499D2*
Y977499D1*
Y974499D1*
Y971499D1*
Y968499D1*
Y965499D1*
Y962499D1*
Y959499D1*
Y956499D1*
Y953499D1*
X760751Y980499D2*
Y977499D1*
X760762Y974499D1*
X760877Y971499D1*
X761340Y968499D1*
X762366Y965499D1*
X763751Y962499D1*
X775751Y980499D2*
X775739Y977499D1*
X775633Y974499D1*
X775249Y971499D1*
X774505Y968499D1*
X773612Y965499D1*
X772751Y962499D1*
X781751Y980499D2*
Y977499D1*
Y974499D1*
X781739Y971499D1*
X781633Y968499D1*
X781228Y965499D1*
X780280Y962499D1*
X778576Y959499D1*
X775956Y956499D1*
X772751Y953499D1*
X790751Y980499D2*
X789366Y977499D1*
X788504Y974499D1*
X788068Y971499D1*
X787887Y968499D1*
X787937Y965499D1*
X788216Y962499D1*
X789713Y959499D1*
X793004Y956499D1*
X796751Y953499D1*
X808751Y980499D2*
X811162Y977499D1*
X812927Y974499D1*
X814000Y971499D1*
X814751Y968499D1*
X820751Y980499D2*
X821911Y977499D1*
X825440Y974499D1*
X829751Y971499D1*
X820751Y968499D1*
X841751Y980499D2*
X843112Y977499D1*
X844067Y974499D1*
X843617Y971499D1*
X840754Y968499D1*
X834214Y965499D1*
X826751Y962499D1*
X868751Y980499D2*
X867366Y977499D1*
X866504Y974499D1*
X866068Y971499D1*
X865875Y968499D1*
X865797Y965499D1*
X865767Y962499D1*
X865756Y959499D1*
X865752Y956499D1*
X865751Y953499D1*
X892751Y980499D2*
Y977499D1*
Y974499D1*
Y971499D1*
Y968499D1*
Y965499D1*
Y962499D1*
Y959499D1*
Y956499D1*
Y953499D1*
X904751Y980499D2*
X902340Y977499D1*
X900312Y974499D1*
X899472Y971499D1*
X899778Y968499D1*
X901982Y965499D1*
X904751Y962499D1*
X901563Y959499D1*
X898751Y956499D1*
X907751Y953499D1*
X919751Y980499D2*
X922161Y977499D1*
X923916Y974499D1*
X924920Y971499D1*
X925396Y968499D1*
X925478Y965499D1*
X925267Y962499D1*
X923782Y959499D1*
X920495Y956499D1*
X916751Y953499D1*
X934751Y980499D2*
X933366Y977499D1*
X932504Y974499D1*
X932068Y971499D1*
X931887Y968499D1*
X931925Y965499D1*
X932395Y962499D1*
X933591Y959499D1*
X935506Y956499D1*
X937751Y953499D1*
X958751Y980499D2*
Y977499D1*
Y974499D1*
Y971499D1*
Y968499D1*
Y965499D1*
Y962499D1*
Y959499D1*
Y956499D1*
Y953499D1*
Y950499D1*
Y947499D1*
Y944499D1*
Y941499D1*
Y938499D1*
Y935499D1*
Y932499D1*
Y929499D1*
Y926499D1*
Y923499D1*
Y920499D1*
Y917499D1*
X967751Y980499D2*
X966366Y977499D1*
X965504Y974499D1*
X965068Y971499D1*
X964887Y968499D1*
X964937Y965499D1*
X965216Y962499D1*
X966713Y959499D1*
X970004Y956499D1*
X973751Y953499D1*
X985751Y980499D2*
Y977499D1*
Y974499D1*
Y971499D1*
Y968499D1*
X985739Y965499D1*
X985625Y962499D1*
X985161Y959499D1*
X984135Y956499D1*
X982751Y953499D1*
X685751Y977499D2*
X679751Y974499D1*
X673751Y971499D1*
X682751Y977499D2*
X685751Y974499D1*
X688751Y971499D1*
X718751Y977499D2*
X721161Y974499D1*
X722904Y971499D1*
X724076Y968499D1*
X724109Y965499D1*
X723059Y962499D1*
X720386Y959499D1*
X716828Y956499D1*
X712751Y953499D1*
X715751Y977499D2*
X725392Y974499D1*
X733505Y971499D1*
X737240Y968499D1*
X738581Y965499D1*
X739272Y962499D1*
X739570Y959499D1*
X739689Y956499D1*
X739751Y953499D1*
X832751Y977499D2*
X829751Y974499D1*
X832751Y977499D2*
X835751Y974499D1*
X916751Y977499D2*
X910751Y974499D1*
X904751Y971499D1*
X913751Y977499D2*
X916751Y974499D1*
X919751Y971499D1*
X694751Y974499D2*
Y971499D1*
Y968499D1*
Y965499D1*
Y962499D1*
X712751Y974499D2*
X715039Y971499D1*
X716794Y968499D1*
X716499Y965499D1*
X715751Y962499D1*
X793751Y974499D2*
Y971499D1*
Y968499D1*
Y965499D1*
Y962499D1*
X808751Y974499D2*
X808628Y971499D1*
X808162Y968499D1*
X807136Y965499D1*
X805751Y962499D1*
X871751Y974499D2*
Y971499D1*
Y968499D1*
Y965499D1*
Y962499D1*
Y959499D1*
Y956499D1*
Y953499D1*
X886751Y974499D2*
Y971499D1*
Y968499D1*
Y965499D1*
Y962499D1*
Y959499D1*
Y956499D1*
Y953499D1*
X937751Y974499D2*
Y971499D1*
Y968499D1*
Y965499D1*
Y962499D1*
X946751Y974499D2*
X949751Y971499D1*
X952751Y968499D1*
X951157Y965499D1*
X949751Y962499D1*
X970751Y974499D2*
Y971499D1*
Y968499D1*
Y965499D1*
Y962499D1*
X979751Y974499D2*
X982039Y971499D1*
X983794Y968499D1*
X983499Y965499D1*
X982751Y962499D1*
X682751Y965499D2*
X685751Y962499D1*
X700751D2*
X703751D2*
X841751D2*
X844751D2*
X847751Y959499D1*
X843344Y956499D1*
X838751Y953499D1*
X913751Y965499D2*
X916751Y962499D1*
X697751Y959499D2*
X691751Y956499D1*
X685751Y953499D1*
X691751Y959499D2*
X697751Y956499D1*
X703751Y953499D1*
X817751Y959499D2*
X811751Y956499D1*
X805751Y953499D1*
X814751Y959499D2*
X821890Y956499D1*
X829117Y953499D1*
X835011Y950499D1*
X839302Y947499D1*
X840604Y944499D1*
X841310Y941499D1*
X841751Y938499D1*
X829751D1*
X829285Y935499D1*
X828516Y932499D1*
X827615Y929499D1*
X826751Y926499D1*
X949751Y956499D2*
X946751Y953499D1*
X952751Y956499D2*
Y953499D1*
Y950499D1*
Y947499D1*
Y944499D1*
Y941499D1*
X943416Y938499D1*
X936260Y935499D1*
X933478Y932499D1*
X932542Y929499D1*
X932069Y926499D1*
X931869Y923499D1*
X931791Y920499D1*
X931751Y917499D1*
X847751Y950499D2*
Y947499D1*
Y944499D1*
Y941499D1*
X862751Y938499D1*
X709751D2*
X707340Y935499D1*
X705586Y932499D1*
X704578Y929499D1*
X704067Y926499D1*
X703751Y923499D1*
X724751Y920499D1*
X706751Y917499D1*
X724751Y938499D2*
X727161Y935499D1*
X728916Y932499D1*
X729920Y929499D1*
X730408Y926499D1*
X730618Y923499D1*
X730705Y920499D1*
X730751Y917499D1*
X733751Y938499D2*
X736631Y935499D1*
X740499Y932499D1*
X744174Y929499D1*
X747007Y926499D1*
X747930Y923499D1*
X748434Y920499D1*
X748751Y917499D1*
X754751Y938499D2*
Y935499D1*
Y932499D1*
Y929499D1*
Y926499D1*
Y923499D1*
Y920499D1*
Y917499D1*
X766751Y938499D2*
X765366Y935499D1*
X764504Y932499D1*
X764068Y929499D1*
X763875Y926499D1*
X763796Y923499D1*
X763766Y920499D1*
X763751Y917499D1*
X784751Y938499D2*
X790751D2*
X796751D2*
X798146Y935499D1*
X799074Y932499D1*
X799751Y929499D1*
X811751Y938499D2*
X810355Y935499D1*
X809427Y932499D1*
X808751Y929499D1*
X817751Y938499D2*
X818777Y935499D1*
X819677Y932499D1*
X820292Y929499D1*
X820751Y926499D1*
X868751Y938499D2*
X892751D2*
Y935499D1*
Y932499D1*
Y929499D1*
Y926499D1*
Y923499D1*
Y920499D1*
Y917499D1*
X901751Y938499D2*
X900366Y935499D1*
X899504Y932499D1*
X899068Y929499D1*
X898875Y926499D1*
X898796Y923499D1*
X898766Y920499D1*
X898751Y917499D1*
X922751Y938499D2*
Y935499D1*
Y932499D1*
X835751Y938499D2*
X835636Y935499D1*
X835240Y932499D1*
X834416Y929499D1*
X833262Y926499D1*
X831992Y923499D1*
X830806Y920499D1*
X829751Y917499D1*
X841751Y938499D2*
Y935499D1*
Y932499D1*
Y929499D1*
Y926499D1*
Y923499D1*
Y920499D1*
Y917499D1*
X718751Y935499D2*
X715751Y932499D1*
X712751Y929499D1*
X718751Y935499D2*
X721751Y932499D1*
X724751Y929499D1*
X775751Y935499D2*
X772751Y932499D1*
X769751Y929499D1*
X787751Y926499D1*
X789157Y923499D1*
X790751Y920499D1*
X787751Y917499D1*
X775751Y935499D2*
X778751Y932499D1*
X787751Y935499D2*
X784751Y932499D1*
X793751Y935499D2*
X793865Y932499D1*
X794261Y929499D1*
X795095Y926499D1*
X796336Y923499D1*
X797930Y920499D1*
X799751Y917499D1*
X910751Y935499D2*
X907751Y932499D1*
X904751Y929499D1*
X914087Y926499D1*
X921248Y923499D1*
X923809Y920499D1*
X925751Y917499D1*
X913751Y935499D2*
X916751Y932499D1*
X847751D2*
X847874Y929499D1*
X848340Y926499D1*
X849366Y923499D1*
X850751Y920499D1*
X856751Y932499D2*
X859039Y929499D1*
X860794Y926499D1*
X860499Y923499D1*
X859751Y920499D1*
X868751Y932499D2*
Y929499D1*
Y926499D1*
Y923499D1*
Y920499D1*
Y917499D1*
X883751Y932499D2*
Y929499D1*
Y926499D1*
Y923499D1*
Y920499D1*
Y917499D1*
X937751Y932499D2*
Y929499D1*
Y926499D1*
Y923499D1*
Y920499D1*
Y917499D1*
X946751Y932499D2*
X949161Y929499D1*
X950916Y926499D1*
X951924Y923499D1*
X952434Y920499D1*
X952751Y917499D1*
X811751Y926499D2*
X811199Y923499D1*
X810146Y920499D1*
X808751Y917499D1*
X817751Y926499D2*
Y923499D1*
Y920499D1*
Y917499D1*
X772751Y923499D2*
X769751Y920499D1*
X778751Y923499D2*
X781751Y920499D1*
X907751Y923499D2*
X904751Y920499D1*
X916751Y923499D2*
X919751Y920499D1*
M02*
