G04 DipTrace 3.1.0.0*
G04 project.gtl*
%MOIN*%
G04 #@! TF.FileFunction,Copper,L1,Top*
G04 #@! TF.Part,Single*
G04 #@! TA.AperFunction,Conductor*
%ADD11C,0.006*%
%ADD15R,0.051181X0.059055*%
G04 #@! TA.AperFunction,ComponentPad*
%ADD16R,0.066929X0.066929*%
%ADD17C,0.066929*%
%ADD18R,0.070866X0.015748*%
G04 #@! TA.AperFunction,ViaPad*
%ADD19C,0.02*%
%FSLAX26Y26*%
G04*
G70*
G90*
G75*
G01*
G04 Top*
%LPD*%
X948803Y1006500D2*
D11*
X1011500D1*
X874000D2*
Y706499D1*
X849001Y681499D1*
X874001D1*
X805251Y612749D1*
X792751D1*
Y618999D1*
X775774D1*
X774001Y617227D1*
Y668408D2*
X605843D1*
X511501Y762749D1*
X449000D1*
X442751Y768999D1*
Y1075248D1*
X486501Y1118999D1*
D19*
X1011500Y1006500D3*
D15*
X680251Y1031500D3*
X755054D3*
X930251Y1156499D3*
X1005054D3*
X874000Y1006500D3*
X948803D3*
D16*
X486501Y1218999D3*
D17*
Y1118999D3*
Y1018999D3*
Y918999D3*
Y818999D3*
Y718999D3*
Y618999D3*
Y518999D3*
D16*
X1186501Y1218999D3*
D17*
Y1118999D3*
Y1018999D3*
Y918999D3*
Y818999D3*
Y718999D3*
Y618999D3*
Y518999D3*
D15*
X742751Y1243999D3*
X817554D3*
D18*
X774001Y693999D3*
Y668408D3*
Y642818D3*
Y617227D3*
Y591636D3*
Y566046D3*
Y540455D3*
Y514865D3*
X1002356D3*
X1002348Y540455D3*
Y566046D3*
Y591636D3*
Y617227D3*
Y642818D3*
Y668408D3*
Y693999D3*
M02*
