G04 DipTrace 3.1.0.0*
G04 SensorActuatorBreakout.gbl*
%MOIN*%
G04 #@! TF.FileFunction,Copper,L2,Bot*
G04 #@! TF.Part,Single*
G04 #@! TA.AperFunction,Conductor*
%ADD11C,0.006*%
%ADD13C,0.013*%
G04 #@! TA.AperFunction,CopperBalancing*
%ADD16C,0.025*%
G04 #@! TA.AperFunction,ComponentPad*
%ADD31R,0.066929X0.066929*%
%ADD32C,0.066929*%
G04 #@! TA.AperFunction,ViaPad*
%ADD40C,0.03*%
%FSLAX26Y26*%
G04*
G70*
G90*
G75*
G01*
G04 Bottom*
%LPD*%
X1694000Y1019000D2*
D13*
Y1169000D1*
X994000Y1269000D2*
X1219000D1*
X2406500Y969000D2*
Y1169000D1*
X2575251Y1900251D2*
X2544000Y1869000D1*
Y1744000D1*
X1043803Y2194197D2*
D11*
X1069000Y2169000D1*
X1035929Y2069000D2*
Y2085929D1*
X1044000Y2094000D1*
X1069000Y2069000D1*
X544129Y1612751D2*
X556500D1*
X544129Y1562751D2*
X556500D1*
X544129Y1512751D2*
X556500D1*
X543871Y1462622D2*
X550249Y1469000D1*
X943871Y1562622D2*
X956627D1*
X962749Y1556500D1*
X931500Y1785929D2*
X948429D1*
X956500Y1794000D1*
X2350307Y750307D2*
X2344000D1*
Y744000D1*
X2356500Y731500D1*
X2531458Y787709D2*
X2537791D1*
X2544000Y781500D1*
Y775251D1*
X898404Y1106425D2*
X912825D1*
X919000Y1100251D1*
X637749Y2212751D2*
X650249D1*
Y2219000D1*
X1482139Y831500D2*
D13*
X1462751D1*
X1543900Y650350D2*
X1550251Y644000D1*
X2473429Y906500D2*
X2481500D1*
X2650251Y2150251D2*
D11*
X2662751Y2162751D1*
X2675251Y2150251D1*
X2506500Y1989571D2*
X2517180D1*
X2519000Y1987751D1*
X2642180Y1944000D2*
X2650249D1*
X2383322Y2119000D2*
X2387751D1*
X2394000Y2112751D1*
X2323255Y2150066D2*
X2331315D1*
X2319000Y2025249D2*
X2294000D1*
X2337751Y2069000D1*
X2469000Y2256500D2*
X2619000D1*
X2383322Y1944000D2*
X2394000D1*
X2562751Y2044000D2*
X2569000D1*
X2156500Y2019000D2*
X2169000D1*
X2119000Y2231500D2*
X2137749D1*
X2050249Y2212751D2*
X2081500D1*
X1895822Y1956500D2*
X1906500D1*
X1433630Y2154097D2*
X1441597D1*
X1444000Y2156500D1*
X1725073Y2069000D2*
X1731500D1*
X1300151Y2100251D2*
X1319000D1*
X1254678Y2275249D2*
X1262751D1*
X1269000Y2269000D1*
X981491Y450244D2*
Y543990D1*
X1062751Y625249D1*
Y819000D1*
X994000Y887751D1*
X875251D1*
X850251Y912751D1*
Y1012749D1*
Y1058272D1*
X898404Y1106425D1*
X725251Y1012749D2*
X850251D1*
X981491Y450244D2*
X881491D1*
X781491D1*
X681491D1*
X1627071Y950249D2*
X1650249D1*
X825249Y925251D2*
X837751D1*
X844000Y931500D1*
X2121121Y1020436D2*
Y1100251D1*
X812749Y2021946D2*
X916054D1*
X919000Y2019000D1*
X1133322Y2021559D2*
Y1944000D1*
X2100251Y1837751D2*
X2037749D1*
X2009625Y1865875D1*
X2631500Y1060747D2*
X2521003D1*
X2519000Y1062749D1*
X1081500D2*
Y1150249D1*
X781500Y1981500D2*
X875249D1*
X1241539Y1979039D2*
Y1908961D1*
X1244000Y1906500D1*
D40*
X1694000Y1019000D3*
Y1169000D3*
X994000Y1269000D3*
X1219000D3*
X2406500Y969000D3*
Y1169000D3*
X2575251Y1900251D3*
X2544000Y1744000D3*
X1043803Y2194197D3*
X1035929Y2069000D3*
X544129Y1612751D3*
Y1562751D3*
Y1512751D3*
X543871Y1462622D3*
X943871Y1562622D3*
X931500Y1785929D3*
X2350307Y750307D3*
X2531458Y787709D3*
X898404Y1106425D3*
X637749Y2212751D3*
X1482139Y831500D3*
X1543900Y650350D3*
X2473429Y906500D3*
X2650251Y2150251D3*
X2506500Y1989571D3*
X2642180Y1944000D3*
X2383322Y2119000D3*
X2323255Y2150066D3*
X2319000Y2025249D3*
X2469000Y2256500D3*
X2383322Y1944000D3*
X2562751Y2044000D3*
X2156500Y2019000D3*
X2119000Y2231500D3*
X2050249Y2212751D3*
X1895822Y1956500D3*
X1433630Y2154097D3*
X1725073Y2069000D3*
X1300151Y2100251D3*
X1254678Y2275249D3*
X898404Y1106425D3*
X1627071Y950249D3*
X825249Y925251D3*
X2121121Y1100251D3*
Y1020436D3*
X919000Y2019000D3*
X812749Y2021946D3*
X1133322Y1944000D3*
Y2021559D3*
X2100251Y1837751D3*
X2009625Y1865875D3*
X2519000Y1062749D3*
X2631500Y1060747D3*
X1081500Y1150249D3*
Y1062749D3*
X781500Y1981500D3*
X875249D3*
D3*
X1241539Y1979039D3*
X1244000Y1906500D3*
X509122Y2306631D2*
D16*
X731515D1*
X856437D2*
X1950118D1*
X2169767D2*
X2487765D1*
X2612735D2*
X2761202D1*
X490470Y2281762D2*
X731515D1*
X856437D2*
X1950118D1*
X2148917D2*
X2487765D1*
X2612735D2*
X2786056D1*
X471817Y2256894D2*
X2810909D1*
X459000Y2232025D2*
X2829024D1*
X459000Y2207156D2*
X2829024D1*
X459000Y2182287D2*
X2829024D1*
X459000Y2157419D2*
X2829024D1*
X459000Y2132550D2*
X2829024D1*
X459000Y2107681D2*
X2829024D1*
X459000Y2082812D2*
X2829024D1*
X459000Y2057944D2*
X789620D1*
X835880D2*
X902169D1*
X935831D2*
X1110860D1*
X1155802D2*
X2829024D1*
X459000Y2033075D2*
X770284D1*
X960538D2*
X1090938D1*
X1175675D2*
X2829024D1*
X459000Y2008206D2*
X747237D1*
X961563D2*
X1091524D1*
X1175138D2*
X1209493D1*
X1273575D2*
X2829024D1*
X459000Y1983337D2*
X737521D1*
X942716D2*
X1101339D1*
X1165323D2*
X1197774D1*
X1285294D2*
X2829024D1*
X459000Y1958469D2*
X744454D1*
X912296D2*
X1091915D1*
X1174698D2*
X1202999D1*
X1280069D2*
X2829024D1*
X459000Y1933600D2*
X1090646D1*
X1176017D2*
X1209542D1*
X1277921D2*
X2548067D1*
X2602433D2*
X2829024D1*
X459000Y1908731D2*
X1108956D1*
X1157706D2*
X1200069D1*
X1287931D2*
X2532149D1*
X2618351D2*
X2829024D1*
X459000Y1883862D2*
X1206710D1*
X1281290D2*
X1969747D1*
X2049503D2*
X2512032D1*
X2615860D2*
X2829024D1*
X459000Y1858993D2*
X1966183D1*
X2138419D2*
X2508517D1*
X2583146D2*
X2829024D1*
X459000Y1834125D2*
X1980392D1*
X2144083D2*
X2508517D1*
X2579483D2*
X2829024D1*
X459000Y1809256D2*
X2027657D1*
X2132901D2*
X2508517D1*
X2579483D2*
X2829024D1*
X459000Y1784387D2*
X2508517D1*
X2579483D2*
X2829024D1*
X459000Y1759518D2*
X2502999D1*
X2585001D2*
X2829024D1*
X459000Y1734650D2*
X2501046D1*
X2586954D2*
X2829024D1*
X459000Y1709781D2*
X2518038D1*
X2569962D2*
X2829024D1*
X459000Y1684912D2*
X2829024D1*
X459000Y1660043D2*
X2829024D1*
X459000Y1635175D2*
X2829024D1*
X459000Y1610306D2*
X2829024D1*
X459000Y1585437D2*
X2768819D1*
X459000Y1560568D2*
X2768819D1*
X459000Y1535699D2*
X2768819D1*
X459000Y1510831D2*
X2768819D1*
X459000Y1485962D2*
X2768819D1*
X459000Y1461093D2*
X2773604D1*
X459000Y1436224D2*
X2768819D1*
X459000Y1411356D2*
X2774874D1*
X459000Y1386487D2*
X2794015D1*
X459000Y1361618D2*
X2773800D1*
X459000Y1336749D2*
X2768819D1*
X459000Y1311881D2*
X2774630D1*
X459000Y1287012D2*
X954122D1*
X1258878D2*
X2796603D1*
X459000Y1262143D2*
X950558D1*
X1262442D2*
X2829024D1*
X459000Y1237274D2*
X964767D1*
X1248233D2*
X2829024D1*
X459000Y1212406D2*
X2829024D1*
X459000Y1187537D2*
X1060763D1*
X1102237D2*
X1654366D1*
X1733634D2*
X2366866D1*
X2446134D2*
X2829024D1*
X459000Y1162668D2*
X1039425D1*
X1123575D2*
X1650509D1*
X1737491D2*
X2363009D1*
X2449991D2*
X2829024D1*
X459000Y1137799D2*
X1039425D1*
X1123575D2*
X1658517D1*
X1729483D2*
X2100948D1*
X2141300D2*
X2371017D1*
X2441983D2*
X2829024D1*
X459000Y1112930D2*
X1049532D1*
X1113468D2*
X1658517D1*
X1729483D2*
X2079122D1*
X2163126D2*
X2371017D1*
X2441983D2*
X2829024D1*
X459000Y1088062D2*
X1046114D1*
X1116886D2*
X1658517D1*
X1729483D2*
X2078976D1*
X2163272D2*
X2371017D1*
X2441983D2*
X2483614D1*
X2665226D2*
X2829024D1*
X459000Y1063193D2*
X1037521D1*
X1125479D2*
X1658517D1*
X1729483D2*
X2089132D1*
X2153116D2*
X2371017D1*
X2441983D2*
X2475021D1*
X2675431D2*
X2829024D1*
X459000Y1038324D2*
X1045431D1*
X1117569D2*
X1654757D1*
X1733243D2*
X2081173D1*
X2161075D2*
X2371017D1*
X2441983D2*
X2482931D1*
X2668937D2*
X2829024D1*
X459000Y1013455D2*
X1650362D1*
X1737638D2*
X2077706D1*
X2164542D2*
X2371017D1*
X2441983D2*
X2829024D1*
X459000Y988587D2*
X1663253D1*
X1724747D2*
X2092013D1*
X2150235D2*
X2367403D1*
X2445597D2*
X2829024D1*
X543985Y963718D2*
X579024D1*
X1133976D2*
X2362813D1*
X2450187D2*
X2829024D1*
X543985Y938849D2*
X579024D1*
X1133976D2*
X2375460D1*
X2437540D2*
X2829024D1*
X543985Y913980D2*
X579024D1*
X1133976D2*
X2829024D1*
X543985Y889112D2*
X579024D1*
X1133976D2*
X1950118D1*
X2075089D2*
X2829024D1*
X543985Y864243D2*
X579024D1*
X1133976D2*
X1950118D1*
X2075089D2*
X2829024D1*
X459000Y839374D2*
X579024D1*
X1133976D2*
X1950118D1*
X2075089D2*
X2829024D1*
X459000Y814505D2*
X579024D1*
X1133976D2*
X1950118D1*
X2075089D2*
X2829024D1*
X459000Y789636D2*
X579024D1*
X1133976D2*
X2829024D1*
X459000Y764768D2*
X579024D1*
X1133976D2*
X2829024D1*
X459000Y739899D2*
X579024D1*
X1133976D2*
X2829024D1*
X459000Y715030D2*
X579024D1*
X1133976D2*
X2829024D1*
X459000Y690161D2*
X579024D1*
X1133976D2*
X2829024D1*
X459000Y665293D2*
X579024D1*
X1133976D2*
X2829024D1*
X459000Y640424D2*
X579024D1*
X1133976D2*
X2829024D1*
X459000Y615555D2*
X579024D1*
X1133976D2*
X2829024D1*
X459000Y590686D2*
X579024D1*
X1133976D2*
X2829024D1*
X462979Y565818D2*
X579024D1*
X1133976D2*
X2829024D1*
X477921Y540949D2*
X579024D1*
X1133976D2*
X2823604D1*
X492813Y516080D2*
X579024D1*
X1133976D2*
X2318868D1*
X2443790D2*
X2804952D1*
X507755Y491211D2*
X579024D1*
X1133976D2*
X1237716D1*
X2046476D2*
X2318868D1*
X2443790D2*
X2786300D1*
X522647Y466343D2*
X579024D1*
X1133976D2*
X1237716D1*
X2060440D2*
X2318868D1*
X2443790D2*
X2767647D1*
X568595Y441474D2*
X579024D1*
X1252711Y510209D2*
X1360140D1*
Y494925D1*
X1368844Y501372D1*
X1377228Y505644D1*
X1386177Y508552D1*
X1395471Y510024D1*
X1404881D1*
X1414174Y508552D1*
X1423123Y505644D1*
X1431507Y501372D1*
X1439120Y495842D1*
X1445773Y489188D1*
X1450149Y483304D1*
X1454578Y489188D1*
X1461232Y495842D1*
X1468844Y501372D1*
X1477228Y505644D1*
X1486177Y508552D1*
X1495471Y510024D1*
X1504881D1*
X1514174Y508552D1*
X1523123Y505644D1*
X1531507Y501372D1*
X1539120Y495842D1*
X1545773Y489188D1*
X1550149Y483304D1*
X1554578Y489188D1*
X1561232Y495842D1*
X1568844Y501372D1*
X1577228Y505644D1*
X1586177Y508552D1*
X1595471Y510024D1*
X1604881D1*
X1614174Y508552D1*
X1623123Y505644D1*
X1631507Y501372D1*
X1639120Y495842D1*
X1645773Y489188D1*
X1650149Y483304D1*
X1654578Y489188D1*
X1661232Y495842D1*
X1668844Y501372D1*
X1677228Y505644D1*
X1686177Y508552D1*
X1695471Y510024D1*
X1704881D1*
X1714174Y508552D1*
X1723123Y505644D1*
X1731507Y501372D1*
X1739120Y495842D1*
X1745773Y489188D1*
X1750149Y483304D1*
X1754578Y489188D1*
X1761232Y495842D1*
X1768844Y501372D1*
X1777228Y505644D1*
X1786177Y508552D1*
X1795471Y510024D1*
X1804881D1*
X1814174Y508552D1*
X1823123Y505644D1*
X1831507Y501372D1*
X1839120Y495842D1*
X1845773Y489188D1*
X1850149Y483304D1*
X1854578Y489188D1*
X1861232Y495842D1*
X1868844Y501372D1*
X1877228Y505644D1*
X1886177Y508552D1*
X1895471Y510024D1*
X1904881D1*
X1914174Y508552D1*
X1923123Y505644D1*
X1931507Y501372D1*
X1939120Y495842D1*
X1945773Y489188D1*
X1950149Y483304D1*
X1954578Y489188D1*
X1961232Y495842D1*
X1968844Y501372D1*
X1977228Y505644D1*
X1986177Y508552D1*
X1995471Y510024D1*
X2004881D1*
X2014174Y508552D1*
X2023123Y505644D1*
X2031507Y501372D1*
X2039120Y495842D1*
X2045773Y489188D1*
X2051304Y481575D1*
X2055576Y473192D1*
X2058484Y464243D1*
X2059772Y456501D1*
X2321393Y456500D1*
X2321348Y516458D1*
X2441277D1*
Y456448D1*
X2762799Y456500D1*
X2831510Y548180D1*
X2831265Y1277665D1*
X2821885Y1278404D1*
X2812735Y1280600D1*
X2804042Y1284201D1*
X2796019Y1289118D1*
X2788864Y1295229D1*
X2782753Y1302384D1*
X2777836Y1310407D1*
X2774235Y1319100D1*
X2772039Y1328249D1*
X2771301Y1337630D1*
X2772039Y1347010D1*
X2774235Y1356160D1*
X2777836Y1364853D1*
X2782753Y1372876D1*
X2788864Y1380031D1*
X2796019Y1386142D1*
X2798206Y1387603D1*
X2792321Y1392033D1*
X2785668Y1398686D1*
X2780137Y1406299D1*
X2775865Y1414682D1*
X2772957Y1423631D1*
X2771485Y1432925D1*
Y1442335D1*
X2772957Y1451628D1*
X2775865Y1460577D1*
X2780137Y1468961D1*
X2785668Y1476574D1*
X2786679Y1477668D1*
X2771301Y1477665D1*
Y1597594D1*
X2831506D1*
X2831500Y2238873D1*
X2738797Y2331525D1*
X2610260Y2331500D1*
X2610214Y2271535D1*
X2490285D1*
Y2331545D1*
X2172564Y2331500D1*
X2171827Y2321916D1*
X2169631Y2312767D1*
X2166030Y2304073D1*
X2161113Y2296050D1*
X2155002Y2288895D1*
X2147847Y2282784D1*
X2139824Y2277868D1*
X2131131Y2274267D1*
X2121982Y2272070D1*
X2112601Y2271332D1*
X2103221Y2272070D1*
X2094071Y2274267D1*
X2085378Y2277868D1*
X2077355Y2282784D1*
X2072563Y2286710D1*
X2072566Y2271332D1*
X1952637D1*
Y2331537D1*
X853912Y2331500D1*
X853944Y2265083D1*
X734014D1*
Y2331538D1*
X525201Y2331500D1*
X456490Y2239820D1*
X456500Y972662D1*
X541476Y972660D1*
Y852731D1*
X456467D1*
X456500Y572467D1*
X527341Y454394D1*
X581551Y436326D1*
X581538Y969981D1*
X582451Y973784D1*
X584495Y977118D1*
X587469Y979658D1*
X591082Y981155D1*
X594000Y981500D1*
X1120955Y981346D1*
X1124675Y980138D1*
X1127839Y977839D1*
X1130138Y974675D1*
X1131346Y970955D1*
X1131500Y956500D1*
Y456500D1*
X1240240D1*
X1240211Y510209D1*
X1252711D1*
X1965137Y910167D2*
X2072566D1*
Y790237D1*
X1952637D1*
Y910167D1*
X1965137D1*
X1661000Y1044146D2*
Y1143854D1*
X1657023Y1150159D1*
X1654531Y1156176D1*
X1653011Y1162508D1*
X1652500Y1169000D1*
X1653011Y1175492D1*
X1654531Y1181824D1*
X1657023Y1187841D1*
X1660426Y1193393D1*
X1664655Y1198345D1*
X1669607Y1202574D1*
X1675159Y1205977D1*
X1681176Y1208469D1*
X1687508Y1209989D1*
X1694000Y1210500D1*
X1700492Y1209989D1*
X1706824Y1208469D1*
X1712841Y1205977D1*
X1718393Y1202574D1*
X1723345Y1198345D1*
X1727574Y1193393D1*
X1730977Y1187841D1*
X1733469Y1181824D1*
X1734989Y1175492D1*
X1735500Y1169000D1*
X1734989Y1162508D1*
X1733469Y1156176D1*
X1730977Y1150159D1*
X1726983Y1143857D1*
X1727000Y1044146D1*
X1730977Y1037841D1*
X1733469Y1031824D1*
X1734989Y1025492D1*
X1735500Y1019000D1*
X1734989Y1012508D1*
X1733469Y1006176D1*
X1730977Y1000159D1*
X1727574Y994607D1*
X1723345Y989655D1*
X1718393Y985426D1*
X1712841Y982023D1*
X1706824Y979531D1*
X1700492Y978011D1*
X1694000Y977500D1*
X1687508Y978011D1*
X1681176Y979531D1*
X1675159Y982023D1*
X1669607Y985426D1*
X1664655Y989655D1*
X1660426Y994607D1*
X1657023Y1000159D1*
X1654531Y1006176D1*
X1653011Y1012508D1*
X1652500Y1019000D1*
X1653011Y1025492D1*
X1654531Y1031824D1*
X1657023Y1037841D1*
X1661017Y1044143D1*
X1019146Y1302000D2*
X1193854D1*
X1200159Y1305977D1*
X1206176Y1308469D1*
X1212508Y1309989D1*
X1219000Y1310500D1*
X1225492Y1309989D1*
X1231824Y1308469D1*
X1237841Y1305977D1*
X1243393Y1302574D1*
X1248345Y1298345D1*
X1252574Y1293393D1*
X1255977Y1287841D1*
X1258469Y1281824D1*
X1259989Y1275492D1*
X1260500Y1269000D1*
X1259989Y1262508D1*
X1258469Y1256176D1*
X1255977Y1250159D1*
X1252574Y1244607D1*
X1248345Y1239655D1*
X1243393Y1235426D1*
X1237841Y1232023D1*
X1231824Y1229531D1*
X1225492Y1228011D1*
X1219000Y1227500D1*
X1212508Y1228011D1*
X1206176Y1229531D1*
X1200159Y1232023D1*
X1193857Y1236017D1*
X1019146Y1236000D1*
X1012841Y1232023D1*
X1006824Y1229531D1*
X1000492Y1228011D1*
X994000Y1227500D1*
X987508Y1228011D1*
X981176Y1229531D1*
X975159Y1232023D1*
X969607Y1235426D1*
X964655Y1239655D1*
X960426Y1244607D1*
X957023Y1250159D1*
X954531Y1256176D1*
X953011Y1262508D1*
X952500Y1269000D1*
X953011Y1275492D1*
X954531Y1281824D1*
X957023Y1287841D1*
X960426Y1293393D1*
X964655Y1298345D1*
X969607Y1302574D1*
X975159Y1305977D1*
X981176Y1308469D1*
X987508Y1309989D1*
X994000Y1310500D1*
X1000492Y1309989D1*
X1006824Y1308469D1*
X1012841Y1305977D1*
X1019143Y1301983D1*
X2373500Y994146D2*
Y1143854D1*
X2369523Y1150159D1*
X2367031Y1156176D1*
X2365511Y1162508D1*
X2365000Y1169000D1*
X2365511Y1175492D1*
X2367031Y1181824D1*
X2369523Y1187841D1*
X2372926Y1193393D1*
X2377155Y1198345D1*
X2382107Y1202574D1*
X2387659Y1205977D1*
X2393676Y1208469D1*
X2400008Y1209989D1*
X2406500Y1210500D1*
X2412992Y1209989D1*
X2419324Y1208469D1*
X2425341Y1205977D1*
X2430893Y1202574D1*
X2435845Y1198345D1*
X2440074Y1193393D1*
X2443477Y1187841D1*
X2445969Y1181824D1*
X2447489Y1175492D1*
X2448000Y1169000D1*
X2447489Y1162508D1*
X2445969Y1156176D1*
X2443477Y1150159D1*
X2439483Y1143857D1*
X2439500Y994146D1*
X2443477Y987841D1*
X2445969Y981824D1*
X2447489Y975492D1*
X2448000Y969000D1*
X2447489Y962508D1*
X2445969Y956176D1*
X2443477Y950159D1*
X2440074Y944607D1*
X2435845Y939655D1*
X2430893Y935426D1*
X2425341Y932023D1*
X2419324Y929531D1*
X2412992Y928011D1*
X2406500Y927500D1*
X2400008Y928011D1*
X2393676Y929531D1*
X2387659Y932023D1*
X2382107Y935426D1*
X2377155Y939655D1*
X2372926Y944607D1*
X2369523Y950159D1*
X2367031Y956176D1*
X2365511Y962508D1*
X2365000Y969000D1*
X2365511Y975492D1*
X2367031Y981824D1*
X2369523Y987841D1*
X2373517Y994143D1*
X2511013Y1868666D2*
X2511406Y1874162D1*
X2513512Y1881629D1*
X2517302Y1888397D1*
X2520665Y1892335D1*
X2534096Y1905765D1*
X2535782Y1913075D1*
X2538274Y1919091D1*
X2541676Y1924644D1*
X2545906Y1929596D1*
X2550858Y1933825D1*
X2556410Y1937227D1*
X2562426Y1939720D1*
X2568759Y1941240D1*
X2575251Y1941751D1*
X2581743Y1941240D1*
X2588075Y1939720D1*
X2594091Y1937227D1*
X2599644Y1933825D1*
X2604596Y1929596D1*
X2608825Y1924644D1*
X2612227Y1919091D1*
X2614720Y1913075D1*
X2616240Y1906743D1*
X2616751Y1900251D1*
X2616240Y1893759D1*
X2614720Y1887426D1*
X2612227Y1881410D1*
X2608825Y1875858D1*
X2604596Y1870906D1*
X2599644Y1866676D1*
X2594091Y1863274D1*
X2588075Y1860782D1*
X2580795Y1859149D1*
X2577000Y1844000D1*
Y1769146D1*
X2580977Y1762841D1*
X2583469Y1756824D1*
X2584989Y1750492D1*
X2585500Y1744000D1*
X2584989Y1737508D1*
X2583469Y1731176D1*
X2580977Y1725159D1*
X2577574Y1719607D1*
X2573345Y1714655D1*
X2568393Y1710426D1*
X2562841Y1707023D1*
X2556824Y1704531D1*
X2550492Y1703011D1*
X2544000Y1702500D1*
X2537508Y1703011D1*
X2531176Y1704531D1*
X2525159Y1707023D1*
X2519607Y1710426D1*
X2514655Y1714655D1*
X2510426Y1719607D1*
X2507023Y1725159D1*
X2504531Y1731176D1*
X2503011Y1737508D1*
X2502500Y1744000D1*
X2503011Y1750492D1*
X2504531Y1756824D1*
X2507023Y1762841D1*
X2511017Y1769143D1*
X2511102Y1871589D1*
X2512615Y1879198D1*
X2515863Y1886243D1*
X2520665Y1892335D1*
X2520911Y1892561D1*
X2091621Y1049586D2*
Y1071070D1*
X2087547Y1075858D1*
X2084144Y1081410D1*
X2081652Y1087426D1*
X2080132Y1093759D1*
X2079621Y1100251D1*
X2080132Y1106743D1*
X2081652Y1113075D1*
X2084144Y1119091D1*
X2087547Y1124644D1*
X2091776Y1129596D1*
X2096728Y1133825D1*
X2102280Y1137227D1*
X2108297Y1139720D1*
X2114629Y1141240D1*
X2121121Y1141751D1*
X2127613Y1141240D1*
X2133945Y1139720D1*
X2139961Y1137227D1*
X2145514Y1133825D1*
X2150466Y1129596D1*
X2154695Y1124644D1*
X2158098Y1119091D1*
X2160590Y1113075D1*
X2162110Y1106743D1*
X2162621Y1100251D1*
X2162110Y1093759D1*
X2160590Y1087426D1*
X2158098Y1081410D1*
X2154695Y1075858D1*
X2150613Y1071065D1*
X2150621Y1049616D1*
X2154695Y1044829D1*
X2158098Y1039276D1*
X2160590Y1033260D1*
X2162110Y1026928D1*
X2162621Y1020436D1*
X2162110Y1013944D1*
X2160590Y1007611D1*
X2158098Y1001595D1*
X2154695Y996043D1*
X2150466Y991091D1*
X2145514Y986861D1*
X2139961Y983459D1*
X2133945Y980967D1*
X2127613Y979447D1*
X2121121Y978936D1*
X2114629Y979447D1*
X2108297Y980967D1*
X2102280Y983459D1*
X2096728Y986861D1*
X2091776Y991091D1*
X2087547Y996043D1*
X2084144Y1001595D1*
X2081652Y1007611D1*
X2080132Y1013944D1*
X2079621Y1020436D1*
X2080132Y1026928D1*
X2081652Y1033260D1*
X2084144Y1039276D1*
X2087547Y1044829D1*
X2091629Y1049622D1*
X841900Y2051446D2*
X893169D1*
X900159Y2055977D1*
X906176Y2058469D1*
X912508Y2059989D1*
X919000Y2060500D1*
X925492Y2059989D1*
X931824Y2058469D1*
X937841Y2055977D1*
X943393Y2052574D1*
X948345Y2048345D1*
X952574Y2043393D1*
X955977Y2037841D1*
X958469Y2031824D1*
X959989Y2025492D1*
X960500Y2019000D1*
X959989Y2012508D1*
X958469Y2006176D1*
X955977Y2000159D1*
X952574Y1994607D1*
X948345Y1989655D1*
X943393Y1985426D1*
X937841Y1982023D1*
X931824Y1979531D1*
X925492Y1978011D1*
X919000Y1977500D1*
X916571Y1977595D1*
X915603Y1971812D1*
X913590Y1965619D1*
X910634Y1959816D1*
X906806Y1954548D1*
X902201Y1949943D1*
X896933Y1946115D1*
X891131Y1943159D1*
X884937Y1941147D1*
X878505Y1940128D1*
X871993D1*
X865561Y1941147D1*
X859368Y1943159D1*
X853566Y1946115D1*
X848297Y1949943D1*
X846063Y1952008D1*
X810650Y1952000D1*
X805893Y1947926D1*
X800341Y1944523D1*
X794324Y1942031D1*
X787992Y1940511D1*
X781500Y1940000D1*
X775008Y1940511D1*
X768676Y1942031D1*
X762659Y1944523D1*
X757107Y1947926D1*
X752155Y1952155D1*
X747926Y1957107D1*
X744523Y1962659D1*
X742031Y1968676D1*
X740511Y1975008D1*
X740000Y1981500D1*
X740511Y1987992D1*
X742031Y1994324D1*
X744523Y2000341D1*
X747926Y2005893D1*
X752155Y2010845D1*
X757107Y2015074D1*
X762659Y2018477D1*
X768676Y2020969D1*
X771249Y2021946D1*
X771760Y2028438D1*
X773280Y2034770D1*
X775773Y2040787D1*
X779175Y2046339D1*
X783404Y2051291D1*
X788356Y2055520D1*
X793909Y2058923D1*
X799925Y2061415D1*
X806257Y2062935D1*
X812749Y2063446D1*
X819241Y2062935D1*
X825574Y2061415D1*
X831590Y2058923D1*
X837142Y2055520D1*
X841935Y2051438D1*
X1162822Y1992409D2*
Y1973170D1*
X1166896Y1968393D1*
X1170298Y1962841D1*
X1172790Y1956824D1*
X1174311Y1950492D1*
X1174822Y1944000D1*
X1174311Y1937508D1*
X1172790Y1931176D1*
X1170298Y1925159D1*
X1166896Y1919607D1*
X1162666Y1914655D1*
X1157715Y1910426D1*
X1152162Y1907023D1*
X1146146Y1904531D1*
X1139814Y1903011D1*
X1133322Y1902500D1*
X1126829Y1903011D1*
X1120497Y1904531D1*
X1114481Y1907023D1*
X1108928Y1910426D1*
X1103977Y1914655D1*
X1099747Y1919607D1*
X1096345Y1925159D1*
X1093853Y1931176D1*
X1092332Y1937508D1*
X1091822Y1944000D1*
X1092332Y1950492D1*
X1093853Y1956824D1*
X1096345Y1962841D1*
X1099747Y1968393D1*
X1103830Y1973186D1*
X1103821Y1992389D1*
X1099747Y1997166D1*
X1096345Y2002718D1*
X1093853Y2008735D1*
X1092332Y2015067D1*
X1091822Y2021559D1*
X1092332Y2028051D1*
X1093853Y2034383D1*
X1096345Y2040400D1*
X1099747Y2045952D1*
X1103977Y2050904D1*
X1108928Y2055133D1*
X1114481Y2058536D1*
X1120497Y2061028D1*
X1126829Y2062548D1*
X1133322Y2063059D1*
X1139814Y2062548D1*
X1146146Y2061028D1*
X1152162Y2058536D1*
X1157715Y2055133D1*
X1162666Y2050904D1*
X1166896Y2045952D1*
X1170298Y2040400D1*
X1172790Y2034383D1*
X1174311Y2028051D1*
X1174822Y2021559D1*
X1174311Y2015067D1*
X1172790Y2008735D1*
X1170298Y2002718D1*
X1166896Y1997166D1*
X1162813Y1992373D1*
X2071100Y1808251D2*
X2035435Y1808341D1*
X2028633Y1809694D1*
X2022336Y1812598D1*
X2016890Y1816891D1*
X2016662Y1817137D1*
X2009397Y1824383D1*
X2003133Y1824886D1*
X1996800Y1826406D1*
X1990784Y1828899D1*
X1985232Y1832301D1*
X1980280Y1836530D1*
X1976050Y1841482D1*
X1972648Y1847035D1*
X1970156Y1853051D1*
X1968636Y1859383D1*
X1968125Y1865875D1*
X1968636Y1872367D1*
X1970156Y1878700D1*
X1972648Y1884716D1*
X1976050Y1890268D1*
X1980280Y1895220D1*
X1985232Y1899450D1*
X1990784Y1902852D1*
X1996800Y1905344D1*
X2003133Y1906864D1*
X2009625Y1907375D1*
X2016117Y1906864D1*
X2022449Y1905344D1*
X2028465Y1902852D1*
X2034018Y1899450D1*
X2038970Y1895220D1*
X2043199Y1890268D1*
X2046601Y1884716D1*
X2049094Y1878700D1*
X2050614Y1872367D1*
X2051071Y1867236D1*
X2071099Y1867251D1*
X2075858Y1871325D1*
X2081410Y1874727D1*
X2087426Y1877220D1*
X2093759Y1878740D1*
X2100251Y1879251D1*
X2106743Y1878740D1*
X2113075Y1877220D1*
X2119091Y1874727D1*
X2124644Y1871325D1*
X2129596Y1867096D1*
X2133825Y1862144D1*
X2137227Y1856591D1*
X2139720Y1850575D1*
X2141240Y1844243D1*
X2141751Y1837751D1*
X2141240Y1831259D1*
X2139720Y1824926D1*
X2137227Y1818910D1*
X2133825Y1813358D1*
X2129596Y1808406D1*
X2124644Y1804176D1*
X2119091Y1800774D1*
X2113075Y1798282D1*
X2106743Y1796762D1*
X2100251Y1796251D1*
X2093759Y1796762D1*
X2087426Y1798282D1*
X2081410Y1800774D1*
X2075858Y1804176D1*
X2071065Y1808259D1*
X2602350Y1031247D2*
X2545952Y1031192D1*
X2540684Y1027365D1*
X2534881Y1024408D1*
X2528688Y1022396D1*
X2522256Y1021377D1*
X2515744D1*
X2509312Y1022396D1*
X2503119Y1024408D1*
X2497316Y1027365D1*
X2492048Y1031192D1*
X2487443Y1035797D1*
X2483615Y1041066D1*
X2480659Y1046868D1*
X2478647Y1053061D1*
X2477628Y1059493D1*
Y1066005D1*
X2478647Y1072437D1*
X2480659Y1078631D1*
X2483615Y1084433D1*
X2487443Y1089701D1*
X2492048Y1094306D1*
X2497316Y1098134D1*
X2503119Y1101090D1*
X2509312Y1103103D1*
X2515744Y1104121D1*
X2522256D1*
X2528688Y1103103D1*
X2534881Y1101090D1*
X2540684Y1098134D1*
X2545952Y1094306D1*
X2550064Y1090234D1*
X2602301Y1090247D1*
X2607107Y1094321D1*
X2612659Y1097723D1*
X2618676Y1100216D1*
X2625008Y1101736D1*
X2631500Y1102247D1*
X2637992Y1101736D1*
X2644324Y1100216D1*
X2650341Y1097723D1*
X2655893Y1094321D1*
X2660845Y1090092D1*
X2665074Y1085140D1*
X2668477Y1079587D1*
X2670969Y1073571D1*
X2672489Y1067239D1*
X2673000Y1060747D1*
X2672489Y1054255D1*
X2670969Y1047923D1*
X2668477Y1041906D1*
X2665074Y1036354D1*
X2660845Y1031402D1*
X2655893Y1027173D1*
X2650341Y1023770D1*
X2644324Y1021278D1*
X2637992Y1019758D1*
X2631500Y1019247D1*
X2625008Y1019758D1*
X2618676Y1021278D1*
X2612659Y1023770D1*
X2607107Y1027173D1*
X2602314Y1031255D1*
X1052000Y1091900D2*
Y1121099D1*
X1047926Y1125856D1*
X1044523Y1131409D1*
X1042031Y1137425D1*
X1040511Y1143757D1*
X1040000Y1150249D1*
X1040511Y1156741D1*
X1042031Y1163074D1*
X1044523Y1169090D1*
X1047926Y1174642D1*
X1052155Y1179594D1*
X1057107Y1183824D1*
X1062659Y1187226D1*
X1068676Y1189718D1*
X1075008Y1191238D1*
X1081500Y1191749D1*
X1087992Y1191238D1*
X1094324Y1189718D1*
X1100341Y1187226D1*
X1105893Y1183824D1*
X1110845Y1179594D1*
X1115074Y1174642D1*
X1118477Y1169090D1*
X1120969Y1163074D1*
X1122489Y1156741D1*
X1123000Y1150249D1*
X1122489Y1143757D1*
X1120969Y1137425D1*
X1118477Y1131409D1*
X1115074Y1125856D1*
X1110992Y1121063D1*
X1111000Y1091900D1*
X1115074Y1087142D1*
X1118477Y1081590D1*
X1120969Y1075574D1*
X1122489Y1069241D1*
X1123000Y1062749D1*
X1122489Y1056257D1*
X1120969Y1049925D1*
X1118477Y1043909D1*
X1115074Y1038356D1*
X1110845Y1033404D1*
X1105893Y1029175D1*
X1100341Y1025773D1*
X1094324Y1023280D1*
X1087992Y1021760D1*
X1081500Y1021249D1*
X1075008Y1021760D1*
X1068676Y1023280D1*
X1062659Y1025773D1*
X1057107Y1029175D1*
X1052155Y1033404D1*
X1047926Y1038356D1*
X1044523Y1043909D1*
X1042031Y1049925D1*
X1040511Y1056257D1*
X1040000Y1062749D1*
X1040511Y1069241D1*
X1042031Y1075574D1*
X1044523Y1081590D1*
X1047926Y1087142D1*
X1052008Y1091935D1*
X916542Y1977574D2*
X915603Y1971812D1*
X913590Y1965619D1*
X910634Y1959816D1*
X906806Y1954548D1*
X902201Y1949943D1*
X896933Y1946115D1*
X891131Y1943159D1*
X884937Y1941147D1*
X878505Y1940128D1*
X871993D1*
X865561Y1941147D1*
X859368Y1943159D1*
X853566Y1946115D1*
X848297Y1949943D1*
X846063Y1952008D1*
X1271039Y1949889D2*
Y1937975D1*
X1275557Y1933452D1*
X1279385Y1928184D1*
X1282341Y1922381D1*
X1284353Y1916188D1*
X1285372Y1909756D1*
Y1903244D1*
X1284353Y1896812D1*
X1282341Y1890619D1*
X1279385Y1884816D1*
X1275557Y1879548D1*
X1270952Y1874943D1*
X1265684Y1871115D1*
X1259881Y1868159D1*
X1253688Y1866147D1*
X1247256Y1865128D1*
X1240744D1*
X1234312Y1866147D1*
X1228119Y1868159D1*
X1222316Y1871115D1*
X1217048Y1874943D1*
X1212443Y1879548D1*
X1208615Y1884816D1*
X1205659Y1890619D1*
X1203647Y1896812D1*
X1202628Y1903244D1*
Y1909756D1*
X1203647Y1916188D1*
X1205659Y1922381D1*
X1208615Y1928184D1*
X1212057Y1932962D1*
X1212039Y1949830D1*
X1207965Y1954646D1*
X1204563Y1960199D1*
X1202071Y1966215D1*
X1200550Y1972547D1*
X1200039Y1979039D1*
X1200550Y1985531D1*
X1202071Y1991864D1*
X1204563Y1997880D1*
X1207965Y2003432D1*
X1212194Y2008384D1*
X1217146Y2012614D1*
X1222699Y2016016D1*
X1228715Y2018508D1*
X1235047Y2020028D1*
X1241539Y2020539D1*
X1248031Y2020028D1*
X1254364Y2018508D1*
X1260380Y2016016D1*
X1265932Y2012614D1*
X1270884Y2008384D1*
X1275114Y2003432D1*
X1278516Y1997880D1*
X1281008Y1991864D1*
X1282528Y1985531D1*
X1283039Y1979039D1*
X1282528Y1972547D1*
X1281008Y1966215D1*
X1278516Y1960199D1*
X1275114Y1954646D1*
X1271031Y1949853D1*
X833976Y956631D2*
X854024D1*
X833976Y931762D2*
X854024D1*
X634000Y906894D2*
X1079000D1*
X634000Y882025D2*
X1079000D1*
X634000Y857156D2*
X1079000D1*
X634000Y832287D2*
X1079000D1*
X634000Y807419D2*
X1079000D1*
X634000Y782550D2*
X1079000D1*
X634000Y757681D2*
X1079000D1*
X1042228Y732812D2*
X1079000D1*
X1054825Y707944D2*
X1079000D1*
X1055460Y683075D2*
X1079000D1*
X1044620Y658206D2*
X1079000D1*
X634000Y633337D2*
X1079000D1*
X634000Y608469D2*
X1079000D1*
X634000Y583600D2*
X1079000D1*
X634000Y558731D2*
X1079000D1*
X634000Y533862D2*
X1079000D1*
X634000Y508993D2*
X1079000D1*
X634000Y484125D2*
X1079000D1*
X634000Y459256D2*
X1079000D1*
X634000Y434387D2*
X1079000D1*
X646535Y753965D2*
X753965D1*
Y738681D1*
X762669Y745128D1*
X771053Y749400D1*
X780002Y752308D1*
X789295Y753780D1*
X798705D1*
X807998Y752308D1*
X816947Y749400D1*
X825331Y745128D1*
X832944Y739597D1*
X839597Y732944D1*
X843974Y727059D1*
X848403Y732944D1*
X855056Y739597D1*
X862669Y745128D1*
X871053Y749400D1*
X880002Y752308D1*
X889295Y753780D1*
X898705D1*
X907998Y752308D1*
X916947Y749400D1*
X925331Y745128D1*
X932944Y739597D1*
X939597Y732944D1*
X943974Y727059D1*
X948403Y732944D1*
X955056Y739597D1*
X962669Y745128D1*
X971053Y749400D1*
X980002Y752308D1*
X989295Y753780D1*
X998705D1*
X1007998Y752308D1*
X1016947Y749400D1*
X1025331Y745128D1*
X1032944Y739597D1*
X1039597Y732944D1*
X1045128Y725331D1*
X1049400Y716947D1*
X1052308Y707998D1*
X1053780Y698705D1*
Y689295D1*
X1052308Y680002D1*
X1049400Y671053D1*
X1045128Y662669D1*
X1039597Y655056D1*
X1032944Y648403D1*
X1025331Y642872D1*
X1016947Y638600D1*
X1007998Y635692D1*
X998705Y634220D1*
X989295D1*
X980002Y635692D1*
X971053Y638600D1*
X962669Y642872D1*
X955056Y648403D1*
X948403Y655056D1*
X944026Y660941D1*
X939597Y655056D1*
X932944Y648403D1*
X925331Y642872D1*
X916947Y638600D1*
X907998Y635692D1*
X898705Y634220D1*
X889295D1*
X880002Y635692D1*
X871053Y638600D1*
X862669Y642872D1*
X855056Y648403D1*
X848403Y655056D1*
X844026Y660941D1*
X839597Y655056D1*
X832944Y648403D1*
X825331Y642872D1*
X816947Y638600D1*
X807998Y635692D1*
X798705Y634220D1*
X789295D1*
X780002Y635692D1*
X771053Y638600D1*
X762669Y642872D1*
X755056Y648403D1*
X753962Y649414D1*
X753965Y634035D1*
X634035D1*
Y753965D1*
X646535D1*
X631451Y431500D2*
X1081500D1*
Y931500D1*
X867045Y931654D1*
X863325Y932862D1*
X860161Y935161D1*
X857862Y938325D1*
X856654Y942045D1*
X856500Y956500D1*
Y981500D1*
X831500D1*
X831346Y942045D1*
X830138Y938325D1*
X827839Y935161D1*
X824675Y932862D1*
X820955Y931654D1*
X806500Y931500D1*
X631500D1*
Y431451D1*
D31*
X1300176Y450244D3*
D32*
X1400176D3*
X1500176D3*
X1600176D3*
X1700176D3*
X1800176D3*
X1900176D3*
X2000176D3*
D31*
X2381312Y456493D3*
D32*
X2481312D3*
D31*
X2012601Y2331297D3*
D32*
X2112601D3*
X2212601D3*
D31*
X793979Y2325047D3*
D32*
X893979D3*
D31*
X2550249Y2331500D3*
D32*
X2650249D3*
D31*
X694000Y694000D3*
D32*
X794000D3*
X894000D3*
X994000D3*
D31*
X681491Y450244D3*
D32*
X781491D3*
X881491D3*
X981491D3*
D31*
X481512Y912696D3*
D32*
Y1012696D3*
D31*
X2012601Y850202D3*
D32*
Y750202D3*
D31*
X2831265Y1537630D3*
D32*
Y1437630D3*
Y1337630D3*
Y1237630D3*
M02*
