G04 DipTrace 3.1.0.0*
G04 SensorActuatorBreakout.gto*
%MOIN*%
G04 #@! TF.FileFunction,Legend,Top*
G04 #@! TF.Part,Single*
%ADD10C,0.009843*%
%ADD17C,0.001312*%
%ADD18C,0.011817*%
%ADD19O,0.013865X0.014127*%
%ADD24C,0.015395*%
%ADD28C,0.015429*%
%ADD33C,0.015417*%
%ADD36C,0.01178*%
%ADD78C,0.006176*%
%ADD79C,0.004632*%
%ADD80C,0.012351*%
%FSLAX26Y26*%
G04*
G70*
G90*
G75*
G01*
G04 TopSilk*
%LPD*%
X2048141Y2142606D2*
D10*
Y2160333D1*
Y2044184D2*
Y2059944D1*
X2166250Y2142606D2*
Y2160333D1*
Y2042217D2*
Y2059944D1*
D18*
X2067826Y2009740D3*
X2048141Y2044184D2*
D10*
X2050101Y2042217D1*
D19*
X715812Y998781D3*
X784091Y1008007D2*
D10*
X900375D1*
Y877799D1*
X784091D1*
Y1008007D1*
X927640Y2168429D2*
Y2219571D1*
D24*
X2370936Y814622D3*
X2425002Y809360D2*
D10*
Y691252D1*
X2456492Y809360D2*
Y691252D1*
X2425002D2*
X2456492D1*
X2425002Y809360D2*
X2456492D1*
X659320Y1639983D2*
Y1435261D1*
X832517Y1639983D2*
Y1435261D1*
X659320D2*
X832517D1*
X659320Y1639983D2*
X718348D1*
X773490D2*
X832517D1*
X718348D2*
G03X773490Y1639983I27571J15D01*
G01*
X1595092Y873184D2*
Y660585D1*
X1721063Y873184D2*
Y660585D1*
X1595092D2*
X1721063D1*
X1595092Y873184D2*
X1638389D1*
X1677766D2*
X1721063D1*
X1638389D2*
G03X1677766Y873184I19689J23D01*
G01*
D28*
X1297976Y2063401D3*
X1280810Y2159206D2*
D10*
X1162701D1*
X1280810Y2041096D2*
X1162701D1*
X1250212Y500246D2*
X2050139D1*
Y400244D1*
X1250212D1*
Y500246D1*
X2331300Y506498D2*
X2531324D1*
Y406493D1*
X2331300D1*
Y506498D1*
X1962620Y2381302D2*
X2262582D1*
Y2281297D1*
X1962620D1*
Y2381302D1*
X743967Y2375052D2*
X943991D1*
Y2275047D1*
X743967D1*
Y2375052D1*
X2500237Y2381505D2*
X2700261D1*
Y2281500D1*
X2500237D1*
Y2381505D1*
X643982Y744005D2*
X1044018D1*
Y644000D1*
X643982D1*
Y744005D1*
X631473Y500249D2*
X1031508D1*
Y400244D1*
X631473D1*
Y500249D1*
X431507Y862684D2*
X531512D1*
Y1062708D1*
X431507D1*
Y862684D1*
X2062606Y900214D2*
X1962601D1*
Y700190D1*
X2062606D1*
Y900214D1*
X2881270Y1587648D2*
X2781265D1*
Y1187612D1*
X2881270D1*
Y1587648D1*
D33*
X874575Y2238570D3*
X806323Y2208317D2*
D10*
Y2129543D1*
X892937Y2208317D2*
Y2129543D1*
X2566864Y2052820D2*
X2645706D1*
X2566864Y2147322D2*
X2645706D1*
D36*
X2535407Y2131587D3*
X1526722Y2123935D2*
D10*
X1723577D1*
X1526722Y2226312D2*
X1723577D1*
Y2123935D2*
Y2226312D1*
X1526722Y2155429D2*
Y2123935D1*
Y2194818D2*
Y2226312D1*
Y2155429D2*
G03X1526722Y2194818I-9J19694D01*
G01*
G36*
X1400251Y2262751D2*
X1469000D1*
Y2112751D1*
X1400251D1*
Y2262751D1*
G37*
G36*
X1147126Y2303375D2*
X1297126D1*
Y2234626D1*
X1147126D1*
Y2303375D1*
G37*
G36*
X928375Y2228375D2*
X1078375D1*
Y2159626D1*
X928375D1*
Y2228375D1*
G37*
G36*
Y2103375D2*
X1078375D1*
Y2034626D1*
X928375D1*
Y2103375D1*
G37*
G36*
X600249Y2244000D2*
X740875D1*
Y2184626D1*
X600249D1*
Y2244000D1*
G37*
G36*
X900251Y1825251D2*
X969000D1*
Y1675251D1*
X900251D1*
Y1825251D1*
G37*
G36*
X790875Y1140875D2*
X940875D1*
Y1072126D1*
X790875D1*
Y1140875D1*
G37*
G36*
X1584626Y1009626D2*
X1734625D1*
Y940877D1*
X1584626D1*
Y1009626D1*
G37*
G36*
X2365875Y953375D2*
X2512751D1*
Y894000D1*
X2365875D1*
Y953375D1*
G37*
X1344000Y2394000D2*
D17*
X1787751D1*
Y1887751D1*
X1344000D1*
Y2394000D1*
X1087751D2*
X1344000D1*
Y1887751D1*
X1087751D1*
Y2394000D1*
X594000Y2387751D2*
X1087751D1*
Y1887751D1*
X594000D1*
Y2387751D1*
X1787751Y2394000D2*
X2350251D1*
Y1887751D1*
X1787751D1*
Y2394000D1*
X2350251Y2387751D2*
X2894000D1*
Y1887751D1*
X2350251D1*
Y2387751D1*
X2225249Y1075251D2*
X2644000D1*
Y400251D1*
X2225249D1*
Y1075251D1*
X1119000D2*
X2225249D1*
Y400251D1*
X1119000D1*
Y1075251D1*
X394000Y1187751D2*
X1119000D1*
Y394000D1*
X394000D1*
Y1187751D1*
X400251Y1881500D2*
X1187749D1*
Y1412749D1*
X400251D1*
Y1881500D1*
X825249Y1387751D2*
D10*
X995249D1*
Y1307751D1*
X825249D1*
Y1387751D1*
Y1307751D2*
X995249D1*
Y1227751D1*
X825249D1*
Y1307751D1*
X995249Y1387751D2*
X1165249D1*
Y1307751D1*
X995249D1*
Y1387751D1*
Y1307751D2*
X1165249D1*
Y1227751D1*
X995249D1*
Y1307751D1*
X1165249Y1387751D2*
X1335249D1*
Y1307751D1*
X1165249D1*
Y1387751D1*
Y1307751D2*
X1335249D1*
Y1227751D1*
X1165249D1*
Y1307751D1*
X1335249Y1387751D2*
X1505249D1*
Y1307751D1*
X1335249D1*
Y1387751D1*
Y1307751D2*
X1505249D1*
Y1227751D1*
X1335249D1*
Y1307751D1*
X1505249Y1387751D2*
X1675249D1*
Y1307751D1*
X1505249D1*
Y1387751D1*
Y1307751D2*
X1675249D1*
Y1227751D1*
X1505249D1*
Y1307751D1*
X1675249Y1387751D2*
X1845249D1*
Y1307751D1*
X1675249D1*
Y1387751D1*
Y1307751D2*
X1845249D1*
Y1227751D1*
X1675249D1*
Y1307751D1*
X1845249Y1387751D2*
X2015249D1*
Y1307751D1*
X1845249D1*
Y1387751D1*
Y1307751D2*
X2015249D1*
Y1227751D1*
X1845249D1*
Y1307751D1*
X2015249Y1387751D2*
X2185249D1*
Y1307751D1*
X2015249D1*
Y1387751D1*
Y1307751D2*
X2185249D1*
Y1227751D1*
X2015249D1*
Y1307751D1*
X2185249Y1387751D2*
X2355249D1*
Y1307751D1*
X2185249D1*
Y1387751D1*
Y1307751D2*
X2355249D1*
Y1227751D1*
X2185249D1*
Y1307751D1*
X2355249Y1387751D2*
X2525249D1*
Y1307751D1*
X2355249D1*
Y1387751D1*
Y1307751D2*
X2525249D1*
Y1227751D1*
X2355249D1*
Y1307751D1*
X2015139Y2034570D2*
D78*
X1974947Y2019227D1*
X2015138Y2003929D1*
X2001741Y2009677D2*
Y2028822D1*
X1994092Y2069913D2*
X1990245Y2066067D1*
X1988344Y2062220D1*
Y2056516D1*
X1990245Y2052669D1*
X1994092Y2048867D1*
X1999840Y2046921D1*
X2003642D1*
X2009390Y2048867D1*
X2013193Y2052669D1*
X2015139Y2056516D1*
Y2062220D1*
X2013193Y2066067D1*
X2009390Y2069913D1*
X1994092Y2105257D2*
X1990245Y2101410D1*
X1988344Y2097563D1*
Y2091860D1*
X1990245Y2088013D1*
X1994092Y2084210D1*
X1999840Y2082265D1*
X2003642D1*
X2009390Y2084210D1*
X2013193Y2088013D1*
X2015139Y2091860D1*
X2015138Y2097563D1*
X2013193Y2101410D1*
X2009390Y2105257D1*
X1999840Y2117608D2*
Y2140556D1*
X1995993D1*
X1992146Y2138655D1*
X1990245Y2136754D1*
X1988344Y2132907D1*
Y2127159D1*
X1990245Y2123356D1*
X1994092Y2119510D1*
X1999840Y2117608D1*
X2003642D1*
X2009390Y2119510D1*
X2013193Y2123356D1*
X2015138Y2127159D1*
Y2132907D1*
X2013193Y2136754D1*
X2009390Y2140556D1*
X1974947Y2152908D2*
X2015138D1*
X1982640Y2165259D2*
X1980695Y2169106D1*
X1974991Y2174854D1*
X2015138D1*
X797818Y1026393D2*
X782475Y1066585D1*
X767176Y1026393D1*
X772924Y1039790D2*
X792070D1*
X810169Y1066585D2*
Y1026393D1*
X823567D1*
X829315Y1028339D1*
X833161Y1032141D1*
X835063Y1035988D1*
X836964Y1041692D1*
Y1051286D1*
X835063Y1057034D1*
X833161Y1060837D1*
X829315Y1064684D1*
X823567Y1066585D1*
X810169D1*
X878011Y1057034D2*
X876110Y1060837D1*
X872263Y1064684D1*
X868461Y1066585D1*
X860811D1*
X856965Y1064684D1*
X853162Y1060837D1*
X851217Y1057034D1*
X849315Y1051286D1*
Y1041692D1*
X851217Y1035988D1*
X853162Y1032141D1*
X856965Y1028339D1*
X860811Y1026393D1*
X868461D1*
X872263Y1028339D1*
X876110Y1032141D1*
X878011Y1035988D1*
X890363Y1058892D2*
X894209Y1060837D1*
X899957Y1066541D1*
Y1026393D1*
X1932661Y2025213D2*
X1930760Y2029015D1*
X1926913Y2032862D1*
X1923110Y2034764D1*
X1915461D1*
X1911614Y2032862D1*
X1907812Y2029015D1*
X1905866Y2025213D1*
X1903965Y2019465D1*
Y2009870D1*
X1905866Y2004166D1*
X1907812Y2000320D1*
X1911614Y1996517D1*
X1915461Y1994571D1*
X1923110D1*
X1926913Y1996517D1*
X1930760Y2000320D1*
X1932661Y2004166D1*
X1945012Y2027070D2*
X1948859Y2029015D1*
X1954607Y2034719D1*
Y1994571D1*
X2284565Y2218779D2*
X2282664Y2222581D1*
X2278817Y2226428D1*
X2275014Y2228329D1*
X2267365D1*
X2263518Y2226428D1*
X2259716Y2222581D1*
X2257770Y2218779D1*
X2255869Y2213031D1*
Y2203436D1*
X2257770Y2197732D1*
X2259716Y2193885D1*
X2263518Y2190083D1*
X2267365Y2188137D1*
X2275014D1*
X2278817Y2190083D1*
X2282664Y2193885D1*
X2284565Y2197732D1*
X2298862Y2218734D2*
Y2220636D1*
X2300763Y2224482D1*
X2302664Y2226384D1*
X2306511Y2228285D1*
X2314160D1*
X2317963Y2226384D1*
X2319864Y2224482D1*
X2321810Y2220636D1*
Y2216833D1*
X2319864Y2212986D1*
X2316062Y2207282D1*
X2296916Y2188137D1*
X2323711D1*
X2284740Y2100213D2*
X2282838Y2104015D1*
X2278991Y2107862D1*
X2275189Y2109764D1*
X2267540D1*
X2263693Y2107862D1*
X2259890Y2104015D1*
X2257945Y2100213D1*
X2256044Y2094465D1*
Y2084870D1*
X2257945Y2079166D1*
X2259890Y2075320D1*
X2263693Y2071517D1*
X2267540Y2069571D1*
X2275189D1*
X2278991Y2071517D1*
X2282838Y2075320D1*
X2284740Y2079166D1*
X2300938Y2109719D2*
X2321940D1*
X2310488Y2094421D1*
X2316236D1*
X2320039Y2092519D1*
X2321940Y2090618D1*
X2323886Y2084870D1*
Y2081068D1*
X2321940Y2075320D1*
X2318138Y2071473D1*
X2312390Y2069571D1*
X2306641D1*
X2300938Y2071473D1*
X2299036Y2073418D1*
X2297091Y2077221D1*
X992341Y2272555D2*
X990440Y2276358D1*
X986593Y2280205D1*
X982791Y2282106D1*
X975141D1*
X971295Y2280205D1*
X967492Y2276358D1*
X965547Y2272555D1*
X963645Y2266807D1*
Y2257213D1*
X965547Y2251509D1*
X967492Y2247662D1*
X971295Y2243860D1*
X975141Y2241914D1*
X982791D1*
X986593Y2243860D1*
X990440Y2247662D1*
X992341Y2251509D1*
X1023838Y2241914D2*
Y2282062D1*
X1004693Y2255311D1*
X1033389D1*
X997240Y2137713D2*
X995338Y2141515D1*
X991491Y2145362D1*
X987689Y2147264D1*
X980040D1*
X976193Y2145362D1*
X972390Y2141515D1*
X970445Y2137713D1*
X968544Y2131965D1*
Y2122370D1*
X970445Y2116666D1*
X972390Y2112820D1*
X976193Y2109017D1*
X980040Y2107071D1*
X987689D1*
X991491Y2109017D1*
X995338Y2112820D1*
X997240Y2116666D1*
X1032539Y2147219D2*
X1013438D1*
X1011536Y2130019D1*
X1013438Y2131921D1*
X1019186Y2133866D1*
X1024890D1*
X1030638Y2131921D1*
X1034484Y2128118D1*
X1036386Y2122370D1*
Y2118568D1*
X1034484Y2112820D1*
X1030638Y2108973D1*
X1024890Y2107071D1*
X1019186D1*
X1013438Y2108973D1*
X1011536Y2110918D1*
X1009591Y2114721D1*
X860687Y1175138D2*
X858786Y1178941D1*
X854939Y1182787D1*
X851137Y1184689D1*
X843487D1*
X839641Y1182787D1*
X835838Y1178941D1*
X833893Y1175138D1*
X831991Y1169390D1*
Y1159795D1*
X833893Y1154091D1*
X835838Y1150245D1*
X839641Y1146442D1*
X843487Y1144497D1*
X851137D1*
X854939Y1146442D1*
X858786Y1150245D1*
X860687Y1154091D1*
X895987Y1178941D2*
X894085Y1182743D1*
X888337Y1184644D1*
X884535D1*
X878787Y1182743D1*
X874940Y1176995D1*
X873039Y1167445D1*
Y1157894D1*
X874940Y1150245D1*
X878787Y1146398D1*
X884535Y1144497D1*
X886436D1*
X892140Y1146398D1*
X895987Y1150245D1*
X897888Y1155993D1*
Y1157894D1*
X895987Y1163642D1*
X892140Y1167445D1*
X886436Y1169346D1*
X884535D1*
X878787Y1167445D1*
X874940Y1163642D1*
X873039Y1157894D1*
X1364917Y2182337D2*
X1361115Y2180435D1*
X1357268Y2176589D1*
X1355366Y2172786D1*
Y2165137D1*
X1357268Y2161290D1*
X1361114Y2157488D1*
X1364917Y2155542D1*
X1370665Y2153641D1*
X1380260D1*
X1385964Y2155542D1*
X1389810Y2157488D1*
X1393613Y2161290D1*
X1395558Y2165137D1*
Y2172786D1*
X1393613Y2176589D1*
X1389810Y2180435D1*
X1385964Y2182337D1*
X1395558Y2202337D2*
X1355411Y2221483D1*
Y2194688D1*
X862787Y1747262D2*
X858985Y1745360D1*
X855138Y1741514D1*
X853237Y1737711D1*
Y1730062D1*
X855138Y1726215D1*
X858985Y1722413D1*
X862787Y1720467D1*
X868535Y1718566D1*
X878130D1*
X883834Y1720467D1*
X887680Y1722413D1*
X891483Y1726215D1*
X893429Y1730062D1*
Y1737711D1*
X891483Y1741514D1*
X887681Y1745360D1*
X883834Y1747262D1*
X853281Y1769164D2*
X855182Y1763460D1*
X858985Y1761514D1*
X862831D1*
X866634Y1763460D1*
X868579Y1767262D1*
X870481Y1774912D1*
X872382Y1780660D1*
X876229Y1784462D1*
X880031Y1786363D1*
X885779D1*
X889582Y1784462D1*
X891527Y1782561D1*
X893429Y1776813D1*
Y1769164D1*
X891527Y1763460D1*
X889582Y1761514D1*
X885779Y1759613D1*
X880031D1*
X876229Y1761514D1*
X872382Y1765361D1*
X870481Y1771065D1*
X868579Y1778714D1*
X866634Y1782561D1*
X862831Y1784462D1*
X858985D1*
X855182Y1782561D1*
X853281Y1776813D1*
Y1769164D1*
X1216939Y2343962D2*
X1215038Y2347765D1*
X1211191Y2351612D1*
X1207389Y2353513D1*
X1199740D1*
X1195893Y2351612D1*
X1192090Y2347765D1*
X1190145Y2343962D1*
X1188244Y2338214D1*
Y2328619D1*
X1190145Y2322916D1*
X1192090Y2319069D1*
X1195893Y2315266D1*
X1199740Y2313321D1*
X1207389D1*
X1211191Y2315266D1*
X1215038Y2319069D1*
X1216939Y2322916D1*
X1254184Y2340116D2*
X1252239Y2334367D1*
X1248436Y2330521D1*
X1242688Y2328619D1*
X1240787D1*
X1235039Y2330521D1*
X1231236Y2334367D1*
X1229291Y2340116D1*
Y2342017D1*
X1231236Y2347765D1*
X1235039Y2351567D1*
X1240787Y2353469D1*
X1242688D1*
X1248436Y2351567D1*
X1252239Y2347765D1*
X1254184Y2340116D1*
Y2330521D1*
X1252239Y2320970D1*
X1248436Y2315222D1*
X1242688Y2313321D1*
X1238886D1*
X1233138Y2315222D1*
X1231236Y2319069D1*
X2423766Y993964D2*
X2421865Y997766D1*
X2418018Y1001613D1*
X2414216Y1003514D1*
X2406567D1*
X2402720Y1001613D1*
X2398917Y997766D1*
X2396972Y993964D1*
X2395070Y988216D1*
Y978621D1*
X2396972Y972917D1*
X2398917Y969070D1*
X2402720Y965268D1*
X2406567Y963322D1*
X2414216D1*
X2418018Y965268D1*
X2421865Y969070D1*
X2423766Y972917D1*
X2436118Y995821D2*
X2439965Y997766D1*
X2445713Y1003470D1*
Y963322D1*
X2469560Y1003470D2*
X2463812Y1001569D1*
X2459965Y995821D1*
X2458064Y986270D1*
Y980522D1*
X2459965Y970971D1*
X2463812Y965223D1*
X2469560Y963322D1*
X2473363D1*
X2479111Y965223D1*
X2482913Y970971D1*
X2484859Y980522D1*
Y986270D1*
X2482913Y995821D1*
X2479111Y1001569D1*
X2473363Y1003470D1*
X2469560D1*
X2482913Y995821D2*
X2459965Y970971D1*
X1652937Y1050213D2*
X1651036Y1054015D1*
X1647189Y1057862D1*
X1643387Y1059764D1*
X1635737D1*
X1631891Y1057862D1*
X1628088Y1054015D1*
X1626143Y1050213D1*
X1624241Y1044465D1*
Y1034870D1*
X1626143Y1029166D1*
X1628088Y1025320D1*
X1631891Y1021517D1*
X1635737Y1019571D1*
X1643387D1*
X1647189Y1021517D1*
X1651036Y1025320D1*
X1652937Y1029166D1*
X1665289Y1052070D2*
X1669135Y1054015D1*
X1674883Y1059719D1*
Y1019571D1*
X1687235Y1052070D2*
X1691082Y1054015D1*
X1696830Y1059719D1*
Y1019571D1*
X2437787Y2006837D2*
X2433985Y2004936D1*
X2430138Y2001089D1*
X2428237Y1997287D1*
Y1989638D1*
X2430138Y1985791D1*
X2433985Y1981988D1*
X2437787Y1980043D1*
X2443535Y1978141D1*
X2453130D1*
X2458834Y1980043D1*
X2462680Y1981988D1*
X2466483Y1985791D1*
X2468429Y1989637D1*
Y1997287D1*
X2466483Y2001089D1*
X2462681Y2004936D1*
X2458834Y2006837D1*
X2435930Y2019189D2*
X2433985Y2023036D1*
X2428281Y2028784D1*
X2468429Y2028783D1*
X2437831Y2043080D2*
X2435930D1*
X2432083Y2044982D1*
X2430182Y2046883D1*
X2428281Y2050730D1*
Y2058379D1*
X2430182Y2062182D1*
X2432083Y2064083D1*
X2435930Y2066028D1*
X2439733D1*
X2443579Y2064083D1*
X2449283Y2060280D1*
X2468429Y2041135D1*
Y2067930D1*
X2400588Y2012713D2*
X2398687Y2016515D1*
X2394840Y2020362D1*
X2391037Y2022264D1*
X2383388D1*
X2379541Y2020362D1*
X2375739Y2016515D1*
X2373793Y2012713D1*
X2371892Y2006965D1*
Y1997370D1*
X2373793Y1991666D1*
X2375739Y1987820D1*
X2379541Y1984017D1*
X2383388Y1982071D1*
X2391037D1*
X2394840Y1984017D1*
X2398687Y1987820D1*
X2400588Y1991666D1*
X2412939Y2014570D2*
X2416786Y2016515D1*
X2422534Y2022219D1*
Y1982071D1*
X2438732Y2022219D2*
X2459735D1*
X2448283Y2006921D1*
X2454031D1*
X2457833Y2005019D1*
X2459735Y2003118D1*
X2461680Y1997370D1*
Y1993568D1*
X2459735Y1987820D1*
X2455932Y1983973D1*
X2450184Y1982071D1*
X2444436D1*
X2438732Y1983973D1*
X2436831Y1985918D1*
X2434886Y1989721D1*
X2399637Y2187713D2*
X2397736Y2191515D1*
X2393889Y2195362D1*
X2390087Y2197264D1*
X2382437D1*
X2378591Y2195362D1*
X2374788Y2191515D1*
X2372843Y2187713D1*
X2370941Y2181965D1*
Y2172370D1*
X2372843Y2166666D1*
X2374788Y2162820D1*
X2378591Y2159017D1*
X2382437Y2157071D1*
X2390087D1*
X2393889Y2159017D1*
X2397736Y2162820D1*
X2399637Y2166666D1*
X2411989Y2189570D2*
X2415835Y2191515D1*
X2421583Y2197219D1*
Y2157071D1*
X2453080D2*
Y2197219D1*
X2433935Y2170469D1*
X2462631D1*
X2554139Y2244583D2*
X2552238Y2248386D1*
X2548391Y2252232D1*
X2544589Y2254134D1*
X2536939D1*
X2533092Y2252232D1*
X2529290Y2248386D1*
X2527344Y2244583D1*
X2525443Y2238835D1*
Y2229240D1*
X2527344Y2223536D1*
X2529290Y2219690D1*
X2533092Y2215887D1*
X2536939Y2213942D1*
X2544589D1*
X2548391Y2215887D1*
X2552238Y2219690D1*
X2554139Y2223536D1*
X2566491Y2246440D2*
X2570337Y2248386D1*
X2576085Y2254089D1*
Y2213942D1*
X2611385Y2254089D2*
X2592283D1*
X2590382Y2236889D1*
X2592283Y2238791D1*
X2598031Y2240736D1*
X2603735D1*
X2609483Y2238791D1*
X2613330Y2234988D1*
X2615231Y2229240D1*
Y2225438D1*
X2613330Y2219690D1*
X2609483Y2215843D1*
X2603735Y2213942D1*
X2598031D1*
X2592283Y2215843D1*
X2590382Y2217788D1*
X2588437Y2221591D1*
X2593490Y2012713D2*
X2591589Y2016515D1*
X2587742Y2020362D1*
X2583939Y2022264D1*
X2576290D1*
X2572443Y2020362D1*
X2568641Y2016515D1*
X2566695Y2012713D1*
X2564794Y2006965D1*
Y1997370D1*
X2566695Y1991666D1*
X2568641Y1987820D1*
X2572443Y1984017D1*
X2576290Y1982071D1*
X2583939D1*
X2587742Y1984017D1*
X2591589Y1987820D1*
X2593490Y1991666D1*
X2605841Y2014570D2*
X2609688Y2016515D1*
X2615436Y2022219D1*
Y1982071D1*
X2650735Y2016515D2*
X2648834Y2020318D1*
X2643086Y2022219D1*
X2639283D1*
X2633535Y2020318D1*
X2629689Y2014570D1*
X2627787Y2005019D1*
Y1995469D1*
X2629689Y1987820D1*
X2633535Y1983973D1*
X2639283Y1982071D1*
X2641185D1*
X2646889Y1983973D1*
X2650735Y1987820D1*
X2652637Y1993568D1*
Y1995469D1*
X2650735Y2001217D1*
X2646889Y2005019D1*
X2641185Y2006921D1*
X2639283D1*
X2633535Y2005019D1*
X2629689Y2001217D1*
X2627787Y1995469D1*
X2372986Y880901D2*
Y840709D1*
X2386383D1*
X2392131Y842655D1*
X2395978Y846457D1*
X2397880Y850304D1*
X2399781Y856008D1*
Y865603D1*
X2397880Y871351D1*
X2395978Y875153D1*
X2392131Y879000D1*
X2386383Y880901D1*
X2372986D1*
X2442774Y840709D2*
X2427431Y880901D1*
X2412132Y840709D1*
X2417880Y854107D2*
X2437026D1*
X2483821Y871351D2*
X2481920Y875153D1*
X2478073Y879000D1*
X2474270Y880901D1*
X2466621D1*
X2462774Y879000D1*
X2458972Y875153D1*
X2457026Y871351D1*
X2455125Y865603D1*
Y856008D1*
X2457026Y850304D1*
X2458972Y846457D1*
X2462774Y842655D1*
X2466621Y840709D1*
X2474270D1*
X2478073Y842655D1*
X2481920Y846457D1*
X2483821Y850304D1*
X2496172Y873208D2*
X2500019Y875153D1*
X2505767Y880857D1*
Y840709D1*
X646675Y1698561D2*
X621826D1*
Y1658369D1*
X646675D1*
X621826Y1679416D2*
X637125D1*
X683876Y1698561D2*
X659027D1*
Y1658369D1*
X683876D1*
X659027Y1679416D2*
X674325D1*
X696227Y1677515D2*
X713471D1*
X719175Y1679416D1*
X721121Y1681362D1*
X723022Y1685164D1*
Y1690912D1*
X721121Y1694715D1*
X719175Y1696660D1*
X713471Y1698561D1*
X696227D1*
Y1658369D1*
X735373Y1679416D2*
X752573D1*
X758321Y1681362D1*
X760267Y1683263D1*
X762168Y1687065D1*
Y1690912D1*
X760267Y1694715D1*
X758321Y1696660D1*
X752573Y1698561D1*
X735373D1*
Y1658369D1*
X748771Y1679416D2*
X762168Y1658369D1*
X786015Y1698561D2*
X782169Y1696660D1*
X778366Y1692813D1*
X776421Y1689011D1*
X774519Y1683263D1*
Y1673668D1*
X776421Y1667964D1*
X778366Y1664117D1*
X782169Y1660315D1*
X786015Y1658369D1*
X793665D1*
X797467Y1660315D1*
X801314Y1664117D1*
X803215Y1667964D1*
X805116Y1673668D1*
Y1683263D1*
X803215Y1689011D1*
X801314Y1692813D1*
X797467Y1696660D1*
X793665Y1698561D1*
X786015D1*
X848065Y1658369D2*
Y1698561D1*
X832766Y1658369D1*
X817468Y1698561D1*
Y1658369D1*
X860416Y1690868D2*
X864263Y1692813D1*
X870011Y1698517D1*
Y1658369D1*
X1614229Y922212D2*
X1612328Y926015D1*
X1608481Y929862D1*
X1604679Y931763D1*
X1597029D1*
X1593183Y929862D1*
X1589380Y926015D1*
X1587435Y922212D1*
X1585533Y916464D1*
Y906869D1*
X1587435Y901166D1*
X1589380Y897319D1*
X1593183Y893516D1*
X1597029Y891571D1*
X1604679D1*
X1608481Y893516D1*
X1612328Y897319D1*
X1614229Y901166D1*
Y906869D1*
X1604679D1*
X1626581Y910716D2*
X1643825D1*
X1649529Y912617D1*
X1651474Y914563D1*
X1653375Y918366D1*
Y924114D1*
X1651474Y927916D1*
X1649529Y929862D1*
X1643825Y931763D1*
X1626581D1*
Y891571D1*
X1665727Y931763D2*
Y891571D1*
X1689574Y931763D2*
X1685727Y929862D1*
X1681925Y926015D1*
X1679979Y922212D1*
X1678078Y916464D1*
Y906869D1*
X1679979Y901166D1*
X1681925Y897319D1*
X1685727Y893516D1*
X1689574Y891571D1*
X1697223D1*
X1701026Y893516D1*
X1704873Y897319D1*
X1706774Y901166D1*
X1708675Y906869D1*
Y916464D1*
X1706774Y922212D1*
X1704873Y926015D1*
X1701026Y929862D1*
X1697223Y931763D1*
X1689574D1*
X1721027Y924069D2*
X1724873Y926015D1*
X1730622Y931719D1*
Y891571D1*
X1140133Y2217784D2*
Y2177592D1*
X1166928Y2217784D2*
Y2177592D1*
X1140133Y2198639D2*
X1166928D1*
X1179279Y2204387D2*
Y2185242D1*
X1181180Y2179538D1*
X1185027Y2177592D1*
X1190775D1*
X1194578Y2179538D1*
X1200326Y2185242D1*
Y2204387D2*
Y2177592D1*
X1212677Y2204387D2*
Y2177592D1*
Y2196738D2*
X1218425Y2202486D1*
X1222272Y2204387D1*
X1227976D1*
X1231822Y2202486D1*
X1233724Y2196738D1*
Y2177592D1*
Y2196738D2*
X1239472Y2202486D1*
X1243318Y2204387D1*
X1249022D1*
X1252869Y2202486D1*
X1254815Y2196738D1*
Y2177592D1*
X1267166Y2217784D2*
X1269067Y2215883D1*
X1271013Y2217784D1*
X1269067Y2219730D1*
X1267166Y2217784D1*
X1269067Y2204387D2*
Y2177592D1*
X1306312Y2217784D2*
Y2177592D1*
Y2198639D2*
X1302509Y2202486D1*
X1298663Y2204387D1*
X1292915D1*
X1289112Y2202486D1*
X1285265Y2198639D1*
X1283364Y2192891D1*
Y2189089D1*
X1285265Y2183341D1*
X1289112Y2179538D1*
X1292915Y2177592D1*
X1298663D1*
X1302509Y2179538D1*
X1306312Y2183341D1*
X1318663Y2210091D2*
X1322510Y2212036D1*
X1328258Y2217740D1*
Y2177592D1*
X747744Y2101809D2*
X787936D1*
Y2124757D1*
X747744Y2137108D2*
X749646Y2139010D1*
X747744Y2140955D1*
X745799Y2139010D1*
X747744Y2137108D1*
X761142Y2139010D2*
X787936D1*
X763043Y2176254D2*
X793684D1*
X799388Y2174353D1*
X801334Y2172452D1*
X803235Y2168605D1*
Y2162857D1*
X801334Y2159055D1*
X768791Y2176254D2*
X764989Y2172452D1*
X763043Y2168605D1*
Y2162857D1*
X764989Y2159055D1*
X768791Y2155208D1*
X774539Y2153307D1*
X778386D1*
X784090Y2155208D1*
X787936Y2159055D1*
X789838Y2162857D1*
Y2168605D1*
X787936Y2172452D1*
X784090Y2176254D1*
X747744Y2188606D2*
X787936D1*
X768791D2*
X763043Y2194354D1*
X761142Y2198201D1*
Y2203949D1*
X763043Y2207751D1*
X768791Y2209652D1*
X787936D1*
X747744Y2227752D2*
X780287D1*
X785991Y2229653D1*
X787936Y2233500D1*
Y2237302D1*
X761142Y2222004D2*
Y2235401D1*
X755438Y2249654D2*
X753492Y2253501D1*
X747789Y2259249D1*
X787936D1*
X2696723Y2165708D2*
Y2205900D1*
X2681424Y2165708D1*
X2666126Y2205900D1*
Y2165708D1*
X2732022Y2192503D2*
Y2165708D1*
Y2186755D2*
X2728220Y2190601D1*
X2724373Y2192503D1*
X2718669D1*
X2714822Y2190601D1*
X2711020Y2186755D1*
X2709074Y2181007D1*
Y2177204D1*
X2711020Y2171456D1*
X2714822Y2167653D1*
X2718669Y2165708D1*
X2724373D1*
X2728220Y2167653D1*
X2732022Y2171456D1*
X2767322Y2190601D2*
Y2159960D1*
X2765420Y2154256D1*
X2763519Y2152311D1*
X2759672Y2150409D1*
X2753924D1*
X2750122Y2152311D1*
X2767322Y2184853D2*
X2763519Y2188656D1*
X2759672Y2190601D1*
X2753924D1*
X2750122Y2188656D1*
X2746275Y2184853D1*
X2744374Y2179105D1*
Y2175259D1*
X2746275Y2169555D1*
X2750122Y2165708D1*
X2753924Y2163807D1*
X2759672D1*
X2763519Y2165708D1*
X2767322Y2169555D1*
X2779673Y2198206D2*
X2783520Y2200152D1*
X2789268Y2205856D1*
Y2165708D1*
X528093Y2209369D2*
X545293D1*
X551041Y2211314D1*
X552986Y2213216D1*
X554887Y2217018D1*
Y2220865D1*
X552986Y2224667D1*
X551041Y2226613D1*
X545293Y2228514D1*
X528093D1*
Y2188322D1*
X541490Y2209369D2*
X554887Y2188322D1*
X567239Y2220821D2*
X571086Y2222766D1*
X576834Y2228470D1*
Y2188322D1*
X1639948Y1996706D2*
X1657148D1*
X1662896Y1998652D1*
X1664842Y2000553D1*
X1666743Y2004355D1*
Y2008202D1*
X1664842Y2012005D1*
X1662896Y2013950D1*
X1657148Y2015851D1*
X1639948D1*
Y1975659D1*
X1653346Y1996706D2*
X1666743Y1975659D1*
X1681040Y2006257D2*
Y2008158D1*
X1682941Y2012005D1*
X1684842Y2013906D1*
X1688689Y2015807D1*
X1696338D1*
X1700141Y2013906D1*
X1702042Y2012005D1*
X1703988Y2008158D1*
Y2004355D1*
X1702042Y2000509D1*
X1698240Y1994805D1*
X1679094Y1975659D1*
X1705889D1*
X2529780Y1559113D2*
X2546980D1*
X2552728Y1561058D1*
X2554674Y1562960D1*
X2556575Y1566762D1*
Y1570609D1*
X2554674Y1574411D1*
X2552728Y1576357D1*
X2546980Y1578258D1*
X2529780D1*
Y1538066D1*
X2543178Y1559113D2*
X2556575Y1538066D1*
X2572773Y1578214D2*
X2593776D1*
X2582324Y1562915D1*
X2588072D1*
X2591874Y1561014D1*
X2593776Y1559113D1*
X2595721Y1553365D1*
Y1549562D1*
X2593776Y1543814D1*
X2589973Y1539968D1*
X2584225Y1538066D1*
X2578477D1*
X2572773Y1539968D1*
X2570872Y1541913D1*
X2568926Y1545716D1*
X2542668Y1378740D2*
X2559867D1*
X2565615Y1380686D1*
X2567561Y1382587D1*
X2569462Y1386389D1*
Y1390236D1*
X2567561Y1394039D1*
X2565615Y1395984D1*
X2559867Y1397886D1*
X2542668D1*
Y1357694D1*
X2556065Y1378740D2*
X2569462Y1357694D1*
X2600959D2*
Y1397841D1*
X2581814Y1371091D1*
X2610510D1*
X1468144Y2101585D2*
X1508336Y2101584D1*
X1468144Y2088187D2*
Y2114982D1*
X1493037Y2127333D2*
Y2150281D1*
X1489191D1*
X1485344Y2148380D1*
X1483443Y2146479D1*
X1481541Y2142632D1*
Y2136884D1*
X1483443Y2133081D1*
X1487289Y2129234D1*
X1493037Y2127333D1*
X1496840D1*
X1502588Y2129234D1*
X1506391Y2133081D1*
X1508336Y2136884D1*
Y2142632D1*
X1506391Y2146479D1*
X1502588Y2150281D1*
X1481541Y2162632D2*
X1508336D1*
X1489191D2*
X1483443Y2168381D1*
X1481541Y2172227D1*
Y2177931D1*
X1483443Y2181778D1*
X1489191Y2183679D1*
X1508336D1*
X1489191D2*
X1483443Y2189427D1*
X1481541Y2193274D1*
Y2198978D1*
X1483443Y2202824D1*
X1489191Y2204770D1*
X1508336D1*
X1481541Y2217121D2*
X1521733D1*
X1487289D2*
X1483487Y2220968D1*
X1481541Y2224771D1*
Y2230519D1*
X1483487Y2234365D1*
X1487289Y2238168D1*
X1493037Y2240113D1*
X1496884D1*
X1502588Y2238168D1*
X1506435Y2234365D1*
X1508336Y2230519D1*
Y2224771D1*
X1506435Y2220968D1*
X1502588Y2217121D1*
X1475838Y2252465D2*
X1473892Y2256312D1*
X1468188Y2262060D1*
X1508336D1*
X841161Y1364630D2*
D79*
Y1334486D1*
X851209D1*
X855521Y1335945D1*
X858406Y1338797D1*
X859832Y1341682D1*
X861257Y1345960D1*
Y1353156D1*
X859832Y1357467D1*
X858406Y1360319D1*
X855521Y1363204D1*
X851209Y1364630D1*
X841161D1*
X870521Y1345960D2*
X887732D1*
Y1348845D1*
X886306Y1351730D1*
X884880Y1353156D1*
X881995Y1354582D1*
X877684D1*
X874832Y1353156D1*
X871947Y1350271D1*
X870521Y1345960D1*
Y1343108D1*
X871947Y1338797D1*
X874832Y1335945D1*
X877684Y1334486D1*
X881995D1*
X884880Y1335945D1*
X887732Y1338797D1*
X896996Y1354582D2*
X905618Y1334486D1*
X914206Y1354582D1*
X923470Y1364630D2*
X924896Y1363204D1*
X926355Y1364630D1*
X924896Y1366089D1*
X923470Y1364630D1*
X924896Y1354582D2*
Y1334486D1*
X952863Y1350271D2*
X949978Y1353156D1*
X947093Y1354582D1*
X942815D1*
X939930Y1353156D1*
X937078Y1350271D1*
X935619Y1345960D1*
Y1343108D1*
X937078Y1338797D1*
X939930Y1335945D1*
X942815Y1334486D1*
X947093D1*
X949978Y1335945D1*
X952863Y1338797D1*
X962126Y1345960D2*
X979337D1*
Y1348845D1*
X977911Y1351730D1*
X976485Y1353156D1*
X973600Y1354582D1*
X969289D1*
X966437Y1353156D1*
X963552Y1350271D1*
X962126Y1345960D1*
Y1343108D1*
X963552Y1338797D1*
X966437Y1335945D1*
X969289Y1334486D1*
X973600D1*
X976485Y1335945D1*
X979337Y1338797D1*
X884880Y1254486D2*
X873373Y1284630D1*
X861899Y1254486D1*
X866210Y1264534D2*
X880569D1*
X911355Y1284630D2*
Y1254486D1*
Y1270271D2*
X908503Y1273156D1*
X905618Y1274582D1*
X901307D1*
X898455Y1273156D1*
X895570Y1270271D1*
X894144Y1265960D1*
Y1263108D1*
X895570Y1258797D1*
X898455Y1255945D1*
X901307Y1254486D1*
X905618D1*
X908503Y1255945D1*
X911355Y1258797D1*
X937829Y1284630D2*
Y1254486D1*
Y1270271D2*
X934977Y1273156D1*
X932092Y1274582D1*
X927781D1*
X924929Y1273156D1*
X922044Y1270271D1*
X920618Y1265960D1*
Y1263108D1*
X922044Y1258797D1*
X924929Y1255945D1*
X927781Y1254486D1*
X932092D1*
X934977Y1255945D1*
X937829Y1258797D1*
X947093Y1274582D2*
Y1254486D1*
Y1265960D2*
X948552Y1270271D1*
X951404Y1273156D1*
X954289Y1274582D1*
X958600D1*
X1065249Y1334486D2*
Y1364630D1*
X1053775Y1334486D1*
X1042301Y1364630D1*
Y1334486D1*
X1091723Y1354582D2*
Y1334486D1*
Y1350271D2*
X1088871Y1353156D1*
X1085986Y1354582D1*
X1081708D1*
X1078823Y1353156D1*
X1075971Y1350271D1*
X1074512Y1345960D1*
Y1343108D1*
X1075971Y1338797D1*
X1078823Y1335945D1*
X1081708Y1334486D1*
X1085986D1*
X1088871Y1335945D1*
X1091723Y1338797D1*
X1118198Y1353156D2*
Y1330175D1*
X1116772Y1325897D1*
X1115346Y1324438D1*
X1112461Y1323012D1*
X1108150D1*
X1105298Y1324438D1*
X1118198Y1348845D2*
X1115346Y1351697D1*
X1112461Y1353156D1*
X1108150D1*
X1105298Y1351697D1*
X1102413Y1348845D1*
X1100987Y1344534D1*
Y1341649D1*
X1102413Y1337371D1*
X1105298Y1334486D1*
X1108150Y1333060D1*
X1112461D1*
X1115346Y1334486D1*
X1118198Y1337371D1*
X1037669Y1284597D2*
X1033358Y1283171D1*
X1030473Y1278860D1*
X1029047Y1271697D1*
Y1267386D1*
X1030473Y1260223D1*
X1033358Y1255912D1*
X1037669Y1254486D1*
X1040521D1*
X1044832Y1255912D1*
X1047684Y1260223D1*
X1049143Y1267386D1*
Y1271697D1*
X1047684Y1278860D1*
X1044832Y1283171D1*
X1040521Y1284597D1*
X1037669D1*
X1047684Y1278860D2*
X1030473Y1260223D1*
X1058407Y1274582D2*
X1074192Y1254486D1*
Y1274582D2*
X1058407Y1254486D1*
X1092077Y1284597D2*
X1087766Y1283171D1*
X1084881Y1278860D1*
X1083455Y1271697D1*
Y1267386D1*
X1084881Y1260223D1*
X1087766Y1255912D1*
X1092077Y1254486D1*
X1094929D1*
X1099240Y1255912D1*
X1102092Y1260223D1*
X1103551Y1267386D1*
Y1271697D1*
X1102092Y1278860D1*
X1099240Y1283171D1*
X1094929Y1284597D1*
X1092077D1*
X1102092Y1278860D2*
X1084881Y1260223D1*
X1131452Y1284630D2*
X1112815D1*
Y1254486D1*
X1131452D1*
X1112815Y1270271D2*
X1124289D1*
X1217363Y1334486D2*
X1205856Y1364630D1*
X1194382Y1334486D1*
X1198693Y1344534D2*
X1213052D1*
X1243871Y1350271D2*
X1240986Y1353156D1*
X1238101Y1354582D1*
X1233823D1*
X1230938Y1353156D1*
X1228086Y1350271D1*
X1226627Y1345960D1*
Y1343108D1*
X1228086Y1338797D1*
X1230938Y1335945D1*
X1233823Y1334486D1*
X1238101D1*
X1240986Y1335945D1*
X1243871Y1338797D1*
X1270379Y1350271D2*
X1267493Y1353156D1*
X1264608Y1354582D1*
X1260331D1*
X1257445Y1353156D1*
X1254594Y1350271D1*
X1253134Y1345960D1*
Y1343108D1*
X1254594Y1338797D1*
X1257445Y1335945D1*
X1260331Y1334486D1*
X1264608D1*
X1267493Y1335945D1*
X1270379Y1338797D1*
X1279642Y1345960D2*
X1296853D1*
Y1348845D1*
X1295427Y1351730D1*
X1294001Y1353156D1*
X1291116Y1354582D1*
X1286805D1*
X1283953Y1353156D1*
X1281068Y1350271D1*
X1279642Y1345960D1*
Y1343108D1*
X1281068Y1338797D1*
X1283953Y1335945D1*
X1286805Y1334486D1*
X1291116D1*
X1294001Y1335945D1*
X1296853Y1338797D1*
X1306117Y1364630D2*
Y1334486D1*
X1213390Y1284597D2*
X1209079Y1283171D1*
X1206193Y1278860D1*
X1204767Y1271697D1*
Y1267386D1*
X1206193Y1260223D1*
X1209079Y1255912D1*
X1213390Y1254486D1*
X1216241D1*
X1220552Y1255912D1*
X1223404Y1260223D1*
X1224863Y1267386D1*
Y1271697D1*
X1223404Y1278860D1*
X1220552Y1283171D1*
X1216241Y1284597D1*
X1213390D1*
X1223404Y1278860D2*
X1206193Y1260223D1*
X1234127Y1274582D2*
X1249912Y1254486D1*
Y1274582D2*
X1234127Y1254486D1*
X1259176Y1278860D2*
X1262061Y1280319D1*
X1266372Y1284597D1*
Y1254486D1*
X1275635Y1284630D2*
Y1254486D1*
X1285683D1*
X1289994Y1255945D1*
X1292879Y1258797D1*
X1294305Y1261682D1*
X1295731Y1265960D1*
Y1273156D1*
X1294305Y1277467D1*
X1292879Y1280319D1*
X1289994Y1283204D1*
X1285683Y1284630D1*
X1275635D1*
X1373325Y1364630D2*
Y1334486D1*
X1363277Y1364630D2*
X1383373D1*
X1392636Y1345960D2*
X1409847D1*
Y1348845D1*
X1408421Y1351730D1*
X1406996Y1353156D1*
X1404110Y1354582D1*
X1399799D1*
X1396948Y1353156D1*
X1394062Y1350271D1*
X1392636Y1345960D1*
Y1343108D1*
X1394062Y1338797D1*
X1396948Y1335945D1*
X1399799Y1334486D1*
X1404110D1*
X1406996Y1335945D1*
X1409847Y1338797D1*
X1419111Y1354582D2*
Y1334486D1*
Y1348845D2*
X1423422Y1353156D1*
X1426307Y1354582D1*
X1430585D1*
X1433470Y1353156D1*
X1434896Y1348845D1*
Y1334486D1*
Y1348845D2*
X1439207Y1353156D1*
X1442092Y1354582D1*
X1446370D1*
X1449255Y1353156D1*
X1450714Y1348845D1*
Y1334486D1*
X1459978Y1354582D2*
Y1324438D1*
Y1350271D2*
X1462863Y1353123D1*
X1465715Y1354582D1*
X1470026D1*
X1472911Y1353123D1*
X1475763Y1350271D1*
X1477222Y1345960D1*
Y1343075D1*
X1475763Y1338797D1*
X1472911Y1335912D1*
X1470026Y1334486D1*
X1465715D1*
X1462863Y1335912D1*
X1459978Y1338797D1*
X1376940Y1284597D2*
X1372629Y1283171D1*
X1369743Y1278860D1*
X1368318Y1271697D1*
Y1267386D1*
X1369743Y1260223D1*
X1372629Y1255912D1*
X1376940Y1254486D1*
X1379791D1*
X1384103Y1255912D1*
X1386954Y1260223D1*
X1388414Y1267386D1*
Y1271697D1*
X1386954Y1278860D1*
X1384103Y1283171D1*
X1379791Y1284597D1*
X1376940D1*
X1386954Y1278860D2*
X1369743Y1260223D1*
X1397677Y1274582D2*
X1413462Y1254486D1*
Y1274582D2*
X1397677Y1254486D1*
X1437085D2*
Y1284597D1*
X1422726Y1264534D1*
X1444248D1*
X1472181Y1284630D2*
X1453511D1*
Y1254486D1*
Y1270271D2*
X1464985D1*
X1527932Y1364630D2*
Y1334486D1*
X1548028Y1364630D2*
Y1334486D1*
X1527932Y1350271D2*
X1548028D1*
X1557292Y1354582D2*
Y1340223D1*
X1558718Y1335945D1*
X1561603Y1334486D1*
X1565914D1*
X1568766Y1335945D1*
X1573077Y1340223D1*
Y1354582D2*
Y1334486D1*
X1582340Y1354582D2*
Y1334486D1*
Y1348845D2*
X1586651Y1353156D1*
X1589536Y1354582D1*
X1593814D1*
X1596699Y1353156D1*
X1598125Y1348845D1*
Y1334486D1*
Y1348845D2*
X1602436Y1353156D1*
X1605321Y1354582D1*
X1609599D1*
X1612484Y1353156D1*
X1613943Y1348845D1*
Y1334486D1*
X1623207Y1364630D2*
X1624633Y1363204D1*
X1626092Y1364630D1*
X1624633Y1366089D1*
X1623207Y1364630D1*
X1624633Y1354582D2*
Y1334486D1*
X1652566Y1364630D2*
Y1334486D1*
Y1350271D2*
X1649715Y1353156D1*
X1646830Y1354582D1*
X1642518D1*
X1639667Y1353156D1*
X1636782Y1350271D1*
X1635356Y1345960D1*
Y1343108D1*
X1636782Y1338797D1*
X1639667Y1335945D1*
X1642518Y1334486D1*
X1646830D1*
X1649715Y1335945D1*
X1652566Y1338797D1*
X1546227Y1284597D2*
X1541916Y1283171D1*
X1539031Y1278860D1*
X1537605Y1271697D1*
Y1267386D1*
X1539031Y1260223D1*
X1541916Y1255912D1*
X1546227Y1254486D1*
X1549079D1*
X1553390Y1255912D1*
X1556241Y1260223D1*
X1557701Y1267386D1*
Y1271697D1*
X1556241Y1278860D1*
X1553390Y1283171D1*
X1549079Y1284597D1*
X1546227D1*
X1556241Y1278860D2*
X1539031Y1260223D1*
X1566964Y1274582D2*
X1582749Y1254486D1*
Y1274582D2*
X1566964Y1254486D1*
X1606372D2*
Y1284597D1*
X1592013Y1264534D1*
X1613535D1*
X1631420Y1284597D2*
X1627109Y1283171D1*
X1624224Y1278860D1*
X1622798Y1271697D1*
Y1267386D1*
X1624224Y1260223D1*
X1627109Y1255912D1*
X1631420Y1254486D1*
X1634272D1*
X1638583Y1255912D1*
X1641435Y1260223D1*
X1642894Y1267386D1*
Y1271697D1*
X1641435Y1278860D1*
X1638583Y1283171D1*
X1634272Y1284597D1*
X1631420D1*
X1641435Y1278860D2*
X1624224Y1260223D1*
X1709439Y1364630D2*
Y1334486D1*
X1726650D1*
X1735914Y1364630D2*
X1737340Y1363204D1*
X1738799Y1364630D1*
X1737340Y1366089D1*
X1735914Y1364630D1*
X1737340Y1354582D2*
Y1334486D1*
X1765273Y1353156D2*
Y1330175D1*
X1763847Y1325897D1*
X1762421Y1324438D1*
X1759536Y1323012D1*
X1755225D1*
X1752373Y1324438D1*
X1765273Y1348845D2*
X1762421Y1351697D1*
X1759536Y1353156D1*
X1755225D1*
X1752373Y1351697D1*
X1749488Y1348845D1*
X1748062Y1344534D1*
Y1341649D1*
X1749488Y1337371D1*
X1752373Y1334486D1*
X1755225Y1333060D1*
X1759536D1*
X1762421Y1334486D1*
X1765273Y1337371D1*
X1774537Y1364630D2*
Y1334486D1*
Y1348845D2*
X1778848Y1353156D1*
X1781733Y1354582D1*
X1786044D1*
X1788896Y1353156D1*
X1790322Y1348845D1*
Y1334486D1*
X1803896Y1364630D2*
Y1340223D1*
X1805322Y1335945D1*
X1808207Y1334486D1*
X1811059D1*
X1799585Y1354582D2*
X1809633D1*
X1715514Y1284597D2*
X1711203Y1283171D1*
X1708318Y1278860D1*
X1706892Y1271697D1*
Y1267386D1*
X1708318Y1260223D1*
X1711203Y1255912D1*
X1715514Y1254486D1*
X1718366D1*
X1722677Y1255912D1*
X1725528Y1260223D1*
X1726988Y1267386D1*
Y1271697D1*
X1725528Y1278860D1*
X1722677Y1283171D1*
X1718366Y1284597D1*
X1715514D1*
X1725528Y1278860D2*
X1708318Y1260223D1*
X1736251Y1274582D2*
X1752036Y1254486D1*
Y1274582D2*
X1736251Y1254486D1*
X1775659D2*
Y1284597D1*
X1761300Y1264534D1*
X1782822D1*
X1806444Y1254486D2*
Y1284597D1*
X1792085Y1264534D1*
X1813607D1*
X1877997Y1364630D2*
X1859360D1*
Y1334486D1*
X1877997D1*
X1859360Y1350271D2*
X1870834D1*
X1887260Y1348845D2*
X1900193D1*
X1904471Y1350271D1*
X1905930Y1351730D1*
X1907356Y1354582D1*
Y1358893D1*
X1905930Y1361745D1*
X1904471Y1363204D1*
X1900193Y1364630D1*
X1887260D1*
Y1334486D1*
X1916620Y1350271D2*
X1929520D1*
X1933831Y1351730D1*
X1935290Y1353156D1*
X1936716Y1356008D1*
Y1358893D1*
X1935290Y1361745D1*
X1933831Y1363204D1*
X1929520Y1364630D1*
X1916620D1*
Y1334486D1*
X1926668Y1350271D2*
X1936716Y1334486D1*
X1954601Y1364630D2*
X1951716Y1363204D1*
X1948864Y1360319D1*
X1947405Y1357467D1*
X1945979Y1353156D1*
Y1345960D1*
X1947405Y1341682D1*
X1948864Y1338797D1*
X1951716Y1335945D1*
X1954601Y1334486D1*
X1960338D1*
X1963190Y1335945D1*
X1966075Y1338797D1*
X1967501Y1341682D1*
X1968927Y1345960D1*
Y1353156D1*
X1967501Y1357467D1*
X1966075Y1360319D1*
X1963190Y1363204D1*
X1960338Y1364630D1*
X1954601D1*
X2001139Y1334486D2*
Y1364630D1*
X1989665Y1334486D1*
X1978191Y1364630D1*
Y1334486D1*
X1886940Y1284597D2*
X1882629Y1283171D1*
X1879743Y1278860D1*
X1878318Y1271697D1*
Y1267386D1*
X1879743Y1260223D1*
X1882629Y1255912D1*
X1886940Y1254486D1*
X1889791D1*
X1894103Y1255912D1*
X1896954Y1260223D1*
X1898414Y1267386D1*
Y1271697D1*
X1896954Y1278860D1*
X1894103Y1283171D1*
X1889791Y1284597D1*
X1886940D1*
X1896954Y1278860D2*
X1879743Y1260223D1*
X1907677Y1274582D2*
X1923462Y1254486D1*
Y1274582D2*
X1907677Y1254486D1*
X1949937Y1284597D2*
X1935611D1*
X1934185Y1271697D1*
X1935611Y1273123D1*
X1939922Y1274582D1*
X1944200D1*
X1948511Y1273123D1*
X1951396Y1270271D1*
X1952822Y1265960D1*
Y1263108D1*
X1951396Y1258797D1*
X1948511Y1255912D1*
X1944200Y1254486D1*
X1939922D1*
X1935611Y1255912D1*
X1934185Y1257371D1*
X1932726Y1260223D1*
X1970707Y1284597D2*
X1966396Y1283171D1*
X1963511Y1278860D1*
X1962085Y1271697D1*
Y1267386D1*
X1963511Y1260223D1*
X1966396Y1255912D1*
X1970707Y1254486D1*
X1973559D1*
X1977870Y1255912D1*
X1980722Y1260223D1*
X1982181Y1267386D1*
Y1271697D1*
X1980722Y1278860D1*
X1977870Y1283171D1*
X1973559Y1284597D1*
X1970707D1*
X1980722Y1278860D2*
X1963511Y1260223D1*
X2081667Y1334486D2*
X2070160Y1364630D1*
X2058686Y1334486D1*
X2062997Y1344534D2*
X2077356D1*
X2090931Y1364630D2*
Y1334486D1*
X2100979D1*
X2105290Y1335945D1*
X2108175Y1338797D1*
X2109601Y1341682D1*
X2111027Y1345960D1*
Y1353156D1*
X2109601Y1357467D1*
X2108175Y1360319D1*
X2105290Y1363204D1*
X2100979Y1364630D1*
X2090931D1*
X2141812Y1357467D2*
X2140386Y1360319D1*
X2137501Y1363204D1*
X2134649Y1364630D1*
X2128912D1*
X2126027Y1363204D1*
X2123176Y1360319D1*
X2121716Y1357467D1*
X2120290Y1353156D1*
Y1345960D1*
X2121716Y1341682D1*
X2123176Y1338797D1*
X2126027Y1335945D1*
X2128912Y1334486D1*
X2134649D1*
X2137501Y1335945D1*
X2140386Y1338797D1*
X2141812Y1341682D1*
X2056940Y1284597D2*
X2052629Y1283171D1*
X2049743Y1278860D1*
X2048318Y1271697D1*
Y1267386D1*
X2049743Y1260223D1*
X2052629Y1255912D1*
X2056940Y1254486D1*
X2059791D1*
X2064103Y1255912D1*
X2066954Y1260223D1*
X2068414Y1267386D1*
Y1271697D1*
X2066954Y1278860D1*
X2064103Y1283171D1*
X2059791Y1284597D1*
X2056940D1*
X2066954Y1278860D2*
X2049743Y1260223D1*
X2077677Y1274582D2*
X2093462Y1254486D1*
Y1274582D2*
X2077677Y1254486D1*
X2117085D2*
Y1284597D1*
X2102726Y1264534D1*
X2124248D1*
X2152181Y1274582D2*
X2150722Y1270271D1*
X2147870Y1267386D1*
X2143559Y1265960D1*
X2142133D1*
X2137822Y1267386D1*
X2134970Y1270271D1*
X2133511Y1274582D1*
Y1276008D1*
X2134970Y1280319D1*
X2137822Y1283171D1*
X2142133Y1284597D1*
X2143559D1*
X2147870Y1283171D1*
X2150722Y1280319D1*
X2152181Y1274582D1*
Y1267386D1*
X2150722Y1260223D1*
X2147870Y1255912D1*
X2143559Y1254486D1*
X2140707D1*
X2136396Y1255912D1*
X2134970Y1258797D1*
X2245593Y1357467D2*
X2244167Y1360319D1*
X2241282Y1363204D1*
X2238430Y1364630D1*
X2232693D1*
X2229808Y1363204D1*
X2226956Y1360319D1*
X2225497Y1357467D1*
X2224071Y1353156D1*
Y1345960D1*
X2225497Y1341682D1*
X2226956Y1338797D1*
X2229808Y1335945D1*
X2232693Y1334486D1*
X2238430D1*
X2241282Y1335945D1*
X2244167Y1338797D1*
X2245593Y1341682D1*
Y1345960D1*
X2238430D1*
X2254857Y1348845D2*
X2267790D1*
X2272068Y1350271D1*
X2273527Y1351730D1*
X2274953Y1354582D1*
Y1358893D1*
X2273527Y1361745D1*
X2272068Y1363204D1*
X2267790Y1364630D1*
X2254857D1*
Y1334486D1*
X2284216Y1364630D2*
Y1334486D1*
X2302102Y1364630D2*
X2299217Y1363204D1*
X2296365Y1360319D1*
X2294906Y1357467D1*
X2293480Y1353156D1*
Y1345960D1*
X2294906Y1341682D1*
X2296365Y1338797D1*
X2299217Y1335945D1*
X2302102Y1334486D1*
X2307839D1*
X2310691Y1335945D1*
X2313576Y1338797D1*
X2315002Y1341682D1*
X2316428Y1345960D1*
Y1353156D1*
X2315002Y1357467D1*
X2313576Y1360319D1*
X2310691Y1363204D1*
X2307839Y1364630D1*
X2302102D1*
X2226940Y1284597D2*
X2222629Y1283171D1*
X2219743Y1278860D1*
X2218318Y1271697D1*
Y1267386D1*
X2219743Y1260223D1*
X2222629Y1255912D1*
X2226940Y1254486D1*
X2229791D1*
X2234103Y1255912D1*
X2236954Y1260223D1*
X2238414Y1267386D1*
Y1271697D1*
X2236954Y1278860D1*
X2234103Y1283171D1*
X2229791Y1284597D1*
X2226940D1*
X2236954Y1278860D2*
X2219743Y1260223D1*
X2247677Y1274582D2*
X2263462Y1254486D1*
Y1274582D2*
X2247677Y1254486D1*
X2274185Y1277434D2*
Y1278860D1*
X2275611Y1281745D1*
X2277037Y1283171D1*
X2279922Y1284597D1*
X2285659D1*
X2288511Y1283171D1*
X2289937Y1281745D1*
X2291396Y1278860D1*
Y1276008D1*
X2289937Y1273123D1*
X2287085Y1268845D1*
X2272726Y1254486D1*
X2292822D1*
X2310707Y1284597D2*
X2306396Y1283171D1*
X2303511Y1278860D1*
X2302085Y1271697D1*
Y1267386D1*
X2303511Y1260223D1*
X2306396Y1255912D1*
X2310707Y1254486D1*
X2313559D1*
X2317870Y1255912D1*
X2320722Y1260223D1*
X2322181Y1267386D1*
Y1271697D1*
X2320722Y1278860D1*
X2317870Y1283171D1*
X2313559Y1284597D1*
X2310707D1*
X2320722Y1278860D2*
X2303511Y1260223D1*
X2398686Y1364630D2*
Y1334486D1*
X2408734D1*
X2413045Y1335945D1*
X2415930Y1338797D1*
X2417356Y1341682D1*
X2418782Y1345960D1*
Y1353156D1*
X2417356Y1357467D1*
X2415930Y1360319D1*
X2413045Y1363204D1*
X2408734Y1364630D1*
X2398686D1*
X2451027Y1334486D2*
X2439520Y1364630D1*
X2428046Y1334486D1*
X2432357Y1344534D2*
X2446716D1*
X2481812Y1357467D2*
X2480386Y1360319D1*
X2477501Y1363204D1*
X2474649Y1364630D1*
X2468912D1*
X2466027Y1363204D1*
X2463176Y1360319D1*
X2461716Y1357467D1*
X2460290Y1353156D1*
Y1345960D1*
X2461716Y1341682D1*
X2463176Y1338797D1*
X2466027Y1335945D1*
X2468912Y1334486D1*
X2474649D1*
X2477501Y1335945D1*
X2480386Y1338797D1*
X2481812Y1341682D1*
X2395514Y1284597D2*
X2391203Y1283171D1*
X2388318Y1278860D1*
X2386892Y1271697D1*
Y1267386D1*
X2388318Y1260223D1*
X2391203Y1255912D1*
X2395514Y1254486D1*
X2398366D1*
X2402677Y1255912D1*
X2405528Y1260223D1*
X2406988Y1267386D1*
Y1271697D1*
X2405528Y1278860D1*
X2402677Y1283171D1*
X2398366Y1284597D1*
X2395514D1*
X2405528Y1278860D2*
X2388318Y1260223D1*
X2416251Y1274582D2*
X2432036Y1254486D1*
Y1274582D2*
X2416251Y1254486D1*
X2455659D2*
Y1284597D1*
X2441300Y1264534D1*
X2462822D1*
X2493607Y1277467D2*
X2492181Y1280319D1*
X2489296Y1283204D1*
X2486444Y1284630D1*
X2480707D1*
X2477822Y1283204D1*
X2474970Y1280319D1*
X2473511Y1277467D1*
X2472085Y1273156D1*
Y1265960D1*
X2473511Y1261682D1*
X2474970Y1258797D1*
X2477822Y1255945D1*
X2480707Y1254486D1*
X2486444D1*
X2489296Y1255945D1*
X2492181Y1258797D1*
X2493607Y1261682D1*
X632272Y2338999D2*
D78*
Y2298807D1*
X671418Y2338999D2*
Y2298807D1*
X644623Y2338999D1*
Y2298807D1*
X697166Y2338999D2*
Y2298807D1*
X683769Y2338999D2*
X710564D1*
X998468Y2335699D2*
X996566Y2339501D1*
X992719Y2343348D1*
X988917Y2345249D1*
X981268D1*
X977421Y2343348D1*
X973618Y2339501D1*
X971673Y2335699D1*
X969772Y2329951D1*
Y2320356D1*
X971673Y2314652D1*
X973618Y2310805D1*
X977421Y2307003D1*
X981268Y2305057D1*
X988917D1*
X992719Y2307003D1*
X996566Y2310805D1*
X998468Y2314652D1*
Y2320356D1*
X988917D1*
X1037614Y2345249D2*
Y2305057D1*
X1010819Y2345249D1*
Y2305057D1*
X1049965Y2345249D2*
Y2305057D1*
X1063362D1*
X1069110Y2307003D1*
X1072957Y2310805D1*
X1074858Y2314652D1*
X1076760Y2320356D1*
Y2329951D1*
X1074858Y2335699D1*
X1072957Y2339501D1*
X1069110Y2343348D1*
X1063362Y2345249D1*
X1049965D1*
X1826022Y2351499D2*
Y2311307D1*
X1865168Y2351499D2*
Y2311307D1*
X1838374Y2351499D1*
Y2311307D1*
X1890917Y2351499D2*
Y2311307D1*
X1877520Y2351499D2*
X1904314D1*
X1916666Y2343805D2*
X1920513Y2345751D1*
X1926261Y2351454D1*
Y2311307D1*
X2057273Y2270249D2*
Y2230057D1*
X2096419Y2270249D2*
Y2230057D1*
X2069624Y2270249D1*
Y2230057D1*
X2122168Y2270249D2*
Y2230057D1*
X2108770Y2270249D2*
X2135565D1*
X2149862Y2260655D2*
Y2262556D1*
X2151763Y2266403D1*
X2153664Y2268304D1*
X2157511Y2270205D1*
X2165161D1*
X2168963Y2268304D1*
X2170864Y2266403D1*
X2172810Y2262556D1*
Y2258753D1*
X2170864Y2254906D1*
X2167062Y2249203D1*
X2147916Y2230057D1*
X2174711D1*
X2298468Y2285699D2*
X2296566Y2289501D1*
X2292719Y2293348D1*
X2288917Y2295249D1*
X2281268D1*
X2277421Y2293348D1*
X2273618Y2289501D1*
X2271673Y2285699D1*
X2269772Y2279951D1*
Y2270356D1*
X2271673Y2264652D1*
X2273618Y2260805D1*
X2277421Y2257003D1*
X2281268Y2255057D1*
X2288917D1*
X2292719Y2257003D1*
X2296566Y2260805D1*
X2298468Y2264652D1*
Y2270356D1*
X2288917D1*
X2337614Y2295249D2*
Y2255057D1*
X2310819Y2295249D1*
Y2255057D1*
X2349965Y2295249D2*
Y2255057D1*
X2363362D1*
X2369110Y2257003D1*
X2372957Y2260805D1*
X2374858Y2264652D1*
X2376760Y2270356D1*
Y2279951D1*
X2374858Y2285699D1*
X2372957Y2289501D1*
X2369110Y2293348D1*
X2363362Y2295249D1*
X2349965D1*
X2401022Y2370249D2*
Y2330057D1*
X2440168Y2370249D2*
Y2330057D1*
X2413374Y2370249D1*
Y2330057D1*
X2465917Y2370249D2*
Y2330057D1*
X2452520Y2370249D2*
X2479314D1*
X2748468Y2310699D2*
X2746566Y2314501D1*
X2742719Y2318348D1*
X2738917Y2320249D1*
X2731268D1*
X2727421Y2318348D1*
X2723618Y2314501D1*
X2721673Y2310699D1*
X2719772Y2304951D1*
Y2295356D1*
X2721673Y2289652D1*
X2723618Y2285805D1*
X2727421Y2282003D1*
X2731268Y2280057D1*
X2738917D1*
X2742719Y2282003D1*
X2746566Y2285805D1*
X2748468Y2289652D1*
Y2295356D1*
X2738917D1*
X2787614Y2320249D2*
Y2280057D1*
X2760819Y2320249D1*
Y2280057D1*
X2799965Y2320249D2*
Y2280057D1*
X2813362D1*
X2819110Y2282003D1*
X2822957Y2285805D1*
X2824858Y2289652D1*
X2826760Y2295356D1*
Y2304951D1*
X2824858Y2310699D1*
X2822957Y2314501D1*
X2819110Y2318348D1*
X2813362Y2320249D1*
X2799965D1*
X2642369Y1557704D2*
X2663371D1*
X2651920Y1542405D1*
X2657668D1*
X2661470Y1540504D1*
X2663371Y1538603D1*
X2665317Y1532855D1*
Y1529052D1*
X2663371Y1523304D1*
X2659569Y1519457D1*
X2653821Y1517556D1*
X2648073D1*
X2642369Y1519457D1*
X2640468Y1521403D1*
X2638522Y1525205D1*
X2679570Y1521403D2*
X2677668Y1519457D1*
X2679570Y1517556D1*
X2681515Y1519457D1*
X2679570Y1521403D1*
X2697713Y1557704D2*
X2718716D1*
X2707264Y1542405D1*
X2713012D1*
X2716814Y1540504D1*
X2718716Y1538603D1*
X2720661Y1532855D1*
Y1529052D1*
X2718716Y1523304D1*
X2714913Y1519457D1*
X2709165Y1517556D1*
X2703417D1*
X2697713Y1519457D1*
X2695812Y1521403D1*
X2693866Y1525205D1*
X2733013Y1557748D2*
X2748311Y1517556D1*
X2763610Y1557748D1*
X2677817Y1452000D2*
X2674014Y1455847D1*
X2668266Y1457748D1*
X2660617D1*
X2654869Y1455847D1*
X2651022Y1452000D1*
Y1448197D1*
X2652968Y1444351D1*
X2654869Y1442449D1*
X2658672Y1440548D1*
X2670168Y1436701D1*
X2674014Y1434800D1*
X2675916Y1432855D1*
X2677817Y1429052D1*
Y1423304D1*
X2674014Y1419501D1*
X2668266Y1417556D1*
X2660617D1*
X2654869Y1419501D1*
X2651022Y1423304D1*
X2718864Y1448197D2*
X2716963Y1452000D1*
X2713116Y1455847D1*
X2709314Y1457748D1*
X2701664D1*
X2697818Y1455847D1*
X2694015Y1452000D1*
X2692070Y1448197D1*
X2690168Y1442449D1*
Y1432855D1*
X2692070Y1427151D1*
X2694015Y1423304D1*
X2697818Y1419501D1*
X2701664Y1417556D1*
X2709314D1*
X2713116Y1419501D1*
X2716963Y1423304D1*
X2718864Y1427151D1*
X2731216Y1457748D2*
Y1417556D1*
X2754164D1*
X2685970Y1216948D2*
X2684069Y1220751D1*
X2680222Y1224597D1*
X2676420Y1226499D1*
X2668770D1*
X2664924Y1224597D1*
X2661121Y1220751D1*
X2659175Y1216948D1*
X2657274Y1211200D1*
Y1201605D1*
X2659175Y1195901D1*
X2661121Y1192055D1*
X2664924Y1188252D1*
X2668770Y1186307D1*
X2676420D1*
X2680222Y1188252D1*
X2684069Y1192055D1*
X2685970Y1195901D1*
Y1201605D1*
X2676420D1*
X2725116Y1226499D2*
Y1186307D1*
X2698322Y1226499D1*
Y1186307D1*
X2737468Y1226499D2*
Y1186307D1*
X2750865D1*
X2756613Y1188252D1*
X2760460Y1192055D1*
X2762361Y1195901D1*
X2764262Y1201605D1*
Y1211200D1*
X2762361Y1216948D1*
X2760460Y1220751D1*
X2756613Y1224597D1*
X2750865Y1226499D1*
X2737468D1*
X2690317Y1364500D2*
X2686514Y1368347D1*
X2680766Y1370248D1*
X2673117D1*
X2667369Y1368347D1*
X2663522Y1364500D1*
Y1360697D1*
X2665468Y1356851D1*
X2667369Y1354949D1*
X2671172Y1353048D1*
X2682668Y1349201D1*
X2686514Y1347300D1*
X2688416Y1345355D1*
X2690317Y1341552D1*
Y1335804D1*
X2686514Y1332001D1*
X2680766Y1330056D1*
X2673117D1*
X2667369Y1332001D1*
X2663522Y1335804D1*
X2702668Y1370248D2*
Y1330056D1*
X2716066D1*
X2721814Y1332001D1*
X2725660Y1335804D1*
X2727562Y1339651D1*
X2729463Y1345355D1*
Y1354949D1*
X2727562Y1360697D1*
X2725660Y1364500D1*
X2721814Y1368347D1*
X2716066Y1370248D1*
X2702668D1*
X2772456Y1330056D2*
X2757113Y1370248D1*
X2741814Y1330056D1*
X2747562Y1343453D2*
X2766708D1*
X563521Y926499D2*
Y886307D1*
X602667Y926499D2*
Y886307D1*
X575872Y926499D1*
Y886307D1*
X628416Y926499D2*
Y886307D1*
X615018Y926499D2*
X641813D1*
X585966Y1023199D2*
X584065Y1027001D1*
X580218Y1030848D1*
X576416Y1032749D1*
X568766D1*
X564920Y1030848D1*
X561117Y1027001D1*
X559172Y1023199D1*
X557270Y1017451D1*
Y1007856D1*
X559172Y1002152D1*
X561117Y998305D1*
X564920Y994503D1*
X568766Y992557D1*
X576416D1*
X580218Y994503D1*
X584065Y998305D1*
X585966Y1002152D1*
Y1007856D1*
X576416D1*
X625112Y1032749D2*
Y992557D1*
X598318Y1032749D1*
Y992557D1*
X637464Y1032749D2*
Y992557D1*
X650861D1*
X656609Y994503D1*
X660456Y998305D1*
X662357Y1002152D1*
X664258Y1007856D1*
Y1017451D1*
X662357Y1023199D1*
X660456Y1027001D1*
X656609Y1030848D1*
X650861Y1032749D1*
X637464D1*
X665520Y547727D2*
D79*
X664094Y550579D1*
X661209Y553464D1*
X658357Y554890D1*
X652620D1*
X649735Y553464D1*
X646883Y550579D1*
X645424Y547727D1*
X643998Y543416D1*
Y536220D1*
X645424Y531942D1*
X646883Y529057D1*
X649735Y526206D1*
X652620Y524746D1*
X658357D1*
X661209Y526206D1*
X664094Y529057D1*
X665520Y531942D1*
Y536220D1*
X658357D1*
X694880Y554890D2*
Y524746D1*
X674784Y554890D1*
Y524746D1*
X704143Y554890D2*
Y524746D1*
X714191D1*
X718502Y526206D1*
X721387Y529057D1*
X722813Y531942D1*
X724239Y536220D1*
Y543416D1*
X722813Y547727D1*
X721387Y550579D1*
X718502Y553464D1*
X714191Y554890D1*
X704143D1*
X771771Y547727D2*
X770345Y550579D1*
X767460Y553464D1*
X764608Y554890D1*
X758871D1*
X755986Y553464D1*
X753134Y550579D1*
X751675Y547727D1*
X750249Y543416D1*
Y536220D1*
X751675Y531942D1*
X753134Y529057D1*
X755986Y526206D1*
X758871Y524746D1*
X764608D1*
X767460Y526206D1*
X770345Y529057D1*
X771771Y531942D1*
Y536220D1*
X764608D1*
X801130Y554890D2*
Y524746D1*
X781034Y554890D1*
Y524746D1*
X810394Y554890D2*
Y524746D1*
X820442D1*
X824753Y526206D1*
X827638Y529057D1*
X829064Y531942D1*
X830490Y536220D1*
Y543416D1*
X829064Y547727D1*
X827638Y550579D1*
X824753Y553464D1*
X820442Y554890D1*
X810394D1*
X865520Y547727D2*
X864094Y550579D1*
X861209Y553464D1*
X858357Y554890D1*
X852620D1*
X849735Y553464D1*
X846883Y550579D1*
X845424Y547727D1*
X843998Y543416D1*
Y536220D1*
X845424Y531942D1*
X846883Y529057D1*
X849735Y526206D1*
X852620Y524746D1*
X858357D1*
X861209Y526206D1*
X864094Y529057D1*
X865520Y531942D1*
Y536220D1*
X858357D1*
X894880Y554890D2*
Y524746D1*
X874784Y554890D1*
Y524746D1*
X904143Y554890D2*
Y524746D1*
X914191D1*
X918502Y526206D1*
X921387Y529057D1*
X922813Y531942D1*
X924239Y536220D1*
Y543416D1*
X922813Y547727D1*
X921387Y550579D1*
X918502Y553464D1*
X914191Y554890D1*
X904143D1*
X965520Y547727D2*
X964094Y550579D1*
X961209Y553464D1*
X958357Y554890D1*
X952620D1*
X949735Y553464D1*
X946883Y550579D1*
X945424Y547727D1*
X943998Y543416D1*
Y536220D1*
X945424Y531942D1*
X946883Y529057D1*
X949735Y526206D1*
X952620Y524746D1*
X958357D1*
X961209Y526206D1*
X964094Y529057D1*
X965520Y531942D1*
Y536220D1*
X958357D1*
X994880Y554890D2*
Y524746D1*
X974784Y554890D1*
Y524746D1*
X1004143Y554890D2*
Y524746D1*
X1014191D1*
X1018502Y526206D1*
X1021387Y529057D1*
X1022813Y531942D1*
X1024239Y536220D1*
Y543416D1*
X1022813Y547727D1*
X1021387Y550579D1*
X1018502Y553464D1*
X1014191Y554890D1*
X1004143D1*
X691979Y774746D2*
X680472Y804890D1*
X668998Y774746D1*
X673309Y784794D2*
X687668D1*
X709865Y804857D2*
X705554Y803431D1*
X702669Y799120D1*
X701243Y791957D1*
Y787646D1*
X702669Y780483D1*
X705554Y776172D1*
X709865Y774746D1*
X712717D1*
X717028Y776172D1*
X719880Y780483D1*
X721339Y787646D1*
Y791957D1*
X719880Y799120D1*
X717028Y803431D1*
X712717Y804857D1*
X709865D1*
X719880Y799120D2*
X702669Y780483D1*
X791979Y774746D2*
X780472Y804890D1*
X768998Y774746D1*
X773309Y784794D2*
X787668D1*
X801243Y799120D2*
X804128Y800579D1*
X808439Y804857D1*
Y774746D1*
X891979D2*
X880472Y804890D1*
X868998Y774746D1*
X873309Y784794D2*
X887668D1*
X902702Y797694D2*
Y799120D1*
X904128Y802005D1*
X905554Y803431D1*
X908439Y804857D1*
X914176D1*
X917028Y803431D1*
X918454Y802005D1*
X919913Y799120D1*
Y796268D1*
X918454Y793383D1*
X915602Y789105D1*
X901243Y774746D1*
X921339D1*
X991979D2*
X980472Y804890D1*
X968998Y774746D1*
X973309Y784794D2*
X987668D1*
X1004128Y804857D2*
X1019880D1*
X1011291Y793383D1*
X1015602D1*
X1018454Y791957D1*
X1019880Y790531D1*
X1021339Y786220D1*
Y783368D1*
X1019880Y779057D1*
X1017028Y776172D1*
X1012717Y774746D1*
X1008406D1*
X1004128Y776172D1*
X1002702Y777631D1*
X1001243Y780483D1*
X1275249Y561140D2*
Y530996D1*
X1285297D1*
X1289608Y532455D1*
X1292493Y535307D1*
X1293919Y538192D1*
X1295345Y542470D1*
Y549666D1*
X1293919Y553977D1*
X1292493Y556829D1*
X1289608Y559714D1*
X1285297Y561140D1*
X1275249D1*
X1313231Y561107D2*
X1308920Y559681D1*
X1306034Y555370D1*
X1304609Y548207D1*
Y543896D1*
X1306034Y536733D1*
X1308920Y532422D1*
X1313231Y530996D1*
X1316082D1*
X1320393Y532422D1*
X1323245Y536733D1*
X1324705Y543896D1*
Y548207D1*
X1323245Y555370D1*
X1320393Y559681D1*
X1316082Y561107D1*
X1313231D1*
X1323245Y555370D2*
X1306034Y536733D1*
X1375249Y561140D2*
Y530996D1*
X1385297D1*
X1389608Y532455D1*
X1392493Y535307D1*
X1393919Y538192D1*
X1395345Y542470D1*
Y549666D1*
X1393919Y553977D1*
X1392493Y556829D1*
X1389608Y559714D1*
X1385297Y561140D1*
X1375249D1*
X1404609Y555370D2*
X1407494Y556829D1*
X1411805Y561107D1*
Y530996D1*
X1475249Y561140D2*
Y530996D1*
X1485297D1*
X1489608Y532455D1*
X1492493Y535307D1*
X1493919Y538192D1*
X1495345Y542470D1*
Y549666D1*
X1493919Y553977D1*
X1492493Y556829D1*
X1489608Y559714D1*
X1485297Y561140D1*
X1475249D1*
X1506068Y553944D2*
Y555370D1*
X1507494Y558255D1*
X1508920Y559681D1*
X1511805Y561107D1*
X1517542D1*
X1520393Y559681D1*
X1521819Y558255D1*
X1523279Y555370D1*
Y552518D1*
X1521819Y549633D1*
X1518968Y545355D1*
X1504609Y530996D1*
X1524705D1*
X1575249Y561140D2*
Y530996D1*
X1585297D1*
X1589608Y532455D1*
X1592493Y535307D1*
X1593919Y538192D1*
X1595345Y542470D1*
Y549666D1*
X1593919Y553977D1*
X1592493Y556829D1*
X1589608Y559714D1*
X1585297Y561140D1*
X1575249D1*
X1607494Y561107D2*
X1623245D1*
X1614657Y549633D1*
X1618968D1*
X1621819Y548207D1*
X1623245Y546781D1*
X1624705Y542470D1*
Y539618D1*
X1623245Y535307D1*
X1620393Y532422D1*
X1616082Y530996D1*
X1611771D1*
X1607494Y532422D1*
X1606068Y533881D1*
X1604609Y536733D1*
X1681498Y561140D2*
Y530996D1*
X1691546D1*
X1695857Y532455D1*
X1698742Y535307D1*
X1700168Y538192D1*
X1701594Y542470D1*
Y549666D1*
X1700168Y553977D1*
X1698742Y556829D1*
X1695857Y559714D1*
X1691546Y561140D1*
X1681498D1*
X1725217Y530996D2*
Y561107D1*
X1710858Y541044D1*
X1732380D1*
X1775248Y561140D2*
Y530996D1*
X1785296D1*
X1789607Y532455D1*
X1792492Y535307D1*
X1793918Y538192D1*
X1795344Y542470D1*
Y549666D1*
X1793918Y553977D1*
X1792492Y556829D1*
X1789607Y559714D1*
X1785296Y561140D1*
X1775248D1*
X1821818Y561107D2*
X1807492D1*
X1806066Y548207D1*
X1807492Y549633D1*
X1811803Y551092D1*
X1816081D1*
X1820392Y549633D1*
X1823277Y546781D1*
X1824703Y542470D1*
Y539618D1*
X1823277Y535307D1*
X1820392Y532422D1*
X1816081Y530996D1*
X1811803D1*
X1807492Y532422D1*
X1806066Y533881D1*
X1804607Y536733D1*
X1875249Y561140D2*
Y530996D1*
X1885297D1*
X1889608Y532455D1*
X1892493Y535307D1*
X1893919Y538192D1*
X1895345Y542470D1*
Y549666D1*
X1893919Y553977D1*
X1892493Y556829D1*
X1889608Y559714D1*
X1885297Y561140D1*
X1875249D1*
X1921819Y556829D2*
X1920393Y559681D1*
X1916082Y561107D1*
X1913231D1*
X1908920Y559681D1*
X1906034Y555370D1*
X1904609Y548207D1*
Y541044D1*
X1906034Y535307D1*
X1908920Y532422D1*
X1913231Y530996D1*
X1914657D1*
X1918934Y532422D1*
X1921819Y535307D1*
X1923245Y539618D1*
Y541044D1*
X1921819Y545355D1*
X1918934Y548207D1*
X1914657Y549633D1*
X1913231D1*
X1908920Y548207D1*
X1906034Y545355D1*
X1904609Y541044D1*
X1975249Y561140D2*
Y530996D1*
X1985297D1*
X1989608Y532455D1*
X1992493Y535307D1*
X1993919Y538192D1*
X1995345Y542470D1*
Y549666D1*
X1993919Y553977D1*
X1992493Y556829D1*
X1989608Y559714D1*
X1985297Y561140D1*
X1975249D1*
X2010345Y530996D2*
X2024705Y561107D1*
X2004609D1*
X2123466Y760699D2*
D78*
X2121565Y764501D1*
X2117718Y768348D1*
X2113916Y770249D1*
X2106266D1*
X2102420Y768348D1*
X2098617Y764501D1*
X2096672Y760699D1*
X2094770Y754951D1*
Y745356D1*
X2096672Y739652D1*
X2098617Y735805D1*
X2102420Y732003D1*
X2106266Y730057D1*
X2113916D1*
X2117718Y732003D1*
X2121565Y735805D1*
X2123466Y739652D1*
Y745356D1*
X2113916D1*
X2162612Y770249D2*
Y730057D1*
X2135818Y770249D1*
Y730057D1*
X2174964Y770249D2*
Y730057D1*
X2188361D1*
X2194109Y732003D1*
X2197956Y735805D1*
X2199857Y739652D1*
X2201758Y745356D1*
Y754951D1*
X2199857Y760699D1*
X2197956Y764501D1*
X2194109Y768348D1*
X2188361Y770249D1*
X2174964D1*
X2094770Y870249D2*
Y830057D1*
X2133916Y870249D2*
Y830057D1*
X2107122Y870249D1*
Y830057D1*
X2159665Y870249D2*
Y830057D1*
X2146268Y870249D2*
X2173062D1*
X2319162Y548807D2*
X2303820Y588999D1*
X2288521Y548807D1*
X2294269Y562204D2*
X2313414D1*
X2343010Y588999D2*
X2339163Y587097D1*
X2335361Y583251D1*
X2333415Y579448D1*
X2331514Y573700D1*
Y564105D1*
X2333415Y558401D1*
X2335361Y554555D1*
X2339163Y550752D1*
X2343010Y548807D1*
X2350659D1*
X2354462Y550752D1*
X2358308Y554555D1*
X2360210Y558401D1*
X2362111Y564105D1*
Y573700D1*
X2360210Y579448D1*
X2358308Y583251D1*
X2354462Y587097D1*
X2350659Y588999D1*
X2343010D1*
X2374462D2*
Y560303D1*
X2376364Y554555D1*
X2380210Y550752D1*
X2385958Y548807D1*
X2389761D1*
X2395509Y550752D1*
X2399356Y554555D1*
X2401257Y560303D1*
Y588999D1*
X2427006D2*
Y548807D1*
X2413608Y588999D2*
X2440403D1*
X2523466Y579448D2*
X2521565Y583251D1*
X2517718Y587097D1*
X2513916Y588999D1*
X2506266D1*
X2502420Y587097D1*
X2498617Y583251D1*
X2496672Y579448D1*
X2494770Y573700D1*
Y564105D1*
X2496672Y558401D1*
X2498617Y554555D1*
X2502420Y550752D1*
X2506266Y548807D1*
X2513916D1*
X2517718Y550752D1*
X2521565Y554555D1*
X2523466Y558401D1*
Y564105D1*
X2513916D1*
X2562612Y588999D2*
Y548807D1*
X2535818Y588999D1*
Y548807D1*
X2574964Y588999D2*
Y548807D1*
X2588361D1*
X2594109Y550752D1*
X2597956Y554555D1*
X2599857Y558401D1*
X2601758Y564105D1*
Y573700D1*
X2599857Y579448D1*
X2597956Y583251D1*
X2594109Y587097D1*
X2588361Y588999D1*
X2574964D1*
X1222859Y1706682D2*
D80*
Y1626298D1*
X1251453Y1687493D2*
Y1691295D1*
X1255256Y1698989D1*
X1259058Y1702791D1*
X1266752Y1706594D1*
X1282050D1*
X1289655Y1702791D1*
X1293458Y1698989D1*
X1297349Y1691295D1*
Y1683690D1*
X1293458Y1675997D1*
X1285853Y1664589D1*
X1247562Y1626298D1*
X1301152D1*
X1383246Y1687581D2*
X1379444Y1695186D1*
X1371750Y1702880D1*
X1364145Y1706682D1*
X1348846D1*
X1341153Y1702880D1*
X1333548Y1695186D1*
X1329657Y1687581D1*
X1325854Y1676085D1*
Y1656896D1*
X1329657Y1645488D1*
X1333548Y1637794D1*
X1341153Y1630189D1*
X1348846Y1626298D1*
X1364145D1*
X1371750Y1630189D1*
X1379444Y1637794D1*
X1383246Y1645488D1*
X1535409Y1706682D2*
X1485711D1*
Y1626298D1*
X1535409D1*
X1485711Y1668392D2*
X1516308D1*
X1560112Y1679888D2*
X1602205Y1626298D1*
Y1679888D2*
X1560112Y1626298D1*
X1626908Y1679888D2*
Y1599504D1*
Y1668392D2*
X1634601Y1675997D1*
X1642206Y1679888D1*
X1653702D1*
X1661396Y1675997D1*
X1669001Y1668392D1*
X1672892Y1656896D1*
Y1649202D1*
X1669001Y1637794D1*
X1661396Y1630101D1*
X1653702Y1626298D1*
X1642206D1*
X1634601Y1630101D1*
X1626908Y1637794D1*
X1697595Y1656896D2*
X1743491D1*
Y1664589D1*
X1739688Y1672283D1*
X1735886Y1676085D1*
X1728192Y1679888D1*
X1716696D1*
X1709091Y1676085D1*
X1701397Y1668392D1*
X1697595Y1656896D1*
Y1649290D1*
X1701397Y1637794D1*
X1709091Y1630189D1*
X1716696Y1626298D1*
X1728192D1*
X1735886Y1630189D1*
X1743491Y1637794D1*
X1768193Y1679888D2*
Y1626298D1*
Y1656896D2*
X1772084Y1668392D1*
X1779690Y1676085D1*
X1787383Y1679888D1*
X1798879D1*
X1823582Y1706682D2*
X1827384Y1702880D1*
X1831275Y1706682D1*
X1827384Y1710573D1*
X1823582Y1706682D1*
X1827384Y1679888D2*
Y1626298D1*
X1855978Y1679888D2*
Y1626298D1*
Y1664589D2*
X1867474Y1676085D1*
X1875168Y1679888D1*
X1886575D1*
X1894269Y1676085D1*
X1898072Y1664589D1*
Y1626298D1*
Y1664589D2*
X1909568Y1676085D1*
X1917261Y1679888D1*
X1928669D1*
X1936362Y1676085D1*
X1940253Y1664589D1*
Y1626298D1*
X1964956Y1656896D2*
X2010852D1*
Y1664589D1*
X2007049Y1672283D1*
X2003247Y1676085D1*
X1995553Y1679888D1*
X1984057D1*
X1976452Y1676085D1*
X1968759Y1668392D1*
X1964956Y1656896D1*
Y1649290D1*
X1968759Y1637794D1*
X1976452Y1630189D1*
X1984057Y1626298D1*
X1995553D1*
X2003247Y1630189D1*
X2010852Y1637794D1*
X2035555Y1679888D2*
Y1626298D1*
Y1664589D2*
X2047051Y1676085D1*
X2054744Y1679888D1*
X2066152D1*
X2073845Y1676085D1*
X2077648Y1664589D1*
Y1626298D1*
X2113847Y1706682D2*
Y1641597D1*
X2117649Y1630189D1*
X2125343Y1626298D1*
X2132948D1*
X2102351Y1679888D2*
X2129145D1*
X2235412Y1706682D2*
Y1626298D1*
X2269900D1*
X2281396Y1630189D1*
X2285199Y1633992D1*
X2289002Y1641597D1*
Y1653093D1*
X2285199Y1660787D1*
X2281396Y1664589D1*
X2269900Y1668392D1*
X2281396Y1672283D1*
X2285199Y1676085D1*
X2289002Y1683690D1*
Y1691384D1*
X2285199Y1698989D1*
X2281396Y1702880D1*
X2269900Y1706682D1*
X2235412D1*
Y1668392D2*
X2269900D1*
X2332806Y1679888D2*
X2325200Y1676085D1*
X2317507Y1668392D1*
X2313704Y1656896D1*
Y1649290D1*
X2317507Y1637794D1*
X2325200Y1630189D1*
X2332806Y1626298D1*
X2344302D1*
X2351995Y1630189D1*
X2359600Y1637794D1*
X2363491Y1649290D1*
Y1656896D1*
X2359600Y1668392D1*
X2351995Y1676085D1*
X2344302Y1679888D1*
X2332806D1*
X2434090D2*
Y1626298D1*
Y1668392D2*
X2426485Y1676085D1*
X2418791Y1679888D1*
X2407384D1*
X2399690Y1676085D1*
X2392085Y1668392D1*
X2388194Y1656896D1*
Y1649290D1*
X2392085Y1637794D1*
X2399690Y1630189D1*
X2407384Y1626298D1*
X2418791D1*
X2426485Y1630189D1*
X2434090Y1637794D1*
X2458793Y1679888D2*
Y1626298D1*
Y1656896D2*
X2462684Y1668392D1*
X2470289Y1676085D1*
X2477982Y1679888D1*
X2489478D1*
X2560077Y1706682D2*
Y1626298D1*
Y1668392D2*
X2552472Y1676085D1*
X2544778Y1679888D1*
X2533282D1*
X2525677Y1676085D1*
X2517984Y1668392D1*
X2514181Y1656896D1*
Y1649290D1*
X2517984Y1637794D1*
X2525677Y1630189D1*
X2533282Y1626298D1*
X2544778D1*
X2552472Y1630189D1*
X2560077Y1637794D1*
M02*
