M48
INCH
T01C0.012
T02C0.0433
%
T01
X+016940Y+010190
X+016271Y+009502
X+014821Y+008315
X+015439Y+006504
X+016940Y+011690
X+021211Y+011003
X+021211Y+010204
X+024065Y+009690
X+024734Y+009065
X+025315Y+007877
X+023503Y+007503
X+025190Y+010627
X+026315Y+010607
X+024065Y+011690
X+025440Y+017440
X+025753Y+019003
X+026422Y+019440
X+025628Y+020440
X+025065Y+019896
X+023833Y+019440
X+023190Y+020252
X+023833Y+021190
X+023233Y+021501
X+024690Y+022565
X+026503Y+021503
X+021565Y+020190
X+021003Y+018378
X+020096Y+018659
X+018958Y+019565
X+017251Y+020690
X+014336Y+021541
X+013002Y+021003
X+012415Y+019790
X+012440Y+019065
X+011333Y+019440
X+011333Y+020216
X+010359Y+020690
X+010438Y+021942
X+009190Y+020190
X+008752Y+019815
X+008127Y+020219
X+007815Y+019815
X+009315Y+017859
X+009439Y+015626
X+009940Y+012690
X+010815Y+011502
X+010815Y+010627
X+008984Y+011064
X+008252Y+009253
X+012190Y+012690
X+005439Y+014626
X+005441Y+015128
X+005441Y+015628
X+005441Y+016128
X+006377Y+022128
X+012547Y+022752
X+020502Y+022128
X+021190Y+022315
T02
X+013002Y+004502
X+014002Y+004502
X+015002Y+004502
X+016002Y+004502
X+017002Y+004502
X+018002Y+004502
X+019002Y+004502
X+020002Y+004502
X+020126Y+007502
X+020126Y+008502
X+023813Y+004565
X+024813Y+004565
X+028313Y+012376
X+028313Y+013376
X+028313Y+014376
X+028313Y+015376
X+026502Y+023315
X+025502Y+023315
X+022126Y+023313
X+021126Y+023313
X+020126Y+023313
X+008940Y+023250
X+007940Y+023250
X+004815Y+010127
X+004815Y+009127
X+006940Y+006940
X+007940Y+006940
X+008940Y+006940
X+009940Y+006940
X+009815Y+004502
X+008815Y+004502
X+007815Y+004502
X+006815Y+004502
T00
M30
