G04 DipTrace 3.1.0.0*
G04 SensorActuatorBreakout.gtl*
%MOIN*%
G04 #@! TF.FileFunction,Copper,L1,Top*
G04 #@! TF.Part,Single*
%AMOUTLINE0*
4,1,16,
0.005906,0.008858,
0.00532,0.01142,
0.003682,0.013475,
0.001314,0.014615,
-0.001314,0.014615,
-0.003682,0.013475,
-0.00532,0.01142,
-0.005906,0.008858,
-0.005906,-0.008858,
-0.00532,-0.01142,
-0.003682,-0.013475,
-0.001314,-0.014615,
0.001314,-0.014615,
0.003682,-0.013475,
0.00532,-0.01142,
0.005906,-0.008858,
0.005906,0.008858,
0*%
%AMOUTLINE3*
4,1,16,
0.008858,-0.005906,
0.01142,-0.00532,
0.013475,-0.003682,
0.014615,-0.001314,
0.014615,0.001314,
0.013475,0.003682,
0.01142,0.00532,
0.008858,0.005906,
-0.008858,0.005906,
-0.01142,0.00532,
-0.013475,0.003682,
-0.014615,0.001314,
-0.014615,-0.001314,
-0.013475,-0.003682,
-0.01142,-0.00532,
-0.008858,-0.005906,
0.008858,-0.005906,
0*%
%AMOUTLINE6*
4,1,4,
0.029231,-0.001392,
0.001392,-0.029231,
-0.029231,0.001392,
-0.001392,0.029231,
0.029231,-0.001392,
0*%
%AMOUTLINE9*
4,1,4,
-0.029231,0.001392,
-0.001392,0.029231,
0.029231,-0.001392,
0.001392,-0.029231,
-0.029231,0.001392,
0*%
G04 #@! TA.AperFunction,Conductor*
%ADD11C,0.006*%
%ADD13C,0.013*%
%ADD14C,0.007874*%
%ADD15C,0.011811*%
G04 #@! TA.AperFunction,CopperBalancing*
%ADD16C,0.025*%
%ADD20R,0.057087X0.011811*%
%ADD21R,0.043307X0.03937*%
%ADD22R,0.051181X0.059055*%
%ADD23R,0.03937X0.043307*%
%ADD25R,0.043307X0.023622*%
%ADD26R,0.07874X0.023622*%
%ADD27R,0.070866X0.015748*%
%ADD29R,0.023622X0.019685*%
%ADD30R,0.055118X0.098425*%
G04 #@! TA.AperFunction,ComponentPad*
%ADD31R,0.066929X0.066929*%
%ADD32C,0.066929*%
%ADD34R,0.01378X0.033465*%
%ADD35R,0.059055X0.025591*%
%ADD37R,0.035433X0.059055*%
%ADD38R,0.031496X0.007874*%
%ADD39R,0.023622X0.07874*%
G04 #@! TA.AperFunction,ViaPad*
%ADD40C,0.03*%
%ADD82OUTLINE0*%
%ADD85OUTLINE3*%
%ADD88OUTLINE6*%
%ADD91OUTLINE9*%
%FSLAX26Y26*%
G04*
G70*
G90*
G75*
G01*
G04 Top*
%LPD*%
X2539088Y1490449D2*
D11*
X2784084D1*
X2831265Y1537630D1*
X2675251Y1287751D2*
X2875249D1*
Y1493646D1*
X2831265Y1537630D1*
X931500Y1719000D2*
Y1652534D1*
X891588Y1612622D1*
X831475Y1106425D2*
Y1000274D1*
X834562Y997188D1*
X887749Y944000D1*
X927780D1*
X929711Y942068D1*
X1550150Y2281423D2*
D13*
X1600150D1*
X1650150D2*
X1600150D1*
X1700150D2*
X1650150D1*
X1433630Y2221026D2*
X1489753D1*
X1550150Y2281423D1*
X1187749Y2275249D2*
X1162749D1*
X1131500Y2244000D1*
Y2131500D1*
Y2112751D1*
X1144000Y2100251D1*
X1174412D1*
X1174512Y2100151D1*
X969000Y2194000D2*
X887530D1*
X875220Y2206310D1*
X969000Y2194000D2*
Y2128348D1*
Y2069000D1*
X1772247Y856451D2*
Y903253D1*
X1694000Y981500D1*
X2387562Y712906D2*
X2325094D1*
X2300251Y737749D1*
Y862751D1*
X2337751Y900251D1*
X2381500D1*
X2406500Y925251D1*
X1694000Y981500D2*
Y1019000D1*
Y1169000D2*
X1719000D1*
X831475Y1106425D2*
Y1206475D1*
X894000Y1269000D1*
X994000D1*
X1219000D2*
X1244000D1*
X2406500Y925251D2*
Y969000D1*
Y1169000D2*
X2419000D1*
Y1194000D1*
X2725251Y1712749D2*
D11*
Y2068999D1*
X2694178Y2100071D1*
X2647627D1*
X2564950Y2115819D2*
D14*
X2542702D1*
D13*
X2453432D1*
X2450251Y2119000D1*
Y1944000D1*
X2575251D2*
X2450251D1*
X2575251D2*
Y1900251D1*
X2544000Y1744000D2*
X2569000D1*
X2256325Y2150066D2*
Y2101419D1*
X2256500D1*
Y2031500D1*
X2166251Y2101275D2*
X2256500Y2101419D1*
X2450251Y2119000D2*
Y2175248D1*
X2400249Y2225249D1*
X2293999D1*
X2256500Y2187751D1*
Y2150240D1*
X2256325Y2150066D1*
X2166251Y2101275D2*
D15*
X2145135Y2101274D1*
D13*
X2092976D1*
X2069000Y2125251D1*
X2043849D1*
D15*
X2048140Y2120960D1*
X2067825Y2042219D2*
Y2061576D1*
D13*
X2092976Y2086727D1*
Y2101274D1*
X2048140Y2120960D2*
D15*
X2027025Y2120959D1*
D13*
X2004541D1*
X1844000Y2281500D1*
X1700227D1*
X1700150Y2281423D1*
X1433630Y2221026D2*
X1241972D1*
X1187749Y2275249D1*
X1131500Y2131500D2*
X965848D1*
X969000Y2128348D1*
X756483Y981438D2*
D11*
X818812D1*
X834562Y997188D1*
X849630Y2206310D2*
Y2280698D1*
X893979Y2325047D1*
X1043803Y2194000D2*
Y2194197D1*
X1035929Y2069000D2*
D3*
X1706383Y1937588D2*
Y2062591D1*
X1700150Y2068824D1*
X600249Y1612622D2*
Y1562622D1*
Y1512622D2*
Y1562622D1*
Y1462622D2*
Y1512622D1*
Y1612622D2*
X544129Y1612751D1*
X600249Y1562622D2*
X544129Y1562751D1*
X600249Y1512622D2*
X544129Y1512751D1*
X600249Y1462622D2*
X543871D1*
X891588Y1562622D2*
X943871D1*
X931500Y1785929D2*
D3*
X2387562Y750307D2*
X2350307D1*
X2493861Y787709D2*
X2531458D1*
X898404Y1106425D2*
D3*
X637749Y2212751D2*
D3*
X1543900Y856451D2*
D13*
Y830861D1*
Y805270D2*
Y830861D1*
X1482139Y831500D1*
X1543900Y677318D2*
Y650350D1*
X2473429Y925251D2*
Y906500D1*
X2647627Y2131567D2*
D11*
Y2147627D1*
X2650251Y2150251D1*
X2506500Y1989571D2*
D3*
X2642180Y1944000D2*
D3*
X2383322Y2119000D2*
D3*
X2323255Y2150066D2*
D3*
X2323429Y2031500D2*
X2319000D1*
Y2025249D1*
X2459175Y2247575D2*
X2469000D1*
Y2256500D1*
X2383322Y1944000D2*
D3*
X2564950Y2068575D2*
Y2046199D1*
X2562751Y2044000D1*
X2146566Y2042219D2*
Y2028934D1*
X2156500Y2019000D1*
X2126881Y2160329D2*
Y2223619D1*
X2119000Y2231500D1*
X2087510Y2160329D2*
Y2175490D1*
X2050249Y2212751D1*
X1895822Y1956500D2*
D3*
X1433630Y2154097D2*
D3*
X1700150Y2068824D2*
X1725073Y2069000D1*
X1269000Y2100151D2*
X1300151Y2100251D1*
X1254678Y2275249D2*
D3*
X1627071Y981500D2*
Y950249D1*
X756483Y942068D2*
X808432D1*
X825249Y925251D1*
X1772247Y779680D2*
D13*
X1942079D1*
X2012601Y850202D1*
X2087510Y2042219D2*
D11*
Y2000010D1*
X2044000Y1956500D1*
X1962751D1*
X824039Y2206310D2*
X711119D1*
X704678Y2212751D1*
X1650150Y2068824D2*
Y1948283D1*
X1639454Y1937588D1*
X2506500Y2200249D2*
Y2190017D1*
X2564950Y2131567D1*
X2506500Y2056500D2*
Y2076261D1*
X2514562Y2084323D1*
X2564950D1*
X1543900Y779680D2*
X1448381D1*
X1300176Y631475D1*
Y450244D1*
X1543900Y754089D2*
X1472785D1*
X1400165Y681470D1*
Y450255D1*
X1400176Y450244D1*
X1543900Y728499D2*
X1478441D1*
X1443911Y693969D1*
Y506509D1*
X1500176Y450244D1*
X1543900Y702908D2*
X1490346D1*
X1468908Y681470D1*
Y581512D1*
X1600176Y450244D1*
X1772255Y677318D2*
Y522323D1*
X1700176Y450244D1*
X1772247Y702908D2*
X1822430D1*
X1850118Y675220D1*
Y500186D1*
X1800176Y450244D1*
X1772247Y728499D2*
X1846835D1*
X1900113Y675220D1*
Y450307D1*
X1900176Y450244D1*
X1772247Y754089D2*
X1858740D1*
X2000102Y612727D1*
Y450318D1*
X2000176Y450244D1*
X2387562Y787709D2*
X2419042D1*
X2431500Y775251D1*
Y468999D1*
X2412751Y450249D1*
X2387556D1*
X2381312Y456493D1*
X2107196Y2160329D2*
Y2193304D1*
X1987749Y2312751D1*
Y2331297D1*
X2012601D1*
X2146566Y2160329D2*
Y2297332D1*
X2112601Y2331297D1*
X824039Y2131507D2*
X625243D1*
X587749Y2169000D1*
Y2300249D1*
X612547Y2325047D1*
X793979D1*
X2647627Y2115819D2*
X2665819D1*
X2687749Y2137749D1*
Y2212751D1*
X2656500Y2244000D1*
X2600249D1*
X2525249Y2319000D1*
Y2331500D1*
X2550249D1*
X756483Y922383D2*
X722383D1*
X694000Y894000D1*
Y694000D1*
X756483Y902698D2*
Y731517D1*
X794000Y694000D1*
X929711Y902698D2*
Y729711D1*
X894000Y694000D1*
X929711Y922383D2*
X965522D1*
X994000Y893906D1*
Y694000D1*
X756483Y961753D2*
X530570D1*
X481512Y912696D1*
X2831265Y1437630D2*
X2591907D1*
X2586413Y1443123D1*
Y1020436D1*
X2587749D1*
Y775249D1*
X2562751Y750251D1*
X2493917D1*
X2493861Y750307D1*
X2586413Y1020436D2*
X2121121D1*
X2076686D1*
X1862751Y806500D1*
X1773476D1*
X1772247Y805270D1*
X2121121Y1100251D2*
X1137751D1*
X1062751D1*
X943938Y981438D1*
X929711D1*
X891588Y1512622D2*
X837878D1*
X812749Y1537751D1*
Y2021946D1*
Y2056499D1*
X844000Y2087749D1*
Y2125877D1*
X849630Y2131507D1*
X919000Y2019000D2*
X1130762D1*
X1133322Y2021559D1*
X1174512Y2062749D1*
X1133322Y1944000D2*
X1544000D1*
X1600249Y2000249D1*
Y2068724D1*
X1600150Y2068824D1*
X1544000Y1944000D2*
Y1906500D1*
X1594000Y1856500D1*
X2000249D1*
X2009625Y1865875D1*
X2125249Y1981500D1*
Y2043850D1*
X2126881Y2042219D1*
X2647627Y2084323D2*
X2678677D1*
X2706500Y2056500D1*
Y1894000D1*
X2650251Y1837751D1*
X2100251D1*
X891588Y1512622D2*
X1025378D1*
X1137751Y1400249D1*
Y1100251D1*
X2831265Y1337630D2*
X2630479D1*
X2627925Y1335076D1*
Y1316324D1*
X2631500Y1312749D1*
Y1060747D1*
Y787751D1*
X2556500Y712751D1*
X2494016D1*
X2493861Y712906D1*
X2519000Y1062749D2*
X2068999D1*
X2065127Y1058878D1*
X1837749Y831500D1*
X1772886D1*
X1772247Y830861D1*
X2065127Y1058878D2*
Y1062749D1*
X1081500D1*
X981500Y962749D1*
X930707D1*
X929711Y961753D1*
X1081500Y1150249D2*
Y1425249D1*
X1044127Y1462622D1*
X891588D1*
X837878D1*
X781500Y1519000D1*
Y1981500D1*
X875249D2*
Y2131478D1*
X875220Y2131507D1*
X1269000Y2062749D2*
Y2006500D1*
X1244000Y1981500D1*
X875249D1*
X1269000Y2062749D2*
X1544075D1*
X1550150Y2068824D1*
X1244000Y1981500D2*
X1241539Y1979039D1*
X1244000Y1906500D2*
X1506500D1*
X1575249Y1837751D1*
X2025251D1*
X2093782Y1906282D1*
X2194000Y2006500D1*
Y2053840D1*
X2166251Y2081590D1*
X2647627Y2068575D2*
X2669425D1*
X2687749Y2050251D1*
Y1906499D1*
X2637751Y1856500D1*
X2143564D1*
X2093782Y1906282D1*
D40*
X1694000Y1019000D3*
Y1169000D3*
X994000Y1269000D3*
X1219000D3*
X2406500Y969000D3*
Y1169000D3*
X2575251Y1900251D3*
X2544000Y1744000D3*
X1043803Y2194197D3*
X1035929Y2069000D3*
X544129Y1612751D3*
Y1562751D3*
Y1512751D3*
X543871Y1462622D3*
X943871Y1562622D3*
X931500Y1785929D3*
X2350307Y750307D3*
X2531458Y787709D3*
X898404Y1106425D3*
X637749Y2212751D3*
X1482139Y831500D3*
X1543900Y650350D3*
X2473429Y906500D3*
X2650251Y2150251D3*
X2506500Y1989571D3*
X2642180Y1944000D3*
X2383322Y2119000D3*
X2323255Y2150066D3*
X2319000Y2025249D3*
X2469000Y2256500D3*
X2383322Y1944000D3*
X2562751Y2044000D3*
X2156500Y2019000D3*
X2119000Y2231500D3*
X2050249Y2212751D3*
X1895822Y1956500D3*
X1433630Y2154097D3*
X1725073Y2069000D3*
X1300151Y2100251D3*
X1254678Y2275249D3*
X898404Y1106425D3*
X1627071Y950249D3*
X825249Y925251D3*
X2121121Y1100251D3*
Y1020436D3*
X919000Y2019000D3*
X812749Y2021946D3*
X1133322Y1944000D3*
Y2021559D3*
X2100251Y1837751D3*
X2009625Y1865875D3*
X2519000Y1062749D3*
X2631500Y1060747D3*
X1081500Y1150249D3*
Y1062749D3*
X781500Y1981500D3*
X875249D3*
D3*
X1241539Y1979039D3*
X1244000Y1906500D3*
X884000Y1881631D2*
D16*
X1154024D1*
X884000Y1856762D2*
X1154024D1*
X980167Y1831894D2*
X1154024D1*
X980167Y1807025D2*
X1154024D1*
X980167Y1782156D2*
X1154024D1*
X980167Y1757287D2*
X1154024D1*
X884000Y1732419D2*
X2854024D1*
X884000Y1707550D2*
X2854024D1*
X884000Y1682681D2*
X2854024D1*
X1208976Y1657812D2*
X2854024D1*
X1208976Y1632944D2*
X2854024D1*
X1208976Y1608075D2*
X2854024D1*
X1208976Y1583206D2*
X2854024D1*
X1208976Y1558337D2*
X2854024D1*
X1208976Y1533469D2*
X2854024D1*
X1208976Y1508600D2*
X2854024D1*
X1208976Y1483731D2*
X2529024D1*
X1208976Y1458862D2*
X2529024D1*
X1208976Y1433993D2*
X2529024D1*
X1208976Y1409125D2*
X2529024D1*
X1208976Y1384256D2*
X2529024D1*
X1208976Y1359387D2*
X2529024D1*
X1208976Y1334518D2*
X2529024D1*
X1208976Y1309650D2*
X2529024D1*
X1208976Y1284781D2*
X2529024D1*
X1208976Y1259912D2*
X2529024D1*
X1208976Y1235043D2*
X2529024D1*
X1208976Y1210175D2*
X2529024D1*
X1208976Y1185306D2*
X2529024D1*
X1208976Y1160437D2*
X2529024D1*
X897815Y1834083D2*
X977685D1*
Y1737776D1*
X885315D1*
Y1834083D1*
X897815D1*
X2531514Y1437977D2*
X2530682Y1444516D1*
X2531514Y1451054D1*
X2531414Y1450702D1*
X2531538Y1494981D1*
X2532451Y1498784D1*
X2534495Y1502118D1*
X2537469Y1504658D1*
X2541082Y1506155D1*
X2544000Y1506500D1*
X2856500D1*
Y1756500D1*
X1167045Y1756654D1*
X1163325Y1757862D1*
X1160161Y1760161D1*
X1157862Y1763325D1*
X1156654Y1767045D1*
X1156500Y1781500D1*
Y1906500D1*
X1151080D1*
X1143010Y1903647D1*
X1136578Y1902628D1*
X1130065D1*
X1123634Y1903647D1*
X1115579Y1906517D1*
X881500Y1906500D1*
Y1681500D1*
X1195955Y1681346D1*
X1199675Y1680138D1*
X1202839Y1677839D1*
X1205138Y1674675D1*
X1206346Y1670955D1*
X1206500Y1656500D1*
Y1156500D1*
X2531500D1*
X2531414Y1438329D1*
X2530682Y1444516D1*
X2531414Y1450702D1*
D82*
X2067825Y2042219D3*
X2087510D3*
X2107196D3*
X2126881D3*
D85*
X2166251Y2081590D3*
Y2101275D3*
Y2120960D3*
D82*
X2126881Y2160330D3*
X2107196D3*
X2087510D3*
X2067825D3*
D85*
X2048140Y2120960D3*
Y2101275D3*
Y2081590D3*
D82*
X2146566Y2042219D3*
Y2160330D3*
D20*
X756483Y981438D3*
Y961753D3*
Y942068D3*
Y922383D3*
Y902698D3*
X929711D3*
Y922383D3*
Y942068D3*
Y961753D3*
Y981438D3*
D21*
X1962751Y1956500D3*
X1895822D3*
X2256325Y2150066D3*
X2323255D3*
X2256500Y2031500D3*
X2323429D3*
D22*
X969000Y2194000D3*
X1043803D3*
D21*
X969000Y2069000D3*
X1035929D3*
X831475Y1106425D3*
X898404D3*
D23*
X1433630Y2221026D3*
Y2154097D3*
X931500Y1719000D3*
Y1785929D3*
D21*
X1187749Y2275249D3*
X1254678D3*
X2406500Y925251D3*
X2473429D3*
X1694000Y981500D3*
X1627071D3*
D23*
X2506500Y2056500D3*
Y1989571D3*
D21*
X2450251Y1944000D3*
X2383322D3*
X2450251Y2119000D3*
X2383322D3*
D88*
X2506500Y2200249D3*
X2459175Y2247575D3*
D21*
X2575251Y1944000D3*
X2642180D3*
D25*
X2387562Y787709D3*
Y750307D3*
Y712906D3*
X2493861D3*
Y750307D3*
Y787709D3*
D26*
X600249Y1612622D3*
Y1562622D3*
Y1512622D3*
Y1462622D3*
X891588D3*
Y1512622D3*
Y1562622D3*
Y1612622D3*
D27*
X1543900Y856451D3*
Y830861D3*
Y805270D3*
Y779680D3*
Y754089D3*
Y728499D3*
Y702908D3*
Y677318D3*
X1772255D3*
X1772247Y702908D3*
Y728499D3*
Y754089D3*
Y779680D3*
Y805270D3*
Y830861D3*
Y856451D3*
D29*
X1269000Y2062749D3*
Y2100151D3*
Y2137552D3*
X1174512D3*
Y2100151D3*
Y2062749D3*
D30*
X1221756Y2100151D3*
D31*
X1300176Y450244D3*
D32*
X1400176D3*
X1500176D3*
X1600176D3*
X1700176D3*
X1800176D3*
X1900176D3*
X2000176D3*
D31*
X2381312Y456493D3*
D32*
X2481312D3*
D31*
X2012601Y2331297D3*
D32*
X2112601D3*
X2212601D3*
D31*
X793979Y2325047D3*
D32*
X893979D3*
D31*
X2550249Y2331500D3*
D32*
X2650249D3*
D31*
X694000Y694000D3*
D32*
X794000D3*
X894000D3*
X994000D3*
D31*
X681491Y450244D3*
D32*
X781491D3*
X881491D3*
X981491D3*
D31*
X481512Y912696D3*
D32*
Y1012696D3*
D31*
X2012601Y850202D3*
D32*
Y750202D3*
D31*
X2831265Y1537630D3*
D32*
Y1437630D3*
Y1337630D3*
Y1237630D3*
D34*
X875220Y2206310D3*
X849630D3*
X824039D3*
Y2131507D3*
X849630D3*
X875220D3*
D35*
X849630Y2168908D3*
D37*
X2606289Y2100071D3*
D38*
X2564950Y2115819D3*
Y2100071D3*
Y2084323D3*
Y2068575D3*
X2647627D3*
Y2084323D3*
Y2100071D3*
Y2115819D3*
Y2131567D3*
X2564950D3*
D21*
X637749Y2212751D3*
X704678D3*
X1706383Y1937588D3*
X1639454D3*
D91*
X2539088Y1490449D3*
X2586413Y1443123D3*
X2675251Y1287751D3*
X2627925Y1335076D3*
D39*
X1550150Y2068824D3*
X1600150D3*
X1650150D3*
X1700150D3*
Y2281423D3*
X1650150D3*
X1600150D3*
X1550150D3*
M02*
